<svg width="863" height="594" viewBox="0 0 863 594" fill="none" xmlns="http://www.w3.org/2000/svg">
<path d="M614.901 402.917C614.901 507.573 530.031 592.422 425.333 592.422C320.646 592.422 235.776 507.573 235.776 402.917C235.776 298.255 320.646 213.411 425.333 213.411C530.031 213.411 614.901 298.255 614.901 402.917Z" fill="white"/>
<path d="M544.005 311.995C544.005 333.104 526.891 350.219 505.771 350.219C484.656 350.219 467.536 333.104 467.536 311.995C467.536 290.891 484.656 273.781 505.771 273.781C526.891 273.781 544.005 290.891 544.005 311.995Z" fill="#CCCCCC"/>
<path d="M430.849 491.078C430.849 519.063 408.161 541.75 380.172 541.75C352.177 541.75 329.479 519.063 329.479 491.078C329.479 463.099 352.177 440.417 380.172 440.417C408.161 440.417 430.849 463.099 430.849 491.078Z" fill="#CCCCCC"/>
<path d="M569.542 460.109C569.542 485.755 548.74 506.552 523.094 506.552C497.432 506.552 476.635 485.755 476.635 460.109C476.635 434.464 497.432 413.677 523.094 413.677C548.74 413.677 569.542 434.464 569.542 460.109Z" fill="#CCCCCC"/>
<path d="M485.484 392.979C485.484 406.677 474.375 417.786 460.672 417.786C446.974 417.786 435.859 406.677 435.859 392.979C435.859 379.286 446.974 368.177 460.672 368.177C474.375 368.177 485.484 379.286 485.484 392.979Z" fill="#CCCCCC"/>
<path d="M582.536 383.156C582.536 391.438 575.828 398.146 567.547 398.146C559.271 398.146 552.562 391.438 552.562 383.156C552.562 374.885 559.271 368.177 567.547 368.177C575.828 368.177 582.536 374.885 582.536 383.156Z" fill="#CCCCCC"/>
<path d="M453.563 282.188C453.563 288.005 448.849 292.729 443.021 292.729C437.203 292.729 432.479 288.005 432.479 282.188C432.479 276.365 437.203 271.641 443.021 271.641C448.849 271.641 453.563 276.365 453.563 282.188Z" fill="#CCCCCC"/>
<path d="M373.135 263.828C373.135 267.573 370.104 270.604 366.359 270.604C362.62 270.604 359.578 267.573 359.578 263.828C359.578 260.083 362.62 257.052 366.359 257.052C370.104 257.052 373.135 260.083 373.135 263.828Z" fill="#CCCCCC"/>
<path d="M382.37 344.807C382.37 362.937 367.672 377.62 349.547 377.62C331.417 377.62 316.724 362.937 316.724 344.807C316.724 326.687 331.417 311.995 349.547 311.995C367.672 311.995 382.37 326.687 382.37 344.807Z" fill="#CCCCCC"/>
<path d="M115.068 349.427L62.7656 464.328H115.068V349.427ZM209.875 488.568C209.875 501.948 199.031 512.802 185.641 512.802H163.557V568.177C163.557 581.568 152.698 592.422 139.312 592.422C125.922 592.422 115.068 581.568 115.068 568.177V512.802H25.0989C16.8541 512.802 9.17185 508.615 4.71352 501.688C0.255182 494.75 -0.385443 486.026 3.03122 478.526L117.24 227.609C121.964 217.234 133.286 211.547 144.443 213.964C155.594 216.385 163.557 226.245 163.557 237.651V464.328H185.641C199.031 464.328 209.885 475.182 209.875 488.568Z" fill="white"/>
<mask id="mask0_204_4" style="mask-type:luminance" maskUnits="userSpaceOnUse" x="653" y="212" width="210" height="382">
<path d="M653.25 212.333H862.531V593.667H653.25V212.333Z" fill="white"/>
</mask>
<g mask="url(#mask0_204_4)">
<path d="M767.724 349.427L715.422 464.328H767.724V349.427ZM862.542 488.568C862.542 501.948 851.682 512.802 838.297 512.802H816.203V568.177C816.203 581.568 805.354 592.422 791.958 592.422C778.568 592.422 767.724 581.568 767.724 568.177V512.802H677.755C669.516 512.802 661.828 508.615 657.37 501.688C652.906 494.75 652.271 486.026 655.688 478.526L769.896 227.609C774.62 217.234 785.943 211.547 797.099 213.964C808.25 216.385 816.203 226.245 816.203 237.651V464.328H838.297C851.682 464.328 862.542 475.182 862.542 488.568Z" fill="white"/>
</g>
<path d="M493.083 148.24C493.083 160.927 482.792 171.208 470.104 171.208H386.594C373.901 171.208 363.604 160.927 363.604 148.24V69.9531C363.604 57.2656 373.901 46.9791 386.594 46.9791H470.104C482.792 46.9791 493.083 57.2656 493.083 69.9531V148.24Z" fill="#505050"/>
<path d="M396.625 177.109V224.208H421.115V196.302C421.115 192.771 423.979 189.901 427.51 189.901C431.052 189.901 433.917 192.771 433.917 196.302V224.208H458.406V177.109H396.625Z" fill="white"/>
<path d="M421.115 224.589H396.625V210.375H421.115V224.589Z" fill="#E1E2E3"/>
<path d="M411.328 224.229H405.724V217.38C405.724 215.833 406.979 214.578 408.526 214.578C410.073 214.578 411.328 215.833 411.328 217.38V224.229Z" fill="#ECEDEE"/>
<path d="M422.635 221.396V233.896C422.635 234.922 421.682 235.755 420.5 235.755H386.958C385.562 235.755 384.547 234.625 384.875 233.453C386.141 228.969 390.234 219.536 402.24 219.536H420.5C421.682 219.536 422.635 220.37 422.635 221.396Z" fill="#D1D3D4"/>
<path d="M458.417 224.589H433.922V210.375H458.417V224.589Z" fill="#E1E2E3"/>
<path d="M458.406 209.745H456.453V177.109H458.406V209.745Z" fill="#E5E5E5"/>
<path d="M398.38 209.745H396.427V177.109H398.38V209.745Z" fill="#E5E5E5"/>
<path d="M457.625 211.443H434.026C432.172 211.443 430.672 209.938 430.672 208.089C430.672 206.24 432.172 204.734 434.026 204.734H457.625C459.474 204.734 460.979 206.24 460.979 208.089C460.979 209.938 459.474 211.443 457.625 211.443Z" fill="#D1D3D4"/>
<path d="M439.583 206.953C439.583 207.401 439.208 207.776 438.755 207.776H433.302C432.844 207.776 432.479 207.401 432.479 206.953C432.479 206.49 432.844 206.12 433.302 206.12H438.755C439.208 206.12 439.583 206.49 439.583 206.953Z" fill="#E5E6E7"/>
<path d="M442.198 206.953C442.198 207.401 441.833 207.776 441.375 207.776H441.057C440.599 207.776 440.229 207.401 440.229 206.953C440.229 206.49 440.599 206.12 441.057 206.12H441.375C441.833 206.12 442.198 206.49 442.198 206.953Z" fill="#E5E6E7"/>
<path d="M448.63 224.229H443.021V217.38C443.021 215.833 444.281 214.578 445.823 214.578C447.37 214.578 448.63 215.833 448.63 217.38V224.229Z" fill="#ECEDEE"/>
<path d="M432.125 220.656V233.802C432.125 234.88 433.125 235.755 434.365 235.755H469.625C471.089 235.755 472.156 234.568 471.812 233.333C470.484 228.63 466.188 218.714 453.562 218.714H434.365C433.125 218.714 432.125 219.578 432.125 220.656Z" fill="#D1D3D4"/>
<path d="M460.672 224.562C460.672 225.651 459.792 226.526 458.703 226.526C457.615 226.526 456.74 225.651 456.74 224.562C456.74 223.474 457.615 222.594 458.703 222.594C459.792 222.594 460.672 223.474 460.672 224.562Z" fill="#ECEDEE"/>
<path d="M399.375 224.562C399.375 225.651 398.495 226.526 397.406 226.526C396.318 226.526 395.432 225.651 395.432 224.562C395.432 223.474 396.318 222.594 397.406 222.594C398.495 222.594 399.375 223.474 399.375 224.562Z" fill="#ECEDEE"/>
<path d="M420.323 211.443H396.724C394.875 211.443 393.37 209.938 393.37 208.089C393.37 206.24 394.875 204.734 396.724 204.734H420.323C422.177 204.734 423.672 206.24 423.672 208.089C423.672 209.938 422.177 211.443 420.323 211.443Z" fill="#D1D3D4"/>
<path d="M402.281 206.953C402.281 207.401 401.906 207.776 401.448 207.776H396.005C395.547 207.776 395.172 207.401 395.172 206.953C395.172 206.49 395.547 206.12 396.005 206.12H401.448C401.906 206.12 402.281 206.49 402.281 206.953Z" fill="#E5E6E7"/>
<path d="M404.896 206.953C404.896 207.401 404.526 207.776 404.063 207.776H403.75C403.302 207.776 402.927 207.401 402.927 206.953C402.927 206.49 403.302 206.12 403.75 206.12H404.063C404.526 206.12 404.896 206.49 404.896 206.953Z" fill="#E5E6E7"/>
<path d="M363.604 95.5312H493.083V85.151H363.604V95.5312Z" fill="#444444"/>
<path d="M363.604 91.9531H493.083V88.7291H363.604V91.9531Z" fill="#505050"/>
<path d="M376.151 77.1458C376.151 78.8073 374.802 80.151 373.135 80.151C371.469 80.151 370.12 78.8073 370.12 77.1458C370.12 75.4791 371.469 74.1302 373.135 74.1302C374.802 74.1302 376.151 75.4791 376.151 77.1458Z" fill="#717171"/>
<path d="M486.568 77.1458C486.568 78.8073 485.214 80.151 483.557 80.151C481.885 80.151 480.542 78.8073 480.542 77.1458C480.542 75.4791 481.885 74.1302 483.557 74.1302C485.214 74.1302 486.568 75.4791 486.568 77.1458Z" fill="#717171"/>
<path d="M376.151 102.109C376.151 103.766 374.802 105.115 373.135 105.115C371.469 105.115 370.12 103.766 370.12 102.109C370.12 100.448 371.469 99.0938 373.135 99.0938C374.802 99.0938 376.151 100.448 376.151 102.109Z" fill="#717171"/>
<path d="M486.568 102.109C486.568 103.766 485.214 105.115 483.557 105.115C481.885 105.115 480.542 103.766 480.542 102.109C480.542 100.448 481.885 99.0938 483.557 99.0938C485.214 99.0938 486.568 100.448 486.568 102.109Z" fill="#717171"/>
<path d="M483.891 140.724C481.13 140.724 478.396 139.719 476.255 137.792L460.833 123.911C456.156 119.687 455.781 112.469 460 107.792C464.214 103.115 471.438 102.729 476.125 106.953L485.969 115.833L502.568 108.286C508.313 105.677 515.083 108.214 517.688 113.948C520.297 119.687 517.766 126.448 512.026 129.062L488.62 139.703C487.099 140.391 485.495 140.724 483.891 140.724Z" fill="white"/>
<path d="M513.224 126.354L489.818 136.995C488.297 137.682 486.693 138.021 485.089 138.021C482.318 138.021 479.583 137.01 476.797 134.432L461.38 120.547C459.5 118.917 458.234 115.75 458.271 112.589C456.943 116.734 458.047 121.453 461.49 124.562L476.906 138.448C479.042 140.375 481.776 141.375 484.542 141.375C486.151 141.375 487.755 141.047 489.276 140.359L512.677 129.719C516.849 127.818 519.313 123.729 519.354 119.432C518.401 122.396 516.271 124.969 513.224 126.354Z" fill="#E5E5E5"/>
<path d="M466.245 167.099C466.5 166.13 466.656 165.13 466.656 164.083V103.573C466.656 97.1771 461.464 91.9896 455.057 91.9896H401.635C395.229 91.9896 390.042 97.1771 390.042 103.573V164.083C390.042 165.13 390.193 166.13 390.448 167.099H466.245Z" fill="#E5E5E5"/>
<path d="M445.5 141.318C445.5 146.87 441 151.37 435.443 151.37H421.25C415.693 151.37 411.182 146.87 411.182 141.318V135.745C411.182 130.193 415.693 125.693 421.25 125.693H435.443C441 125.693 445.5 130.193 445.5 135.745V141.318Z" fill="#6D28D9"/>
<path d="M441.161 127.474C442.63 129.224 443.516 131.474 443.516 133.937V139.51C443.516 145.062 439.01 149.562 433.458 149.562H419.26C417.141 149.562 415.167 148.911 413.547 147.781C415.391 149.979 418.156 151.37 421.25 151.37H435.443C441 151.37 445.5 146.87 445.5 141.318V135.745C445.5 132.318 443.786 129.286 441.161 127.474Z" fill="#4C1D95"/>
<path d="M437.042 138.531C437.042 143.339 433.151 147.229 428.344 147.229C423.542 147.229 419.651 143.339 419.651 138.531C419.651 133.734 423.542 129.844 428.344 129.844C433.151 129.844 437.042 133.734 437.042 138.531Z" fill="#DFDFDF"/>
<path d="M434.917 138.531C434.917 142.156 431.969 145.104 428.344 145.104C424.714 145.104 421.776 142.156 421.776 138.531C421.776 134.906 424.714 131.969 428.344 131.969C431.969 131.969 434.917 134.906 434.917 138.531Z" fill="#373737"/>
<path d="M427.911 137.13C427.911 138.26 426.995 139.177 425.865 139.177C424.734 139.177 423.818 138.26 423.818 137.13C423.818 136 424.734 135.083 425.865 135.083C426.995 135.083 427.911 136 427.911 137.13Z" fill="#636363"/>
<path d="M415.625 130.99C415.625 131.812 416.286 132.484 417.115 132.484C417.937 132.484 418.599 131.812 418.599 130.99C418.599 130.167 417.937 129.505 417.115 129.505C416.286 129.505 415.625 130.167 415.625 130.99Z" fill="#4C1D95"/>
<path d="M424.01 143.464C422.693 142.313 421.839 140.63 421.776 138.745C421.776 138.734 421.776 138.734 421.776 138.734C421.776 138.729 421.776 138.729 421.776 138.719C421.776 138.719 421.776 138.719 421.776 138.708V138.703C421.776 138.693 421.776 138.693 421.776 138.682V138.677V138.667C421.776 138.661 421.776 138.661 421.776 138.651C421.776 138.651 421.776 138.651 421.776 138.641V138.635C421.776 138.625 421.776 138.625 421.776 138.625C421.776 138.615 421.776 138.615 421.776 138.609V138.599C421.776 138.594 421.776 138.594 421.776 138.583C421.776 138.583 421.776 138.583 421.776 138.573V138.568C421.776 138.557 421.776 138.557 421.776 138.557C421.776 138.547 421.776 138.542 421.776 138.531C421.776 138.521 421.776 138.505 421.776 138.5C421.776 138.141 421.813 137.792 421.859 137.453L427.266 132.052C427.604 132 427.953 131.969 428.307 131.969C428.328 131.969 428.333 131.969 428.344 131.969C428.349 131.969 428.359 131.969 428.37 131.969H428.375C428.375 131.969 428.385 131.969 428.396 131.969C428.396 131.969 428.396 131.969 428.401 131.969H428.411H428.422C428.427 131.969 428.427 131.969 428.438 131.969C428.438 131.969 428.438 131.969 428.443 131.969C428.443 131.969 428.453 131.969 428.464 131.969C428.464 131.969 428.464 131.969 428.469 131.969H428.479H428.49C428.495 131.969 428.495 131.969 428.505 131.969C428.505 131.969 428.505 131.969 428.51 131.969C428.51 131.969 428.521 131.969 428.531 131.969C428.536 131.969 428.547 131.969 428.547 131.969C428.557 131.969 428.557 131.969 428.557 131.969C430.443 132.026 432.125 132.875 433.286 134.203L424.01 143.464ZM424.089 138.151C423.849 138.365 423.698 138.667 423.698 139.016C423.698 139.651 424.208 140.161 424.844 140.161C425.422 140.161 425.896 139.729 425.974 139.177C427.052 139.12 427.911 138.224 427.911 137.13C427.911 136.938 427.885 136.75 427.833 136.568C428.104 136.401 428.281 136.104 428.281 135.755C428.281 135.229 427.849 134.797 427.323 134.797C427 134.797 426.714 134.958 426.531 135.193C426.323 135.125 426.099 135.083 425.865 135.083C424.734 135.083 423.818 136 423.818 137.13C423.818 137.505 423.917 137.854 424.089 138.151Z" fill="#595959"/>
<path d="M425.974 139.177C425.979 139.12 425.979 139.073 425.979 139.016C425.979 138.385 425.474 137.88 424.844 137.88C424.552 137.88 424.292 137.979 424.089 138.151C423.917 137.854 423.818 137.505 423.818 137.13C423.818 136 424.734 135.083 425.865 135.083C426.099 135.083 426.323 135.125 426.531 135.193C426.422 135.354 426.354 135.552 426.354 135.755C426.354 136.292 426.786 136.724 427.323 136.724C427.51 136.724 427.687 136.661 427.833 136.568C427.885 136.75 427.911 136.937 427.911 137.13C427.911 138.224 427.052 139.12 425.974 139.177Z" fill="#7C7C7C"/>
<path d="M427.833 136.568C427.656 135.932 427.161 135.417 426.531 135.193C426.714 134.958 427 134.797 427.323 134.797C427.849 134.797 428.281 135.229 428.281 135.755C428.281 136.104 428.104 136.401 427.833 136.568Z" fill="#A9A9A9"/>
<path d="M427.323 136.724C426.786 136.724 426.354 136.292 426.354 135.755C426.354 135.552 426.422 135.354 426.531 135.193C427.161 135.417 427.656 135.932 427.833 136.568C427.688 136.661 427.51 136.724 427.323 136.724Z" fill="#B7B7B7"/>
<path d="M424.844 140.161C424.208 140.161 423.698 139.651 423.698 139.016C423.698 138.667 423.849 138.365 424.089 138.151C424.443 138.76 425.104 139.177 425.865 139.177C425.896 139.177 425.938 139.177 425.974 139.177C425.896 139.729 425.422 140.161 424.844 140.161Z" fill="#A9A9A9"/>
<path d="M425.865 139.177C425.104 139.177 424.443 138.76 424.089 138.151C424.292 137.979 424.552 137.88 424.844 137.88C425.474 137.88 425.979 138.385 425.979 139.016C425.979 139.073 425.979 139.12 425.974 139.177C425.938 139.177 425.896 139.177 425.865 139.177Z" fill="#B7B7B7"/>
<path d="M434.844 137.536C434.792 137.208 434.714 136.891 434.62 136.578C434.724 136.891 434.792 137.208 434.844 137.531V137.536Z" fill="#DFDFDF"/>
<path d="M427.339 145.026C426.542 144.901 425.797 144.635 425.115 144.255L434.068 135.307C434.297 135.703 434.484 136.13 434.62 136.578C434.714 136.891 434.792 137.208 434.844 137.536L427.339 145.026Z" fill="#595959"/>
<path d="M464.286 178.255C464.286 179.073 463.573 179.745 462.688 179.745H394C393.125 179.745 392.411 179.073 392.411 178.255V168.583C392.411 167.76 393.125 167.099 394 167.099H462.688C463.573 167.099 464.286 167.76 464.286 168.583V178.255Z" fill="#E5E5E5"/>
<path d="M466.245 167.099H390.448C390.203 166.172 390.047 165.198 390.042 164.193H466.656C466.635 165.198 466.495 166.172 466.245 167.099Z" fill="#C8C8C8"/>
<path d="M407.276 167.099H400.234V99.8698H407.276V167.099Z" fill="#373737"/>
<path d="M405.859 166.953H403.974V99.7135H405.859V166.953Z" fill="#505050"/>
<path d="M456.453 167.099H449.411V99.8698H456.453V167.099Z" fill="#373737"/>
<path d="M455.042 166.953H453.146V99.7135H455.042V166.953Z" fill="#505050"/>
<path d="M428.344 87.2656H389.146C389.146 107.24 401.833 112.214 408.115 115.146C414.396 118.083 427.297 118.62 427.297 118.62H429.396C429.396 118.62 442.292 118.083 448.578 115.146C454.865 112.214 467.536 107.24 467.536 87.2656H428.344Z" fill="#DDDDDD"/>
<path d="M467.292 87.2656C465.49 101.042 454.344 104.802 448.578 107.104C442.292 109.609 429.396 110.057 429.396 110.057H427.297C427.297 110.057 414.396 109.609 408.115 107.104C402.349 104.802 391.198 101.042 389.401 87.2656H389.146C389.146 107.24 401.833 112.214 408.115 115.146C414.396 118.083 427.297 118.62 427.297 118.62H429.396C429.396 118.62 442.292 118.083 448.578 115.146C454.865 112.214 467.536 107.24 467.536 87.2656H467.292Z" fill="white"/>
<path d="M474.99 50.1719L472.932 48.75C472.932 48.75 471.953 45.9791 470.104 45.5469C470.104 45.5469 467.266 35.3489 463.13 30.1927C458.99 25.0364 451.703 19.2396 444.073 17.1979C436.453 15.1562 429.599 14.8646 429.599 14.8646H427.094C427.094 14.8646 420.229 15.1562 412.609 17.1979C404.99 19.2396 397.693 25.0364 393.557 30.1927C389.422 35.3489 386.594 45.5469 386.594 45.5469C384.74 45.9791 383.76 48.75 383.76 48.75L381.708 50.1719C380.74 50.8385 380.172 51.9427 380.172 53.1041V64.2969C380.172 65.3385 380.63 66.3437 381.438 67.0208L383.219 68.526C383.219 81.8385 386.594 86.7812 391.161 91.7239C395.74 96.6562 405.646 101.391 411.521 103.318C417.401 105.25 427.417 105.896 427.417 105.896H429.271C429.271 105.896 439.286 105.25 445.172 103.318C451.047 101.391 460.953 96.6562 465.526 91.7239C470.104 86.7812 473.474 81.8385 473.474 68.526L475.26 67.0208C476.057 66.3437 476.526 65.3385 476.526 64.2969V53.1041C476.526 51.9427 475.948 50.8385 474.99 50.1719Z" fill="white"/>
<path d="M471.24 56.2864C470.885 48.6302 471.974 49.0521 465.016 46.6406C458.057 44.2291 446.911 42.2448 439.031 41.5312C431.156 40.8229 428.953 40.8906 428.953 40.8906H427.74C427.74 40.8906 425.531 40.8229 417.656 41.5312C409.781 42.2448 398.635 44.2291 391.682 46.6406C384.724 49.0521 385.813 48.6302 385.453 56.2864C385.099 63.9583 386.729 75.1719 387.984 80.8385C389.219 86.375 396.448 91.5885 406.229 96.8802C415.813 102.057 427.01 102.448 427.01 102.448H429.688C429.688 102.448 440.88 102.057 450.464 96.8802C460.25 91.5885 467.479 86.375 468.703 80.8385C469.969 75.1719 471.599 63.9583 471.24 56.2864Z" fill="#373737"/>
<path d="M471.24 56.2864C470.891 48.8593 471.901 49.0364 465.62 46.8541C465.687 55.5052 463.984 66.9635 462.651 72.9739C461.234 79.3333 452.937 85.3281 441.677 91.4114C430.672 97.3645 417.792 97.8125 417.792 97.8125H414.724C414.724 97.8125 410.953 97.677 405.755 96.6145L406.229 96.8802C415.812 102.057 427.01 102.448 427.01 102.448H429.687C429.687 102.448 440.88 102.057 450.464 96.8802C460.25 91.5885 467.479 86.375 468.703 80.8385C469.969 75.1718 471.599 63.9583 471.24 56.2864Z" fill="#2C2C2C"/>
<path d="M401.594 36.0364C401.594 37.75 400.198 39.1458 398.484 39.1458C396.76 39.1458 395.365 37.75 395.365 36.0364C395.365 34.3177 396.76 32.9271 398.484 32.9271C400.198 32.9271 401.594 34.3177 401.594 36.0364Z" fill="#DDDDDD"/>
<path d="M412.516 28.9635C412.516 31.151 410.74 32.927 408.552 32.927C406.359 32.927 404.583 31.151 404.583 28.9635C404.583 26.7708 406.359 24.9948 408.552 24.9948C410.74 24.9948 412.516 26.7708 412.516 28.9635Z" fill="#DDDDDD"/>
<path d="M444.88 112.625C444.88 113.594 444.099 114.38 443.125 114.38C442.156 114.38 441.375 113.594 441.375 112.625C441.375 111.656 442.156 110.865 443.125 110.865C444.099 110.865 444.88 111.656 444.88 112.625Z" fill="#DDDDDD"/>
<path d="M449.115 111.135C449.115 111.755 448.604 112.266 447.984 112.266C447.354 112.266 446.844 111.755 446.844 111.135C446.844 110.51 447.354 110 447.984 110C448.604 110 449.115 110.51 449.115 111.135Z" fill="#DDDDDD"/>
<path d="M395.24 90.0156C391.5 87.1562 388.938 84.2604 388.094 81.2812C388.094 81.2708 388.094 81.2552 388.089 81.2448C388.089 81.2292 388.089 81.2188 388.078 81.2135C388.078 81.2135 388.078 81.2135 388.078 81.2031C388.078 81.1927 388.068 81.1875 388.068 81.1771C388.068 81.1719 388.068 81.1719 388.068 81.1719C388.068 81.1615 388.063 81.1458 388.063 81.1354C388.063 81.125 388.052 81.1094 388.052 81.099V81.0938C388.042 81.0833 388.042 81.0781 388.042 81.0677C388.042 81.0573 388.042 81.0573 388.036 81.0521C388.036 81.0417 388.036 81.0312 388.036 81.0312C388.026 81.026 388.026 81.026 388.026 81.0156C388.026 81.0104 388.026 81 388.026 80.9896C388.021 80.9896 388.021 80.9844 388.021 80.9844C388.021 80.974 388.021 80.9635 388.021 80.9583C388.01 80.9583 388.01 80.9479 388.01 80.9479C388.01 80.9427 388.01 80.9323 388.01 80.9219L388 80.9167C388 80.9062 388 80.8958 388 80.8906C388 80.8802 387.995 80.8802 387.995 80.8698C387.995 80.8646 387.995 80.8542 387.984 80.8385C387.943 80.6198 387.891 80.3906 387.839 80.151C387.839 80.151 387.839 80.1406 387.833 80.1354C387.349 77.8177 386.823 74.7396 386.38 71.4219L391.5 66.3073C392.698 68.7448 394.781 70.6719 397.339 71.6667C396.953 72.2865 396.734 73.0104 396.734 73.7917C396.734 76.0208 398.542 77.8333 400.776 77.8333C403.01 77.8333 404.823 76.0208 404.823 73.7917C404.823 73.1354 404.661 72.5052 404.38 71.9583C408.891 70.625 412.188 66.4531 412.188 61.5C412.188 60.1354 411.932 58.8281 411.474 57.6146C413.901 57.0677 415.719 54.8958 415.719 52.2969C415.719 49.5104 413.62 47.2083 410.922 46.8854L416.125 41.6823C416.307 41.6667 416.474 41.6458 416.656 41.6302C416.995 41.5885 417.323 41.5625 417.656 41.5312C424.224 40.9427 426.839 40.8906 427.536 40.8906C427.672 40.8906 427.74 40.8906 427.74 40.8906H428.953C428.953 40.8906 429.016 40.8906 429.156 40.8906C429.849 40.8906 432.469 40.9427 439.031 41.5312C440.365 41.6458 441.792 41.8073 443.276 41.9948L395.24 90.0156Z" fill="#5D5D5D"/>
<path d="M409.687 97.3021C408.516 97.1354 407.193 96.9114 405.755 96.6146L406.229 96.8802C405.875 96.6823 405.516 96.4896 405.172 96.2916C403.682 95.4791 402.271 94.6614 400.932 93.8541L451.516 43.2864C455 43.9323 458.432 44.6979 461.464 45.5469L409.687 97.3021Z" fill="#5D5D5D"/>
<path d="M408.839 98.151C407.953 97.7604 407.089 97.3385 406.229 96.8802L405.755 96.6146C407.193 96.9114 408.516 97.1354 409.687 97.3021L408.839 98.151Z" fill="#575757"/>
<path d="M391.5 66.3073C390.786 64.8542 390.391 63.224 390.391 61.5C390.391 55.4896 395.266 50.6094 401.286 50.6094C402.562 50.6094 403.786 50.8281 404.922 51.2292C404.854 51.5729 404.823 51.9323 404.823 52.2969C404.823 52.5156 404.828 52.7396 404.854 52.9531L391.5 66.3073Z" fill="#5F5F5F"/>
<path d="M404.38 71.9583C403.708 70.6458 402.349 69.75 400.776 69.75C399.323 69.75 398.052 70.5208 397.339 71.6667C394.781 70.6719 392.698 68.7448 391.5 66.3073L404.854 52.9531C405.177 55.651 407.479 57.75 410.266 57.75C410.682 57.75 411.083 57.6979 411.474 57.6146C411.932 58.8281 412.188 60.1354 412.188 61.5C412.188 66.4531 408.891 70.625 404.38 71.9583Z" fill="#7D7D7D"/>
<path d="M406.089 51.7187C405.714 51.5312 405.323 51.3698 404.922 51.2291C405.417 48.7291 407.625 46.8541 410.266 46.8541C410.49 46.8541 410.708 46.8645 410.922 46.8854L406.089 51.7187Z" fill="#5F5F5F"/>
<path d="M411.474 57.6145C410.49 55.0416 408.552 52.927 406.089 51.7187L410.922 46.8854C413.62 47.2083 415.719 49.5104 415.719 52.2968C415.719 54.8958 413.901 57.0677 411.474 57.6145Z" fill="#7D7D7D"/>
<path d="M404.854 52.9531C404.828 52.7395 404.823 52.5156 404.823 52.2968C404.823 51.9323 404.854 51.5729 404.922 51.2291C405.323 51.3698 405.714 51.5312 406.089 51.7187L404.854 52.9531Z" fill="#7F7F7F"/>
<path d="M410.266 57.75C407.479 57.75 405.177 55.651 404.854 52.9531L406.089 51.7188C408.552 52.9271 410.49 55.0417 411.474 57.6146C411.083 57.6979 410.682 57.75 410.266 57.75Z" fill="#979797"/>
<path d="M400.776 77.8333C398.542 77.8333 396.734 76.0208 396.734 73.7916C396.734 73.0104 396.953 72.2864 397.339 71.6666C398.563 72.1406 399.896 72.4062 401.286 72.4062C402.359 72.4062 403.396 72.2448 404.38 71.9583C404.661 72.5052 404.823 73.1354 404.823 73.7916C404.823 76.0208 403.01 77.8333 400.776 77.8333Z" fill="#7D7D7D"/>
<path d="M401.286 72.4062C399.896 72.4062 398.562 72.1406 397.339 71.6667C398.052 70.5208 399.323 69.75 400.776 69.75C402.349 69.75 403.708 70.6458 404.38 71.9583C403.396 72.2448 402.359 72.4062 401.286 72.4062Z" fill="#979797"/>
<path d="M390.005 105.167C389.703 105.141 389.396 105.115 389.078 105.115C380.646 105.115 373.807 111.953 373.807 120.396V164.927H390.005V105.167Z" fill="white"/>
<path d="M389.078 105.115C389.396 105.115 389.703 105.141 390.005 105.167V105.318C382.734 106.49 377.187 112.792 377.187 120.396V164.927H373.807V120.396C373.807 111.953 380.646 105.115 389.078 105.115Z" fill="#E5E5E5"/>
<path d="M393.385 167.25C393.385 173.589 388.25 178.724 381.911 178.724C375.568 178.724 370.427 173.589 370.427 167.25C370.427 160.906 375.568 155.771 381.911 155.771C388.25 155.771 393.385 160.906 393.385 167.25Z" fill="#D1D3D4"/>
<path d="M379.089 163.776C379.089 165.094 378.021 166.167 376.703 166.167C375.385 166.167 374.318 165.094 374.318 163.776C374.318 162.464 375.385 161.391 376.703 161.391C378.021 161.391 379.089 162.464 379.089 163.776Z" fill="white"/>
<path d="M497.719 235.714C495.682 235.406 494.271 233.505 494.578 231.458L528.349 6.40102C528.656 4.35415 530.557 2.95311 532.604 3.25519C534.646 3.56248 536.047 5.46352 535.74 7.50519L501.969 232.573C501.661 234.609 499.755 236.021 497.719 235.714Z" fill="#D5E2DD"/>
<path d="M624.281 92.2916C585.062 103.521 557.062 65.1093 517.859 76.3385C521.547 51.7343 525.24 27.1354 528.927 2.54163C568.141 -8.68233 596.141 29.7239 635.359 18.5C631.661 43.0989 627.974 67.7031 624.281 92.2916Z" fill="#8B5CF6"/>
<path d="M540.865 10.5781C540.865 12.4375 539.359 13.9375 537.5 13.9375C535.641 13.9375 534.135 12.4375 534.135 10.5781C534.135 8.71871 535.641 7.2135 537.5 7.2135C539.359 7.2135 540.865 8.71871 540.865 10.5781Z" fill="#4C1D95"/>
<path d="M549.391 10.5937C549.391 11.776 548.432 12.7239 547.25 12.7239C546.078 12.7239 545.12 11.776 545.12 10.5937C545.12 9.41142 546.078 8.4635 547.25 8.4635C548.432 8.4635 549.391 9.41142 549.391 10.5937Z" fill="#4C1D95"/>
<path d="M499.052 114.349C499.052 122.437 505.62 129.01 513.724 129.01C521.828 129.01 528.396 122.437 528.396 114.349C528.396 106.245 521.828 99.6823 513.724 99.6823C505.62 99.6823 499.052 106.245 499.052 114.349Z" fill="#D1D3D4"/>
<path d="M523.083 107.391C523.083 108.833 521.922 110.005 520.474 110.005C519.026 110.005 517.859 108.833 517.859 107.391C517.859 105.948 519.026 104.776 520.474 104.776C521.922 104.776 523.083 105.948 523.083 107.391Z" fill="white"/>
</svg>
