<svg width="1322" height="1322" viewBox="0 0 1322 1322" fill="none" xmlns="http://www.w3.org/2000/svg">
<path d="M1220.19 377.85C1220.19 393.852 1207.22 406.82 1191.23 406.82C1175.24 406.82 1162.28 393.852 1162.28 377.85C1162.28 361.848 1175.24 348.88 1191.23 348.88C1207.22 348.88 1220.19 361.848 1220.19 377.85Z" fill="white"/>
<path d="M1211.69 365.89C1211.69 370.085 1208.29 373.483 1204.11 373.483C1199.92 373.483 1196.52 370.085 1196.52 365.89C1196.52 361.701 1199.92 358.303 1204.11 358.303C1208.29 358.303 1211.69 361.701 1211.69 365.89Z" fill="#CCCCCC"/>
<path d="M1191.23 388.631C1191.23 393.584 1187.22 397.601 1182.26 397.601C1177.31 397.601 1173.3 393.584 1173.3 388.631C1173.3 383.677 1177.31 379.661 1182.26 379.661C1187.22 379.661 1191.23 383.677 1191.23 388.631Z" fill="#CCCCCC"/>
<path d="M1209.85 389.702C1209.85 393.055 1207.14 395.765 1203.8 395.765C1200.46 395.765 1197.74 393.055 1197.74 389.702C1197.74 386.361 1200.46 383.645 1203.8 383.645C1207.14 383.645 1209.85 386.361 1209.85 389.702Z" fill="#CCCCCC"/>
<path d="M1198.34 377.958C1198.34 379.501 1197.09 380.751 1195.54 380.751C1194 380.751 1192.75 379.501 1192.75 377.958C1192.75 376.409 1194 375.16 1195.54 375.16C1197.09 375.16 1198.34 376.409 1198.34 377.958Z" fill="#CCCCCC"/>
<path d="M1186.92 365.89C1186.92 369.237 1184.22 371.953 1180.87 371.953C1177.53 371.953 1174.82 369.237 1174.82 365.89C1174.82 362.549 1177.53 359.833 1180.87 359.833C1184.22 359.833 1186.92 362.549 1186.92 365.89Z" fill="#CCCCCC"/>
<path d="M1003.02 1055.81C978.603 1055.81 958.807 1036.01 958.807 1011.58C958.807 987.133 978.603 967.331 1003.02 967.331C1027.44 967.331 1047.23 987.133 1047.23 1011.58C1047.23 1036.01 1027.44 1055.81 1003.02 1055.81ZM1003.02 977.825C984.392 977.825 969.288 992.928 969.288 1011.58C969.288 1030.21 984.392 1045.32 1003.02 1045.32C1021.66 1045.32 1036.75 1030.21 1036.75 1011.58C1036.75 992.928 1021.66 977.825 1003.02 977.825Z" fill="white"/>
<path d="M1003.02 1045.32C984.391 1045.32 969.288 1030.21 969.288 1011.58C969.288 992.928 984.391 977.825 1003.02 977.825C1021.66 977.825 1036.75 992.928 1036.75 1011.58C1036.75 1030.21 1021.66 1045.32 1003.02 1045.32Z" fill="white"/>
<path d="M1025.91 1011.58C1025.91 1024.23 1015.67 1034.48 1003.02 1034.48C990.371 1034.48 980.12 1024.23 980.12 1011.58C980.12 998.915 990.371 988.663 1003.02 988.663C1015.67 988.663 1025.91 998.915 1025.91 1011.58Z" fill="#ED995A"/>
<path d="M1019.2 1002.11C1019.2 1005.42 1016.52 1008.11 1013.2 1008.11C1009.89 1008.11 1007.2 1005.42 1007.2 1002.11C1007.2 998.8 1009.89 996.109 1013.2 996.109C1016.52 996.109 1019.2 998.8 1019.2 1002.11Z" fill="#CD854E"/>
<path d="M1003.02 1020.1C1003.02 1024.01 999.852 1027.2 995.931 1027.2C992.01 1027.2 988.842 1024.01 988.842 1020.1C988.842 1016.17 992.01 1013 995.931 1013C999.852 1013 1003.02 1016.17 1003.02 1020.1Z" fill="#CD854E"/>
<path d="M1017.75 1020.94C1017.75 1023.59 1015.61 1025.74 1012.96 1025.74C1010.32 1025.74 1008.17 1023.59 1008.17 1020.94C1008.17 1018.3 1010.32 1016.16 1012.96 1016.16C1015.61 1016.16 1017.75 1018.3 1017.75 1020.94Z" fill="#CD854E"/>
<path d="M1008.64 1011.65C1008.64 1012.87 1007.65 1013.86 1006.43 1013.86C1005.21 1013.86 1004.22 1012.87 1004.22 1011.65C1004.22 1010.43 1005.21 1009.45 1006.43 1009.45C1007.65 1009.45 1008.64 1010.43 1008.64 1011.65Z" fill="#CD854E"/>
<path d="M999.616 1002.11C999.616 1004.76 997.474 1006.9 994.828 1006.9C992.182 1006.9 990.04 1004.76 990.04 1002.11C990.04 999.469 992.182 997.321 994.828 997.321C997.474 997.321 999.616 999.469 999.616 1002.11Z" fill="#CD854E"/>
<path d="M651.488 312.164C651.488 325.833 640.42 336.914 626.758 336.914C613.095 336.914 602.021 325.833 602.021 312.164C602.021 298.496 613.095 287.415 626.758 287.415C640.42 287.415 651.488 298.496 651.488 312.164Z" fill="#D6414C"/>
<path d="M644.233 301.945C644.233 305.528 641.332 308.435 637.749 308.435C634.179 308.435 631.265 305.528 631.265 301.945C631.265 298.362 634.179 295.454 637.749 295.454C641.332 295.454 644.233 298.362 644.233 301.945Z" fill="#B93842"/>
<path d="M626.758 321.37C626.758 325.61 623.321 329.04 619.095 329.04C614.861 329.04 611.431 325.61 611.431 321.37C611.431 317.144 614.861 313.707 619.095 313.707C623.321 313.707 626.758 317.144 626.758 321.37Z" fill="#B93842"/>
<path d="M642.664 322.289C642.664 325.145 640.35 327.472 637.488 327.472C634.638 327.472 632.317 325.145 632.317 322.289C632.317 319.432 634.638 317.112 637.488 317.112C640.35 317.112 642.664 319.432 642.664 322.289Z" fill="#B93842"/>
<path d="M632.827 312.254C632.827 313.573 631.756 314.644 630.436 314.644C629.123 314.644 628.052 313.573 628.052 312.254C628.052 310.928 629.123 309.863 630.436 309.863C631.756 309.863 632.827 310.928 632.827 312.254Z" fill="#B93842"/>
<path d="M623.073 301.945C623.073 304.807 620.752 307.121 617.902 307.121C615.046 307.121 612.732 304.807 612.732 301.945C612.732 299.088 615.046 296.768 617.902 296.768C620.752 296.768 623.073 299.088 623.073 301.945Z" fill="#B93842"/>
<mask id="mask0_202_161" style="mask-type:luminance" maskUnits="userSpaceOnUse" x="93" y="801" width="70" height="73">
<path d="M93.0296 801.361H162.999V873.173H93.0296V801.361Z" fill="white"/>
</mask>
<g mask="url(#mask0_202_161)">
<mask id="mask1_202_161" style="mask-type:luminance" maskUnits="userSpaceOnUse" x="93" y="802" width="70" height="71">
<path d="M162.795 837.362C162.795 856.642 147.176 872.261 127.916 872.261C108.649 872.261 93.036 856.642 93.036 837.362C93.036 818.083 108.649 802.464 127.916 802.464C147.176 802.464 162.795 818.083 162.795 837.362Z" fill="white"/>
</mask>
<g mask="url(#mask1_202_161)">
<path d="M162.795 837.362C162.795 856.642 147.176 872.261 127.916 872.261C108.649 872.261 93.036 856.642 93.036 837.362C93.036 818.083 108.649 802.464 127.916 802.464C147.176 802.464 162.795 818.083 162.795 837.362Z" fill="#159EBD"/>
</g>
</g>
<mask id="mask2_202_161" style="mask-type:luminance" maskUnits="userSpaceOnUse" x="130" y="816" width="33" height="18">
<path d="M130.313 816.049H162.999V833.792H130.313V816.049Z" fill="white"/>
</mask>
<g mask="url(#mask2_202_161)">
<mask id="mask3_202_161" style="mask-type:luminance" maskUnits="userSpaceOnUse" x="93" y="802" width="70" height="71">
<path d="M162.795 837.362C162.795 856.641 147.176 872.261 127.916 872.261C108.649 872.261 93.036 856.641 93.036 837.362C93.036 818.083 108.649 802.463 127.916 802.463C147.176 802.463 162.795 818.083 162.795 837.362Z" fill="white"/>
</mask>
<g mask="url(#mask3_202_161)">
<path d="M163.599 816.948H142.509C140.641 816.948 139.13 818.459 139.13 820.334C139.13 822.202 140.641 823.719 142.509 823.719H146.264C146.838 823.719 147.297 824.184 147.297 824.752C147.297 825.326 146.838 825.785 146.264 825.785H134.068C132.104 825.785 130.504 827.385 130.504 829.348C130.504 831.318 132.104 832.912 134.068 832.912H156.229C158.192 832.912 159.786 831.318 159.786 829.348C159.786 827.385 158.192 825.785 156.229 825.785H152.2C151.632 825.785 151.16 825.326 151.16 824.752C151.16 824.184 151.632 823.719 152.2 823.719H163.599C165.46 823.719 166.984 822.202 166.984 820.334C166.984 818.459 165.46 816.948 163.599 816.948Z" fill="white"/>
</g>
</g>
<mask id="mask4_202_161" style="mask-type:luminance" maskUnits="userSpaceOnUse" x="93" y="824" width="27" height="12">
<path d="M93.0296 824.707H119.417V835.609H93.0296V824.707Z" fill="white"/>
</mask>
<g mask="url(#mask4_202_161)">
<mask id="mask5_202_161" style="mask-type:luminance" maskUnits="userSpaceOnUse" x="93" y="802" width="70" height="71">
<path d="M162.795 837.362C162.795 856.641 147.176 872.261 127.916 872.261C108.649 872.261 93.036 856.641 93.036 837.362C93.036 818.083 108.649 802.463 127.916 802.463C147.176 802.463 162.795 818.083 162.795 837.362Z" fill="white"/>
</mask>
<g mask="url(#mask5_202_161)">
<path d="M117.396 830.266H105.736C105.411 830.266 105.143 830.005 105.143 829.674C105.143 829.348 105.411 829.081 105.736 829.081H113.24C114.343 829.081 115.305 828.252 115.375 827.143C115.452 825.938 114.502 824.93 113.31 824.93H84.7352C83.6259 824.93 82.6632 825.765 82.5931 826.868C82.5102 828.08 83.4729 829.081 84.6587 829.081H102.797C103.128 829.081 103.396 829.348 103.396 829.674C103.396 830.005 103.128 830.266 102.797 830.266H101.216C100.189 830.266 99.2903 831.063 99.2584 832.09C99.2329 833.155 100.081 834.028 101.139 834.028H117.473C118.531 834.028 119.385 833.155 119.354 832.09C119.322 831.063 118.429 830.266 117.396 830.266Z" fill="white"/>
</g>
</g>
<mask id="mask6_202_161" style="mask-type:luminance" maskUnits="userSpaceOnUse" x="93" y="839" width="41" height="17">
<path d="M93.0296 839.243H133.832V855.22H93.0296V839.243Z" fill="white"/>
</mask>
<g mask="url(#mask6_202_161)">
<mask id="mask7_202_161" style="mask-type:luminance" maskUnits="userSpaceOnUse" x="93" y="802" width="70" height="71">
<path d="M162.795 837.362C162.795 856.641 147.176 872.261 127.916 872.261C108.649 872.261 93.036 856.641 93.036 837.362C93.036 818.083 108.649 802.463 127.916 802.463C147.176 802.463 162.795 818.083 162.795 837.362Z" fill="white"/>
</mask>
<g mask="url(#mask7_202_161)">
<path d="M130.013 839.868H86.4693C84.952 839.868 83.645 841.06 83.6195 842.577C83.5877 844.127 84.8372 845.389 86.3801 845.389H102.88C103.504 845.389 104.008 845.893 104.008 846.511C104.008 847.136 103.504 847.633 102.88 847.633H83.7853C81.9492 847.633 80.3745 849.048 80.2852 850.878C80.196 852.829 81.7516 854.442 83.6833 854.442H113.616C115.445 854.442 117.02 853.033 117.109 851.203C117.199 849.252 115.643 847.633 113.711 847.633H110.135C109.51 847.633 109.006 847.136 109.006 846.511C109.006 845.893 109.51 845.389 110.135 845.389H129.918C131.435 845.389 132.742 844.203 132.767 842.679C132.799 841.13 131.55 839.868 130.013 839.868Z" fill="white"/>
</g>
</g>
<mask id="mask8_202_161" style="mask-type:luminance" maskUnits="userSpaceOnUse" x="124" y="853" width="39" height="14">
<path d="M124.039 853.588H162.999V866.498H124.039V853.588Z" fill="white"/>
</mask>
<g mask="url(#mask8_202_161)">
<mask id="mask9_202_161" style="mask-type:luminance" maskUnits="userSpaceOnUse" x="93" y="802" width="70" height="71">
<path d="M162.795 837.362C162.795 856.641 147.176 872.261 127.916 872.261C108.649 872.261 93.036 856.641 93.036 837.362C93.036 818.083 108.649 802.463 127.916 802.463C147.176 802.463 162.795 818.083 162.795 837.362Z" fill="white"/>
</mask>
<g mask="url(#mask9_202_161)">
<path d="M164.249 853.76H133.335C131.83 853.76 130.542 854.939 130.517 856.444C130.485 857.974 131.722 859.223 133.246 859.223H136.064C136.535 859.223 136.918 859.606 136.918 860.084C136.918 860.562 136.535 860.945 136.064 860.945H126.558C125.174 860.945 124.046 862.067 124.046 863.457C124.046 864.84 125.174 865.962 126.558 865.962H141.629C143.019 865.962 144.141 864.84 144.141 863.457C144.141 862.067 143.019 860.945 141.629 860.945H139.627C139.156 860.945 138.773 860.562 138.773 860.084C138.773 859.606 139.156 859.223 139.627 859.223H164.16C165.664 859.223 166.952 858.057 166.984 856.546C167.01 855.016 165.773 853.76 164.249 853.76Z" fill="white"/>
</g>
</g>
<mask id="mask10_202_161" style="mask-type:luminance" maskUnits="userSpaceOnUse" x="93" y="806" width="32" height="14">
<path d="M93.0296 806.537H124.868V819.256H93.0296V806.537Z" fill="white"/>
</mask>
<g mask="url(#mask10_202_161)">
<mask id="mask11_202_161" style="mask-type:luminance" maskUnits="userSpaceOnUse" x="93" y="802" width="70" height="71">
<path d="M162.795 837.362C162.795 856.642 147.176 872.261 127.916 872.261C108.649 872.261 93.036 856.642 93.036 837.362C93.036 818.083 108.649 802.464 127.916 802.464C147.176 802.464 162.795 818.083 162.795 837.362Z" fill="white"/>
</mask>
<g mask="url(#mask11_202_161)">
<path d="M84.6524 819.084H115.567C117.071 819.084 118.365 817.911 118.391 816.407C118.416 814.87 117.186 813.62 115.662 813.62H112.838C112.366 813.62 111.984 813.238 111.984 812.773C111.984 812.294 112.366 811.912 112.838 811.912H122.344C123.734 811.912 124.856 810.79 124.856 809.4C124.856 808.017 123.734 806.888 122.344 806.888H107.266C105.882 806.888 104.76 808.017 104.76 809.4C104.76 810.79 105.882 811.912 107.266 811.912H109.274C109.746 811.912 110.128 812.294 110.128 812.773C110.128 813.238 109.746 813.62 109.274 813.62H84.748C83.2434 813.62 81.9492 814.8 81.9237 816.305C81.8982 817.835 83.1287 819.084 84.6524 819.084Z" fill="white"/>
</g>
</g>
<mask id="mask12_202_161" style="mask-type:luminance" maskUnits="userSpaceOnUse" x="137" y="843" width="15" height="6">
<path d="M137.096 843.795H151.785V848.691H137.096V843.795Z" fill="white"/>
</mask>
<g mask="url(#mask12_202_161)">
<mask id="mask13_202_161" style="mask-type:luminance" maskUnits="userSpaceOnUse" x="93" y="802" width="70" height="71">
<path d="M162.795 837.362C162.795 856.641 147.176 872.261 127.916 872.261C108.649 872.261 93.036 856.641 93.036 837.362C93.036 818.083 108.649 802.463 127.916 802.463C147.176 802.463 162.795 818.083 162.795 837.362Z" fill="white"/>
</mask>
<g mask="url(#mask13_202_161)">
<path d="M148.451 848.506H139.557C138.282 848.506 137.243 847.474 137.243 846.192C137.243 844.923 138.282 843.884 139.557 843.884H148.451C149.72 843.884 150.759 844.923 150.759 846.192C150.759 847.474 149.72 848.506 148.451 848.506Z" fill="white"/>
</g>
</g>
<mask id="mask14_202_161" style="mask-type:luminance" maskUnits="userSpaceOnUse" x="124" y="816" width="12" height="5">
<path d="M124.868 816.049H135.464V820.946H124.868V816.049Z" fill="white"/>
</mask>
<g mask="url(#mask14_202_161)">
<mask id="mask15_202_161" style="mask-type:luminance" maskUnits="userSpaceOnUse" x="93" y="802" width="70" height="71">
<path d="M162.795 837.362C162.795 856.641 147.176 872.261 127.916 872.261C108.649 872.261 93.036 856.641 93.036 837.362C93.036 818.083 108.649 802.463 127.916 802.463C147.176 802.463 162.795 818.083 162.795 837.362Z" fill="white"/>
</mask>
<g mask="url(#mask15_202_161)">
<path d="M133.061 819.875H126.883C125.997 819.875 125.276 819.161 125.276 818.262C125.276 817.382 125.997 816.668 126.883 816.668H133.061C133.947 816.668 134.661 817.382 134.661 818.262C134.661 819.161 133.947 819.875 133.061 819.875Z" fill="white"/>
</g>
</g>
<mask id="mask16_202_161" style="mask-type:luminance" maskUnits="userSpaceOnUse" x="145" y="835" width="11" height="6">
<path d="M145.257 835.635H155.049V840.531H145.257V835.635Z" fill="white"/>
</mask>
<g mask="url(#mask16_202_161)">
<mask id="mask17_202_161" style="mask-type:luminance" maskUnits="userSpaceOnUse" x="93" y="802" width="70" height="71">
<path d="M162.795 837.362C162.795 856.641 147.176 872.261 127.916 872.261C108.649 872.261 93.036 856.641 93.036 837.362C93.036 818.083 108.649 802.463 127.916 802.463C147.176 802.463 162.795 818.083 162.795 837.362Z" fill="white"/>
</mask>
<g mask="url(#mask17_202_161)">
<path d="M153.347 839.868H146.985C146.169 839.868 145.512 839.217 145.512 838.401C145.512 837.592 146.169 836.929 146.985 836.929H153.347C154.157 836.929 154.814 837.592 154.814 838.401C154.814 839.217 154.157 839.868 153.347 839.868Z" fill="white"/>
</g>
</g>
<mask id="mask18_202_161" style="mask-type:luminance" maskUnits="userSpaceOnUse" x="97" y="848" width="13" height="6">
<path d="M97.9259 848.691H109.351V853.588H97.9259V848.691Z" fill="white"/>
</mask>
<g mask="url(#mask18_202_161)">
<mask id="mask19_202_161" style="mask-type:luminance" maskUnits="userSpaceOnUse" x="93" y="802" width="70" height="71">
<path d="M162.795 837.362C162.795 856.642 147.176 872.261 127.916 872.261C108.649 872.261 93.036 856.642 93.036 837.362C93.036 818.083 108.649 802.464 127.916 802.464C147.176 802.464 162.795 818.083 162.795 837.362Z" fill="white"/>
</mask>
<g mask="url(#mask19_202_161)">
<path d="M107.381 852.702H100.897C100.068 852.702 99.405 852.026 99.405 851.197C99.405 850.374 100.068 849.705 100.897 849.705H107.381C108.203 849.705 108.879 850.374 108.879 851.197C108.879 852.026 108.203 852.702 107.381 852.702Z" fill="#E5E5E5"/>
</g>
</g>
<mask id="mask20_202_161" style="mask-type:luminance" maskUnits="userSpaceOnUse" x="133" y="828" width="12" height="4">
<path d="M133.947 828.341H144.842V831.975H133.947V828.341Z" fill="white"/>
</mask>
<g mask="url(#mask20_202_161)">
<mask id="mask21_202_161" style="mask-type:luminance" maskUnits="userSpaceOnUse" x="93" y="802" width="70" height="71">
<path d="M162.795 837.362C162.795 856.641 147.176 872.261 127.916 872.261C108.649 872.261 93.036 856.641 93.036 837.362C93.036 818.083 108.649 802.463 127.916 802.463C147.176 802.463 162.795 818.083 162.795 837.362Z" fill="white"/>
</mask>
<g mask="url(#mask21_202_161)">
<path d="M143.083 831.593H136.134C135.247 831.593 134.527 830.879 134.527 829.986C134.527 829.1 135.247 828.386 136.134 828.386H143.083C143.969 828.386 144.689 829.1 144.689 829.986C144.689 830.879 143.969 831.593 143.083 831.593Z" fill="#E5E5E5"/>
</g>
</g>
<mask id="mask22_202_161" style="mask-type:luminance" maskUnits="userSpaceOnUse" x="106" y="831" width="7" height="3">
<path d="M106.711 831.975H112.156V833.792H106.711V831.975Z" fill="white"/>
</mask>
<g mask="url(#mask22_202_161)">
<mask id="mask23_202_161" style="mask-type:luminance" maskUnits="userSpaceOnUse" x="93" y="802" width="70" height="71">
<path d="M162.795 837.362C162.795 856.641 147.176 872.261 127.916 872.261C108.649 872.261 93.036 856.641 93.036 837.362C93.036 818.083 108.649 802.463 127.916 802.463C147.176 802.463 162.795 818.083 162.795 837.362Z" fill="white"/>
</mask>
<g mask="url(#mask23_202_161)">
<path d="M111.015 833.378H108.267C107.916 833.378 107.629 833.091 107.629 832.74C107.629 832.389 107.916 832.103 108.267 832.103H111.015C111.359 832.103 111.646 832.389 111.646 832.74C111.646 833.091 111.359 833.378 111.015 833.378Z" fill="#E5E5E5"/>
</g>
</g>
<mask id="mask24_202_161" style="mask-type:luminance" maskUnits="userSpaceOnUse" x="115" y="808" width="8" height="4">
<path d="M115.879 808.354H122.407V811.153H115.879V808.354Z" fill="white"/>
</mask>
<g mask="url(#mask24_202_161)">
<mask id="mask25_202_161" style="mask-type:luminance" maskUnits="userSpaceOnUse" x="93" y="802" width="70" height="71">
<path d="M162.795 837.362C162.795 856.641 147.176 872.261 127.916 872.261C108.649 872.261 93.036 856.641 93.036 837.362C93.036 818.083 108.649 802.463 127.916 802.463C147.176 802.463 162.795 818.083 162.795 837.362Z" fill="white"/>
</mask>
<g mask="url(#mask25_202_161)">
<path d="M121.311 810.394H117.913C117.473 810.394 117.129 810.044 117.129 809.61C117.129 809.17 117.473 808.826 117.913 808.826H121.311C121.744 808.826 122.101 809.17 122.101 809.61C122.101 810.044 121.744 810.394 121.311 810.394Z" fill="#E5E5E5"/>
</g>
</g>
<mask id="mask26_202_161" style="mask-type:luminance" maskUnits="userSpaceOnUse" x="114" y="863" width="8" height="4">
<path d="M114.247 863.38H121.234V866.498H114.247V863.38Z" fill="white"/>
</mask>
<g mask="url(#mask26_202_161)">
<mask id="mask27_202_161" style="mask-type:luminance" maskUnits="userSpaceOnUse" x="93" y="802" width="70" height="71">
<path d="M162.795 837.362C162.795 856.641 147.176 872.261 127.916 872.261C108.649 872.261 93.036 856.641 93.036 837.362C93.036 818.083 108.649 802.463 127.916 802.463C147.176 802.463 162.795 818.083 162.795 837.362Z" fill="white"/>
</mask>
<g mask="url(#mask27_202_161)">
<path d="M119.972 865.548H115.994C115.484 865.548 115.069 865.14 115.069 864.623C115.069 864.12 115.484 863.712 115.994 863.712H119.972C120.482 863.712 120.896 864.12 120.896 864.623C120.896 865.14 120.482 865.548 119.972 865.548Z" fill="white"/>
</g>
</g>
<mask id="mask28_202_161" style="mask-type:luminance" maskUnits="userSpaceOnUse" x="133" y="808" width="8" height="4">
<path d="M133.947 808.354H140.36V811.988H133.947V808.354Z" fill="white"/>
</mask>
<g mask="url(#mask28_202_161)">
<mask id="mask29_202_161" style="mask-type:luminance" maskUnits="userSpaceOnUse" x="93" y="802" width="70" height="71">
<path d="M162.795 837.362C162.795 856.641 147.176 872.261 127.916 872.261C108.649 872.261 93.036 856.641 93.036 837.362C93.036 818.083 108.649 802.463 127.916 802.463C147.176 802.463 162.795 818.083 162.795 837.362Z" fill="white"/>
</mask>
<g mask="url(#mask29_202_161)">
<path d="M139.238 811.312H135.26C134.75 811.312 134.336 810.904 134.336 810.394C134.336 809.891 134.75 809.476 135.26 809.476H139.238C139.742 809.476 140.156 809.891 140.156 810.394C140.156 810.904 139.742 811.312 139.238 811.312Z" fill="white"/>
</g>
</g>
<mask id="mask30_202_161" style="mask-type:luminance" maskUnits="userSpaceOnUse" x="106" y="856" width="14" height="6">
<path d="M106.086 856.852H119.143V861.047H106.086V856.852Z" fill="white"/>
</mask>
<g mask="url(#mask30_202_161)">
<mask id="mask31_202_161" style="mask-type:luminance" maskUnits="userSpaceOnUse" x="93" y="802" width="70" height="71">
<path d="M162.795 837.362C162.795 856.641 147.176 872.261 127.916 872.261C108.649 872.261 93.036 856.641 93.036 837.362C93.036 818.083 108.649 802.463 127.916 802.463C147.176 802.463 162.795 818.083 162.795 837.362Z" fill="white"/>
</mask>
<g mask="url(#mask31_202_161)">
<path d="M116.179 860.887H108.331C107.342 860.887 106.526 860.078 106.526 859.077C106.526 858.076 107.342 857.266 108.331 857.266H116.179C117.173 857.266 117.989 858.076 117.989 859.077C117.989 860.078 117.173 860.887 116.179 860.887Z" fill="white"/>
</g>
</g>
<mask id="mask32_202_161" style="mask-type:luminance" maskUnits="userSpaceOnUse" x="132" y="855" width="7" height="3">
<path d="M132.2 855.22H138.728V857.413H132.2V855.22Z" fill="white"/>
</mask>
<g mask="url(#mask32_202_161)">
<mask id="mask33_202_161" style="mask-type:luminance" maskUnits="userSpaceOnUse" x="93" y="802" width="70" height="71">
<path d="M162.795 837.362C162.795 856.641 147.176 872.261 127.916 872.261C108.649 872.261 93.0359 856.641 93.0359 837.362C93.0359 818.083 108.649 802.463 127.916 802.463C147.176 802.463 162.795 818.083 162.795 837.362Z" fill="white"/>
</mask>
<g mask="url(#mask33_202_161)">
<path d="M137.638 856.903H134.011C133.552 856.903 133.175 856.527 133.175 856.068C133.175 855.602 133.552 855.226 134.011 855.226H137.638C138.097 855.226 138.473 855.602 138.473 856.068C138.473 856.527 138.097 856.903 137.638 856.903Z" fill="#E5E5E5"/>
</g>
</g>
<mask id="mask34_202_161" style="mask-type:luminance" maskUnits="userSpaceOnUse" x="138" y="855" width="6" height="3">
<path d="M138.728 855.22H143.025V857.413H138.728V855.22Z" fill="white"/>
</mask>
<g mask="url(#mask34_202_161)">
<mask id="mask35_202_161" style="mask-type:luminance" maskUnits="userSpaceOnUse" x="93" y="802" width="70" height="71">
<path d="M162.795 837.362C162.795 856.641 147.176 872.261 127.916 872.261C108.649 872.261 93.036 856.641 93.036 837.362C93.036 818.083 108.649 802.463 127.916 802.463C147.176 802.463 162.795 818.083 162.795 837.362Z" fill="white"/>
</mask>
<g mask="url(#mask35_202_161)">
<path d="M141.247 856.903H140.08C139.621 856.903 139.245 856.527 139.245 856.068C139.245 855.602 139.621 855.226 140.08 855.226H141.247C141.706 855.226 142.082 855.602 142.082 856.068C142.082 856.527 141.706 856.903 141.247 856.903Z" fill="#E5E5E5"/>
</g>
</g>
<mask id="mask36_202_161" style="mask-type:luminance" maskUnits="userSpaceOnUse" x="104" y="825" width="6" height="3">
<path d="M104.894 825.842H109.351V827.474H104.894V825.842Z" fill="white"/>
</mask>
<g mask="url(#mask36_202_161)">
<mask id="mask37_202_161" style="mask-type:luminance" maskUnits="userSpaceOnUse" x="93" y="802" width="70" height="71">
<path d="M162.795 837.362C162.795 856.642 147.176 872.261 127.916 872.261C108.649 872.261 93.036 856.642 93.036 837.362C93.036 818.083 108.649 802.464 127.916 802.464C147.176 802.464 162.795 818.083 162.795 837.362Z" fill="white"/>
</mask>
<g mask="url(#mask37_202_161)">
<path d="M105.487 826.199H108.012C108.331 826.199 108.592 826.46 108.592 826.779C108.592 827.098 108.331 827.366 108.012 827.366H105.487C105.168 827.366 104.913 827.098 104.913 826.779C104.913 826.46 105.168 826.199 105.487 826.199Z" fill="#E5E5E5"/>
</g>
</g>
<mask id="mask38_202_161" style="mask-type:luminance" maskUnits="userSpaceOnUse" x="101" y="825" width="4" height="3">
<path d="M101.26 825.842H104.454V827.474H101.26V825.842Z" fill="white"/>
</mask>
<g mask="url(#mask38_202_161)">
<mask id="mask39_202_161" style="mask-type:luminance" maskUnits="userSpaceOnUse" x="93" y="802" width="70" height="71">
<path d="M162.795 837.362C162.795 856.642 147.176 872.261 127.916 872.261C108.649 872.261 93.036 856.642 93.036 837.362C93.036 818.083 108.649 802.464 127.916 802.464C147.176 802.464 162.795 818.083 162.795 837.362Z" fill="white"/>
</mask>
<g mask="url(#mask39_202_161)">
<path d="M102.982 826.199H103.791C104.11 826.199 104.371 826.46 104.371 826.779C104.371 827.098 104.11 827.366 103.791 827.366H102.982C102.663 827.366 102.401 827.098 102.401 826.779C102.401 826.46 102.663 826.199 102.982 826.199Z" fill="#E5E5E5"/>
</g>
</g>
<mask id="mask40_202_161" style="mask-type:luminance" maskUnits="userSpaceOnUse" x="104" y="816" width="7" height="4">
<path d="M104.894 816.049H110.983V819.256H104.894V816.049Z" fill="white"/>
</mask>
<g mask="url(#mask40_202_161)">
<mask id="mask41_202_161" style="mask-type:luminance" maskUnits="userSpaceOnUse" x="93" y="802" width="70" height="71">
<path d="M162.795 837.362C162.795 856.641 147.176 872.261 127.916 872.261C108.649 872.261 93.036 856.641 93.036 837.362C93.036 818.083 108.649 802.463 127.916 802.463C147.176 802.463 162.795 818.083 162.795 837.362Z" fill="white"/>
</mask>
<g mask="url(#mask41_202_161)">
<path d="M109.701 818.262H106.067C105.608 818.262 105.232 817.892 105.232 817.433C105.232 816.967 105.608 816.598 106.067 816.598H109.701C110.16 816.598 110.536 816.967 110.536 817.433C110.536 817.892 110.16 818.262 109.701 818.262Z" fill="#E5E5E5"/>
</g>
</g>
<mask id="mask42_202_161" style="mask-type:luminance" maskUnits="userSpaceOnUse" x="110" y="816" width="5" height="4">
<path d="M110.983 816.049H114.247V819.256H110.983V816.049Z" fill="white"/>
</mask>
<g mask="url(#mask42_202_161)">
<mask id="mask43_202_161" style="mask-type:luminance" maskUnits="userSpaceOnUse" x="93" y="802" width="70" height="71">
<path d="M162.795 837.362C162.795 856.641 147.176 872.261 127.916 872.261C108.649 872.261 93.036 856.641 93.036 837.362C93.036 818.083 108.649 802.463 127.916 802.463C147.176 802.463 162.795 818.083 162.795 837.362Z" fill="white"/>
</mask>
<g mask="url(#mask43_202_161)">
<path d="M113.303 818.262H112.149C111.678 818.262 111.314 817.892 111.314 817.433C111.314 816.967 111.678 816.598 112.149 816.598H113.303C113.769 816.598 114.145 816.967 114.145 817.433C114.145 817.892 113.769 818.262 113.303 818.262Z" fill="#E5E5E5"/>
</g>
</g>
<mask id="mask44_202_161" style="mask-type:luminance" maskUnits="userSpaceOnUse" x="120" y="841" width="7" height="3">
<path d="M120.775 841.06H126.685V843.795H120.775V841.06Z" fill="white"/>
</mask>
<g mask="url(#mask44_202_161)">
<mask id="mask45_202_161" style="mask-type:luminance" maskUnits="userSpaceOnUse" x="93" y="802" width="70" height="71">
<path d="M162.795 837.362C162.795 856.642 147.176 872.261 127.916 872.261C108.649 872.261 93.0359 856.642 93.0359 837.362C93.0359 818.083 108.649 802.464 127.916 802.464C147.176 802.464 162.795 818.083 162.795 837.362Z" fill="white"/>
</mask>
<g mask="url(#mask45_202_161)">
<path d="M125.525 843.119H121.904C121.438 843.119 121.062 842.743 121.062 842.284C121.062 841.819 121.438 841.443 121.904 841.443H125.525C125.99 841.443 126.366 841.819 126.366 842.284C126.366 842.743 125.99 843.119 125.525 843.119Z" fill="#E5E5E5"/>
</g>
</g>
<mask id="mask46_202_161" style="mask-type:luminance" maskUnits="userSpaceOnUse" x="126" y="841" width="5" height="3">
<path d="M126.685 841.06H130.313V843.795H126.685V841.06Z" fill="white"/>
</mask>
<g mask="url(#mask46_202_161)">
<mask id="mask47_202_161" style="mask-type:luminance" maskUnits="userSpaceOnUse" x="93" y="802" width="70" height="71">
<path d="M162.795 837.362C162.795 856.642 147.176 872.261 127.916 872.261C108.649 872.261 93.036 856.642 93.036 837.362C93.036 818.083 108.649 802.464 127.916 802.464C147.176 802.464 162.795 818.083 162.795 837.362Z" fill="white"/>
</mask>
<g mask="url(#mask47_202_161)">
<path d="M129.14 843.119H127.973C127.514 843.119 127.138 842.743 127.138 842.284C127.138 841.819 127.514 841.443 127.973 841.443H129.14C129.599 841.443 129.975 841.819 129.975 842.284C129.975 842.743 129.599 843.119 129.14 843.119Z" fill="#E5E5E5"/>
</g>
</g>
<path d="M316.423 879.873L325.553 864.043L328.861 883.801C329.104 885.229 327.561 886.306 326.299 885.573L316.423 879.873Z" fill="white"/>
<path d="M319.349 880.237C318.527 879.752 318.24 878.7 318.718 877.871L325.808 865.58L325.553 864.043L316.423 879.873L326.299 885.573C326.987 885.968 327.759 885.834 328.281 885.388L319.349 880.237Z" fill="#D4D4D4"/>
<path d="M301.212 871.088L310.347 855.258L291.597 862.271C290.239 862.781 290.08 864.655 291.342 865.376L301.212 871.088Z" fill="white"/>
<path d="M299.439 868.729C300.268 869.207 301.326 868.921 301.798 868.098L308.894 855.806L310.347 855.258L301.211 871.088L291.342 865.376C290.654 864.981 290.386 864.241 290.514 863.572L299.439 868.729Z" fill="#D4D4D4"/>
<path d="M316.423 879.873L301.211 871.088L317.322 843.17L332.527 851.956L316.423 879.873Z" fill="#D6414C"/>
<path d="M316.423 879.873L301.211 871.088L299.082 874.779L314.3 883.565L316.423 879.873Z" fill="#414042"/>
<path d="M314.3 883.565L299.082 874.779L298.075 876.52C296.934 878.503 297.616 881.027 299.592 882.175L307.638 886.823C309.614 887.964 312.145 887.288 313.293 885.312L314.3 883.565Z" fill="white"/>
<path d="M311.909 877.259L305.738 873.696L321.836 845.784L328.007 849.354L311.909 877.259Z" fill="#B93842"/>
<path d="M329.709 836.298L317.322 843.17L332.527 851.956L332.279 837.783C332.26 836.476 330.851 835.666 329.709 836.298Z" fill="#E5D3B3"/>
<path d="M323.646 839.657L332.4 844.719L332.279 837.783C332.26 836.476 330.851 835.66 329.709 836.298L323.646 839.657Z" fill="#414042"/>
<path d="M324.45 861.538C322.633 864.681 318.616 865.765 315.473 863.948C312.324 862.131 311.253 858.108 313.07 854.965C314.88 851.815 318.903 850.738 322.046 852.555C325.183 854.372 326.267 858.395 324.45 861.538Z" fill="#AB343D"/>
<path d="M325.208 860.594C323.34 863.833 319.209 864.936 315.977 863.074C312.745 861.206 311.635 857.069 313.503 853.836C315.371 850.604 319.503 849.495 322.741 851.363C325.967 853.224 327.07 857.368 325.208 860.594Z" fill="white"/>
<path d="M324.067 859.938C322.563 862.539 319.235 863.431 316.64 861.927C314.032 860.422 313.14 857.094 314.644 854.499C316.149 851.892 319.477 850.999 322.078 852.504C324.673 854.002 325.572 857.33 324.067 859.938Z" fill="#414042"/>
<path d="M314.969 855.813C316.391 853.365 319.534 852.517 321.989 853.938C323.073 854.563 323.844 855.526 324.239 856.629C324.099 855.099 323.251 853.658 321.823 852.835C319.49 851.49 316.512 852.293 315.167 854.621C314.759 855.328 314.549 856.093 314.517 856.858C314.632 856.501 314.778 856.151 314.969 855.813Z" fill="#6D6C6E"/>
<path d="M319.93 856.635C319.528 857.33 318.635 857.572 317.941 857.164C317.239 856.769 317.01 855.876 317.405 855.181C317.807 854.474 318.706 854.244 319.4 854.639C320.095 855.041 320.331 855.94 319.93 856.635Z" fill="#6D6C6E"/>
<path d="M1236.81 866.338L1233.29 864.305L1229.49 869.564C1229.31 869.813 1229.38 870.164 1229.65 870.31L1233.3 872.427L1236.95 874.537C1237.21 874.684 1237.56 874.575 1237.69 874.295L1240.34 868.372L1236.81 866.338Z" fill="#AAAAAA"/>
<path d="M1240.34 868.372L1239.78 868.053L1237.39 873.402C1237.26 873.677 1236.93 873.791 1236.66 873.632L1233.01 871.528L1229.53 869.52L1229.49 869.564C1229.31 869.813 1229.38 870.164 1229.65 870.31L1233.3 872.427L1236.95 874.537C1237.21 874.684 1237.56 874.575 1237.69 874.295L1240.34 868.372Z" fill="#7D7D7D"/>
<path d="M1252.11 852.925C1252.96 850.26 1258.3 839.83 1257.38 839.288L1257.33 839.269L1257.35 839.224C1261.17 832.613 1262.61 826.314 1260.58 825.141C1258.55 823.968 1253.82 828.373 1250.02 834.978L1249.98 835.023L1249.94 834.991C1249.01 834.462 1242.66 844.305 1240.78 846.377C1239.08 848.271 1226.6 851.146 1224.41 851.643C1224.2 851.694 1224.02 851.822 1223.91 852.013L1221.15 856.788C1220.94 857.164 1221.06 857.636 1221.43 857.847L1232.08 863.999L1231.02 865.848L1231.13 866.268L1239.71 871.228L1240.14 871.114L1241.2 869.271L1251.85 875.423C1252.22 875.634 1252.69 875.506 1252.91 875.137L1255.66 870.355C1255.77 870.17 1255.8 869.947 1255.74 869.737C1255.07 867.594 1251.32 855.341 1252.11 852.925Z" fill="white"/>
<path d="M1243.05 869.144C1242.55 868.857 1242.37 868.219 1242.66 867.722L1254.78 846.728C1256.35 843.221 1257.91 839.6 1257.38 839.288L1257.33 839.268L1257.35 839.224C1257.58 838.835 1257.8 838.44 1258.01 838.051L1240.3 868.748L1241.2 869.271L1251.85 875.423C1252.22 875.634 1252.69 875.506 1252.91 875.136L1253.04 874.92L1243.05 869.144Z" fill="#CCCCCC"/>
<path d="M1231.27 862.341H1231.27C1231.77 862.628 1232.41 862.456 1232.69 861.959L1244.81 840.971C1247.06 837.847 1249.41 834.678 1249.94 834.991L1249.98 835.023L1250.02 834.978C1250.24 834.589 1250.47 834.206 1250.69 833.83L1232.99 864.521L1232.08 863.999L1221.43 857.846C1221.06 857.636 1220.94 857.164 1221.15 856.788L1221.28 856.571L1231.27 862.341Z" fill="#CCCCCC"/>
<path d="M1238.43 867.206L1235.26 865.369L1249.4 840.875C1249.9 840.002 1251.01 839.708 1251.89 840.212C1252.76 840.716 1253.06 841.838 1252.56 842.711L1238.43 867.206Z" fill="#17A9CB"/>
<path d="M1238.03 866.976L1235.66 865.599L1249.7 841.277C1250.07 840.62 1250.91 840.397 1251.56 840.78C1252.22 841.156 1252.44 841.991 1252.06 842.648L1238.03 866.976Z" fill="#60C4DB"/>
<path d="M1237.55 866.689L1236.14 865.873L1250.17 841.564C1250.4 841.175 1250.9 841.041 1251.28 841.27C1251.67 841.493 1251.8 841.991 1251.58 842.38L1237.55 866.689Z" fill="#B7E4EF"/>
<path d="M1233.45 864.33L1235.12 861.442L1241.91 865.35L1240.24 868.245L1233.45 864.33ZM1245.51 843.425L1247.12 840.646L1253.9 844.56L1252.29 847.346L1245.51 843.425ZM1243.51 846.887L1245.12 844.114L1251.9 848.022L1250.3 850.808L1243.51 846.887ZM1241.52 850.355L1243.12 847.576L1249.9 851.49L1248.29 854.27L1241.52 850.355ZM1239.52 853.824L1241.12 851.044L1247.9 854.958L1246.3 857.744L1239.52 853.824ZM1243.9 861.888L1242.29 864.668L1235.51 860.754L1237.12 857.974L1243.9 861.888ZM1237.51 857.285L1239.13 854.506L1245.9 858.42L1244.3 861.206L1237.51 857.285ZM1255.96 840.984L1254.3 843.878L1247.52 839.963L1249.18 837.075L1255.96 840.984ZM1248.89 835.992L1232.38 864.617L1240.52 869.322L1257.04 840.697L1248.89 835.992Z" fill="#414042"/>
<path d="M1224 859.332L1223.25 858.898L1226.03 854.085L1241.05 849.711L1241.27 850.559L1226.59 854.824L1224 859.332Z" fill="#414042"/>
<path d="M1249.29 873.944L1250.03 874.371L1252.81 869.558L1249.08 854.365L1248.25 854.582L1251.88 869.437L1249.29 873.944Z" fill="#414042"/>
<path d="M1234.03 862.462L1224.4 856.903L1224.91 856.017L1234.53 861.576L1234.03 862.462Z" fill="#414042"/>
<path d="M1251.18 872.376L1241.56 866.817L1242.08 865.93L1251.69 871.49L1251.18 872.376Z" fill="#414042"/>
<path d="M1257.7 835.858C1256.91 837.228 1255.16 837.7 1253.8 836.91C1252.43 836.119 1251.95 834.366 1252.74 833.002C1253.54 831.637 1255.29 831.165 1256.65 831.956C1258.02 832.74 1258.49 834.493 1257.7 835.858Z" fill="#DDDDDD"/>
<path d="M1258.03 835.45C1257.22 836.859 1255.42 837.343 1254.01 836.527C1252.61 835.717 1252.13 833.913 1252.94 832.511C1253.75 831.102 1255.54 830.624 1256.96 831.427C1258.36 832.243 1258.85 834.041 1258.03 835.45Z" fill="#949495"/>
<path d="M1257.53 835.163C1256.88 836.298 1255.43 836.686 1254.31 836.03C1253.17 835.373 1252.78 833.926 1253.43 832.791C1254.09 831.663 1255.54 831.274 1256.67 831.937C1257.8 832.587 1258.18 834.034 1257.53 835.163Z" fill="#414042"/>
<path d="M1253.57 833.378C1254.19 832.3 1255.56 831.937 1256.63 832.549C1257.1 832.829 1257.43 833.244 1257.61 833.722C1257.55 833.065 1257.18 832.441 1256.55 832.077C1255.54 831.484 1254.25 831.835 1253.66 832.849C1253.48 833.161 1253.39 833.492 1253.38 833.83L1253.57 833.378Z" fill="#6D6C6E"/>
<path d="M1255.74 833.728C1255.56 834.034 1255.17 834.136 1254.87 833.964C1254.57 833.786 1254.46 833.397 1254.64 833.091C1254.81 832.791 1255.2 832.689 1255.5 832.861C1255.8 833.033 1255.91 833.422 1255.74 833.728Z" fill="#6D6C6E"/>
<path d="M1232.33 868.098L1231.88 868.225L1231.76 867.766L1232.21 867.639L1232.33 868.098Z" fill="#CFCFCF"/>
<path d="M839.39 894.747L746.322 1049.16C735.815 1066.56 713.335 1072.35 695.739 1062.19C677.907 1051.88 671.793 1029.06 682.09 1011.21L728.381 930.979C733.82 921.568 731.461 909.245 722.427 903.207C712.519 896.609 699.271 899.816 693.412 909.965L646.776 990.805C636.474 1008.66 613.663 1014.77 595.831 1004.46H595.824C578.228 994.305 572 971.915 581.811 954.121L668.912 796.267L839.39 894.747Z" fill="white"/>
<path d="M617.628 683.346C598.094 717.212 609.685 760.501 643.519 780.048L866.122 908.646C899.962 928.192 943.232 916.596 962.766 882.742L1083.27 673.872C1102.81 640.012 1091.22 596.717 1057.38 577.17L834.78 448.572C800.94 429.025 757.676 440.628 738.142 474.488L617.628 683.346Z" fill="#505050"/>
<path d="M698.768 542.717L1043.91 742.101L1059.88 714.426L714.745 515.042L698.768 542.717Z" fill="#444444"/>
<path d="M704.27 533.186L1049.41 732.57L1054.37 723.963L709.236 524.573L704.27 533.186Z" fill="#505050"/>
<path d="M1038.78 673.738C1036.22 678.175 1037.73 683.849 1042.17 686.412C1046.61 688.975 1052.28 687.458 1054.84 683.014C1057.4 678.577 1055.88 672.896 1051.45 670.34C1047 667.777 1041.34 669.301 1038.78 673.738Z" fill="#717171"/>
<path d="M744.441 503.7C741.885 508.137 743.408 513.818 747.839 516.381C752.283 518.937 757.95 517.42 760.507 512.976C763.07 508.539 761.553 502.865 757.122 500.302C752.678 497.739 747.01 499.256 744.441 503.7Z" fill="#717171"/>
<path d="M1000.34 740.342C997.786 744.779 999.304 750.459 1003.73 753.022C1008.18 755.585 1013.85 754.055 1016.4 749.618C1018.97 745.187 1017.45 739.513 1013.02 736.944C1008.57 734.381 1002.91 735.904 1000.34 740.342Z" fill="#717171"/>
<path d="M706.017 570.31C703.46 574.741 704.977 580.421 709.408 582.984C713.852 585.547 719.52 584.017 722.076 579.586C724.639 575.149 723.122 569.469 718.685 566.906C714.247 564.349 708.58 565.873 706.017 570.31Z" fill="#717171"/>
<path d="M655.192 678.392C662.415 682.568 671.067 684.06 679.552 682.249L740.68 669.224C759.245 665.265 771.103 646.993 767.144 628.403C763.191 609.818 744.926 597.96 726.348 601.919L687.273 610.246L655.345 565.535C644.303 550.081 622.824 546.498 607.377 557.547C591.929 568.589 588.352 590.08 599.388 605.54L644.411 668.599C647.325 672.673 651.022 675.982 655.192 678.392Z" fill="white"/>
<path d="M600.345 596.666L645.374 659.725C648.287 663.799 651.979 667.108 656.148 669.524C663.378 673.693 672.023 675.185 683.199 672.648L744.314 659.629C751.69 658.208 759.742 651.845 764.415 643.531C761.655 656.359 751.652 667.031 737.989 669.938L676.868 682.963C668.383 684.774 659.731 683.282 652.508 679.112C648.332 676.703 644.641 673.394 641.727 669.313L596.704 606.267C588.684 595.027 588.41 580.645 594.766 569.354C592.777 578.522 594.473 588.442 600.345 596.666Z" fill="#E5E5E5"/>
<path d="M660.139 775.017C660.93 772.046 662.084 769.127 663.69 766.341L756.841 604.89C766.698 587.817 788.514 581.964 805.575 591.827L948.001 674.108C965.068 683.958 970.908 705.8 961.064 722.867L867.907 884.317C866.3 887.103 864.343 889.564 862.175 891.732L660.139 775.017Z" fill="#E5E5E5"/>
<path d="M755.107 738.161C746.558 752.984 751.626 771.938 766.442 780.494L804.274 802.355C819.097 810.911 838.032 805.836 846.581 791.007L855.156 776.152C863.705 761.329 858.631 742.382 843.821 733.82L805.983 711.958C791.173 703.409 772.225 708.484 763.676 723.307L755.107 738.161Z" fill="#6D28D9"/>
<path d="M788.004 707.91C781.393 710.32 775.559 714.968 771.766 721.541L763.197 736.395C754.642 751.218 759.723 770.166 774.533 778.728L812.371 800.589C818.032 803.853 824.293 805.135 830.349 804.638C822.055 807.653 812.524 807.118 804.274 802.355L766.442 780.494C751.626 771.938 746.558 752.984 755.107 738.161L763.676 723.307C768.961 714.152 778.205 708.713 788.004 707.91Z" fill="#4C1D95"/>
<path d="M781.954 743.765C774.565 756.573 778.945 772.958 791.746 780.354C804.548 787.749 820.92 783.356 828.309 770.555C835.698 757.74 831.318 741.355 818.51 733.96C805.715 726.565 789.343 730.957 781.954 743.765Z" fill="#DFDFDF"/>
<path d="M787.615 747.036C782.03 756.72 785.345 769.095 795.017 774.679C804.688 780.277 817.057 776.962 822.648 767.278C828.233 757.6 824.917 745.219 815.24 739.634C805.568 734.049 793.194 737.364 787.615 747.036Z" fill="#373737"/>
<path d="M808.456 754.087C806.709 757.103 807.742 760.947 810.758 762.694C813.767 764.434 817.618 763.401 819.358 760.386C821.092 757.37 820.066 753.52 817.05 751.779C814.041 750.039 810.19 751.078 808.456 754.087Z" fill="#636363"/>
<path d="M850.655 756.631C849.386 758.824 846.581 759.576 844.388 758.314C842.195 757.052 841.443 754.24 842.718 752.047C843.98 749.854 846.779 749.102 848.972 750.364C851.171 751.639 851.924 754.438 850.655 756.631Z" fill="#4C1D95"/>
<path d="M822.163 768.068C822.163 768.068 822.17 768.062 822.17 768.055C822.17 768.062 822.163 768.062 822.163 768.068ZM822.208 768.011C822.208 768.004 822.208 767.998 822.214 767.992C822.214 767.998 822.208 768.004 822.208 768.011Z" fill="#DFDFDF"/>
<path d="M809.081 776.994L798.638 738.002C800.729 737.288 802.935 736.925 805.16 736.925C808.271 736.925 811.414 737.639 814.341 739.137C814.647 739.29 814.946 739.462 815.24 739.634C815.278 739.653 815.323 739.679 815.354 739.698C815.38 739.711 815.393 739.717 815.405 739.723C815.412 739.73 815.412 739.73 815.412 739.73C815.425 739.742 815.444 739.749 815.456 739.755C816.355 740.291 817.203 740.89 817.987 741.54L824.076 764.249C823.681 765.276 823.215 766.296 822.648 767.278C822.635 767.303 822.622 767.322 822.603 767.348C822.597 767.361 822.597 767.367 822.591 767.373C822.584 767.386 822.578 767.399 822.565 767.424C822.565 767.431 822.559 767.437 822.546 767.444C822.54 767.456 822.533 767.475 822.52 767.495C822.52 767.501 822.514 767.507 822.508 767.514C822.501 767.526 822.482 767.552 822.476 767.571C822.469 767.571 822.469 767.577 822.463 767.584C822.457 767.603 822.444 767.628 822.431 767.648C822.418 767.654 822.412 767.66 822.412 767.679C822.399 767.692 822.393 767.705 822.386 767.718C822.38 767.724 822.374 767.737 822.367 767.75C822.355 767.762 822.348 767.769 822.342 767.781C822.335 767.801 822.329 767.807 822.323 767.82C822.316 767.826 822.316 767.832 822.31 767.845C822.278 767.896 822.246 767.947 822.214 767.992C822.208 767.998 822.208 768.005 822.208 768.011C822.195 768.024 822.189 768.036 822.17 768.056C822.17 768.062 822.163 768.068 822.163 768.068C819.103 772.863 814.309 775.961 809.081 776.994ZM810.477 762.522C809.814 764.128 810.433 766.009 811.975 766.902C812.524 767.22 813.136 767.38 813.729 767.38C814.946 767.38 816.132 766.749 816.783 765.62C817.312 764.689 817.382 763.625 817.057 762.694C817.981 762.152 818.784 761.381 819.358 760.386C821.092 757.37 820.066 753.52 817.05 751.779C816.426 751.416 815.769 751.174 815.093 751.046C815.004 750.122 814.481 749.261 813.62 748.764C813.149 748.49 812.639 748.362 812.135 748.362C811.115 748.362 810.114 748.898 809.566 749.847C809.036 750.766 809.049 751.849 809.508 752.723C809.107 753.118 808.75 753.571 808.456 754.087C806.767 757.001 807.678 760.705 810.477 762.522Z" fill="#595959"/>
<path d="M817.057 762.694C816.789 761.922 816.26 761.247 815.488 760.807C814.94 760.488 814.334 760.328 813.741 760.328C812.517 760.328 811.331 760.96 810.688 762.088C810.605 762.235 810.535 762.375 810.477 762.522C807.678 760.705 806.767 757.001 808.456 754.087C808.749 753.571 809.106 753.118 809.508 752.723C809.757 753.194 810.152 753.615 810.656 753.908C811.121 754.176 811.631 754.304 812.135 754.304C813.155 754.304 814.156 753.775 814.71 752.818C815.029 752.257 815.15 751.645 815.093 751.046C815.769 751.173 816.425 751.416 817.05 751.779C820.066 753.52 821.092 757.37 819.358 760.386C818.784 761.38 817.981 762.152 817.057 762.694Z" fill="#7C7C7C"/>
<path d="M809.508 752.723C809.049 751.849 809.036 750.765 809.566 749.847C810.114 748.897 811.115 748.362 812.135 748.362C812.639 748.362 813.149 748.489 813.62 748.764C814.481 749.261 815.004 750.122 815.093 751.046C814.704 750.976 814.309 750.931 813.907 750.931C812.281 750.931 810.694 751.562 809.508 752.723Z" fill="#A9A9A9"/>
<path d="M812.135 754.304C811.631 754.304 811.121 754.176 810.656 753.908C810.152 753.615 809.757 753.194 809.508 752.723C810.694 751.562 812.282 750.931 813.907 750.931C814.309 750.931 814.704 750.976 815.093 751.046C815.151 751.645 815.029 752.257 814.711 752.818C814.156 753.775 813.155 754.304 812.135 754.304Z" fill="#B7B7B7"/>
<path d="M813.729 767.38C813.136 767.38 812.524 767.22 811.975 766.902C810.433 766.009 809.814 764.128 810.477 762.522C810.566 762.579 810.662 762.636 810.758 762.694C811.746 763.261 812.83 763.542 813.901 763.542C815.01 763.542 816.1 763.249 817.057 762.694C817.382 763.625 817.312 764.689 816.782 765.62C816.132 766.749 814.946 767.38 813.729 767.38Z" fill="#A9A9A9"/>
<path d="M813.901 763.542C812.83 763.542 811.746 763.261 810.758 762.694C810.662 762.636 810.567 762.579 810.477 762.522C810.535 762.375 810.605 762.235 810.688 762.088C811.332 760.96 812.517 760.328 813.741 760.328C814.334 760.328 814.94 760.488 815.488 760.807C816.26 761.247 816.789 761.922 817.057 762.694C816.1 763.248 815.01 763.542 813.901 763.542Z" fill="#B7B7B7"/>
<path d="M804.944 777.395C802.546 777.37 800.124 776.93 797.809 776.025L789.356 744.486C790.918 742.535 792.792 740.947 794.858 739.723L804.944 777.395Z" fill="#595959"/>
<path d="M648.192 807.8C646.923 809.993 647.803 812.862 650.136 814.22L833.244 919.994C835.584 921.352 838.503 920.67 839.772 918.476L854.659 892.675C855.921 890.482 855.054 887.613 852.708 886.268L669.6 780.481C667.267 779.123 664.347 779.805 663.078 781.998L648.192 807.8Z" fill="#E5E5E5"/>
<path d="M862.175 891.732L660.139 775.017C660.904 772.148 662.001 769.337 663.518 766.634L867.735 884.617C866.16 887.275 864.266 889.64 862.175 891.732Z" fill="#C8C8C8"/>
<path d="M817.312 865.809L836.081 876.66L939.585 697.276L920.816 686.438L817.312 865.809Z" fill="#373737"/>
<path d="M821.315 867.607L826.352 870.508L929.85 691.136L924.813 688.223L821.315 867.607Z" fill="#505050"/>
<path d="M686.227 790.082L705.003 800.933L808.501 621.549L789.732 610.711L686.227 790.082Z" fill="#373737"/>
<path d="M690.238 791.88L695.261 794.781L798.766 615.41L793.736 612.496L690.238 791.88Z" fill="#505050"/>
<path d="M884.049 620.376L988.529 680.738C957.787 734.024 916.334 727.763 895.066 725.914C873.798 724.065 838.586 705.628 838.586 705.628L835.794 704.008L833.002 702.395C833.002 702.395 799.441 681.114 787.201 663.608C774.973 646.101 748.827 613.306 779.576 560.014L884.049 620.376Z" fill="#DDDDDD"/>
<path d="M780.239 560.403C763.829 599.917 787.755 627.134 799.588 642.142C812.486 658.501 846.173 679.578 846.173 679.578L848.965 681.197L851.752 682.81C851.752 682.81 886.835 701.452 907.441 704.455C926.356 707.202 961.874 714.33 987.86 680.349L988.529 680.738C957.787 734.024 916.334 727.763 895.066 725.914C873.798 724.065 838.586 705.628 838.586 705.628L835.794 704.008L833.002 702.395C833.002 702.395 799.441 681.114 787.201 663.608C774.973 646.101 748.827 613.306 779.576 560.014L780.239 560.403Z" fill="white"/>
<path d="M816.84 449.579L824.509 448.942C824.509 448.942 831.389 443.057 836.986 444.76C836.986 444.76 860.237 421.898 879.198 414.515C898.164 407.132 926.541 402.899 949.99 409.185C973.445 415.484 992.182 425.264 992.182 425.264L995.516 427.195L998.857 429.114C998.857 429.114 1016.69 440.456 1033.86 457.644C1051.03 474.82 1061.55 501.526 1064.64 521.653C1067.74 541.774 1059.58 573.351 1059.58 573.351C1063.85 577.349 1062.2 586.255 1062.2 586.255L1065.49 593.223C1067.02 596.481 1066.87 600.294 1065.07 603.418L1047.85 633.267C1046.23 636.066 1043.46 638.01 1040.28 638.591L1033.2 639.866C1012.7 675.389 996.103 683.378 976.307 689.517C956.518 695.65 922.831 692.998 904.183 689.103C885.541 685.207 857.846 671.5 857.846 671.5L852.912 668.65C852.912 668.65 827.2 651.507 814.506 637.296C801.807 623.086 782.674 595.219 778.09 574.996C773.506 554.78 772.117 536.399 792.613 500.876L790.184 494.105C789.081 491.058 789.387 487.685 790.994 484.886L808.227 455.037C810.031 451.913 813.244 449.873 816.84 449.579Z" fill="white"/>
<path d="M817.407 471.67C830.152 451.773 826.607 451.231 848.857 455.509C871.12 459.786 903.883 471.645 925.974 481.884C948.065 492.122 953.822 495.699 953.822 495.699L955.454 496.636L957.067 497.573C957.067 497.573 963.047 500.774 982.951 514.8C1002.86 528.826 1029.52 551.292 1044.34 568.442C1059.16 585.592 1056.93 582.78 1046.08 603.775C1035.22 624.769 1013.6 652.202 1001.52 665.374C989.728 678.252 962.454 681.025 928.212 680.069C894.696 679.138 864.254 662.932 864.254 662.932L860.684 660.872L857.12 658.82C857.12 658.82 827.876 640.535 810.305 611.954C792.358 582.761 781.131 557.738 786.372 541.079C791.734 524.025 804.669 491.568 817.407 471.67Z" fill="#373737"/>
<path d="M817.407 471.67C829.769 452.372 826.805 451.282 846.932 455.139C833.416 478.128 820.308 511.319 814.621 529.425C808.597 548.576 821.507 577.336 842.131 610.889C862.322 643.742 895.939 664.755 895.939 664.755L904.138 669.486C904.138 669.486 914.383 674.937 929.882 680.113C929.327 680.094 928.773 680.082 928.212 680.069C894.696 679.138 864.254 662.932 864.254 662.932L860.683 660.872L857.12 658.82C857.12 658.82 827.876 640.535 810.305 611.954C792.358 582.761 781.131 557.738 786.372 541.079C791.734 524.025 804.669 491.568 817.407 471.67Z" fill="#2C2C2C"/>
<path d="M1034.25 524.879C1031.6 529.463 1033.18 535.322 1037.75 537.968C1042.33 540.62 1048.18 539.039 1050.83 534.461C1053.47 529.877 1051.9 524.025 1047.32 521.373C1042.75 518.733 1036.89 520.302 1034.25 524.879Z" fill="#DDDDDD"/>
<path d="M1016.01 489.183C1012.65 495.03 1014.64 502.501 1020.48 505.874C1026.32 509.247 1033.78 507.245 1037.15 501.399C1040.52 495.559 1038.52 488.087 1032.68 484.714C1026.85 481.342 1019.39 483.343 1016.01 489.183Z" fill="#DDDDDD"/>
<path d="M800.927 662.562C799.441 665.15 800.328 668.466 802.916 669.951C805.498 671.449 808.807 670.563 810.299 667.975C811.797 665.38 810.911 662.078 808.322 660.579C805.728 659.087 802.425 659.974 800.927 662.562Z" fill="#DDDDDD"/>
<path d="M791.957 652.068C790.988 653.745 791.555 655.881 793.232 656.843C794.896 657.812 797.032 657.232 798.001 655.568C798.963 653.892 798.39 651.756 796.719 650.787C795.055 649.824 792.919 650.398 791.957 652.068Z" fill="#DDDDDD"/>
<path d="M968.07 678.692L913.95 476.598C918.1 478.339 922.072 480.079 925.731 481.769C925.763 481.788 925.802 481.807 925.846 481.82C925.846 481.826 925.853 481.826 925.853 481.826C925.891 481.845 925.935 481.858 925.974 481.884C948.064 492.122 953.821 495.699 953.821 495.699L955.453 496.636L957.066 497.573C957.066 497.573 963.047 500.774 982.951 514.8C984.206 515.692 985.501 516.604 986.795 517.554L992.673 539.472C990.544 538.561 988.306 538.121 986.094 538.121C980.292 538.121 974.663 541.136 971.551 546.517C967.554 553.441 969.052 562.029 974.682 567.244C971.59 569.755 968.899 572.86 966.789 576.52C959.177 589.71 961.523 605.929 971.513 616.436C969.913 617.475 968.529 618.891 967.516 620.65C964.086 626.611 966.119 634.223 972.074 637.666C974.031 638.795 976.173 639.336 978.284 639.336C982.581 639.336 986.763 637.105 989.065 633.108C990.276 631.023 990.805 628.734 990.735 626.496C992.424 626.758 994.12 626.885 995.81 626.885C1002.46 626.885 1009.01 624.903 1014.55 621.186L1020.32 642.722C1013.37 651.762 1006.6 659.833 1001.52 665.374C1001.51 665.399 1001.49 665.418 1001.47 665.431C1001.46 665.437 1001.46 665.444 1001.46 665.444C1001.44 665.469 1001.43 665.488 1001.4 665.501C1001.4 665.507 1001.39 665.52 1001.39 665.52C1001.38 665.533 1001.37 665.546 1001.35 665.558C1001.34 665.565 1001.34 665.578 1001.33 665.584C1001.32 665.603 1001.31 665.616 1001.29 665.629C1001.27 665.648 1001.27 665.654 1001.26 665.66C1001.25 665.667 1001.24 665.68 1001.24 665.686C1001.22 665.692 1001.22 665.711 1001.2 665.718C1001.19 665.731 1001.18 665.743 1001.17 665.756C1001.15 665.775 1001.15 665.782 1001.13 665.794C1001.13 665.801 1001.12 665.801 1001.12 665.807C994.369 672.833 982.861 676.76 968.07 678.692Z" fill="#5D5D5D"/>
<path d="M929.703 680.113C929.295 680.094 928.9 680.088 928.498 680.075C928.505 680.075 928.511 680.075 928.518 680.075C928.913 680.088 929.302 680.094 929.703 680.113ZM928.001 680.062C927.912 680.062 927.823 680.062 927.74 680.056C927.829 680.062 927.912 680.062 928.001 680.062Z" fill="#C0C0C0"/>
<path d="M939.783 680.241C936.506 680.241 933.14 680.196 929.703 680.113C929.302 680.094 928.913 680.088 928.518 680.075C928.97 680.088 929.423 680.101 929.882 680.113C925.598 678.685 921.715 677.232 918.336 675.88L860.008 458.052C869.38 460.456 879.727 463.714 890.01 467.36L946.987 680.158C944.635 680.215 942.231 680.241 939.783 680.241Z" fill="#5D5D5D"/>
<path d="M929.882 680.113C929.423 680.101 928.97 680.088 928.518 680.075C928.511 680.075 928.505 680.075 928.499 680.075C928.397 680.075 928.307 680.075 928.212 680.069C928.18 680.069 928.142 680.069 928.097 680.069C928.078 680.069 928.052 680.069 928.027 680.069C928.02 680.069 928.008 680.062 928.001 680.062C927.912 680.062 927.829 680.062 927.74 680.056C927.721 680.056 927.714 680.056 927.702 680.056C927.682 680.056 927.651 680.056 927.631 680.056C924.82 679.96 922.04 679.756 919.305 679.469L918.336 675.88C921.715 677.232 925.598 678.685 929.882 680.113Z" fill="#575757"/>
<path d="M1014.55 621.186L999.501 564.987C999.896 564.451 1000.27 563.89 1000.61 563.304C1001.17 562.328 1001.62 561.321 1001.97 560.294C1005.62 560.964 1009.22 562.264 1012.62 564.234C1028.67 573.504 1034.16 594.033 1024.9 610.093C1022.25 614.689 1018.67 618.419 1014.55 621.186Z" fill="#5F5F5F"/>
<path d="M995.81 626.885C994.12 626.885 992.424 626.758 990.735 626.496C990.601 622.333 988.376 618.336 984.512 616.105C982.555 614.97 980.413 614.428 978.309 614.428C975.899 614.428 973.534 615.123 971.513 616.436C961.523 605.929 959.177 589.71 966.789 576.52C968.899 572.86 971.59 569.755 974.682 567.244C975.581 568.072 976.588 568.812 977.691 569.449C980.337 570.973 983.212 571.7 986.062 571.7C991.232 571.7 996.269 569.316 999.501 564.987L1014.55 621.186C1009.01 624.903 1002.46 626.885 995.81 626.885Z" fill="#7D7D7D"/>
<path d="M1001.97 560.294C1000.69 560.052 999.399 559.886 998.111 559.804L992.673 539.472C993.279 539.734 993.878 540.033 994.465 540.378C1001.52 544.452 1004.49 552.861 1001.97 560.294Z" fill="#5F5F5F"/>
<path d="M974.682 567.244C969.052 562.029 967.554 553.441 971.552 546.517C974.663 541.136 980.292 538.121 986.094 538.121C988.306 538.121 990.544 538.561 992.673 539.472L998.111 559.804C997.365 559.753 996.62 559.733 995.88 559.733C988.217 559.733 980.694 562.347 974.682 567.244Z" fill="#7D7D7D"/>
<path d="M999.501 564.987L998.111 559.803C999.399 559.886 1000.69 560.052 1001.97 560.294C1001.62 561.321 1001.17 562.328 1000.61 563.304C1000.27 563.89 999.896 564.451 999.501 564.987Z" fill="#7F7F7F"/>
<path d="M986.062 571.7C983.212 571.7 980.337 570.973 977.691 569.449C976.588 568.812 975.581 568.072 974.682 567.244C980.694 562.347 988.217 559.733 995.88 559.733C996.619 559.733 997.365 559.753 998.111 559.804L999.501 564.987C996.269 569.316 991.232 571.7 986.062 571.7Z" fill="#979797"/>
<path d="M978.284 639.336C976.174 639.336 974.031 638.795 972.074 637.666C966.12 634.223 964.086 626.611 967.516 620.65C968.529 618.891 969.913 617.475 971.513 616.436C973.681 618.712 976.205 620.733 979.068 622.384C982.785 624.526 986.731 625.884 990.735 626.496C990.805 628.734 990.276 631.023 989.065 633.108C986.763 637.105 982.581 639.336 978.284 639.336Z" fill="#7D7D7D"/>
<path d="M990.735 626.496C986.731 625.884 982.785 624.526 979.068 622.384C976.205 620.733 973.681 618.712 971.513 616.436C973.534 615.123 975.899 614.428 978.309 614.428C980.413 614.428 982.555 614.97 984.513 616.104C988.376 618.336 990.601 622.333 990.735 626.496Z" fill="#979797"/>
<path d="M958.699 727.164C959.547 727.591 960.395 727.98 961.223 728.464C983.716 741.457 991.424 770.23 978.443 792.741L909.882 911.559L866.696 886.606L958.699 727.164Z" fill="white"/>
<path d="M961.223 728.464C960.395 727.98 959.547 727.591 958.699 727.164L958.469 727.572C976.027 741.904 981.127 767.259 969.435 787.532L900.874 906.357L909.882 911.559L978.443 792.741C991.424 770.23 983.716 741.457 961.223 728.464Z" fill="#E5E5E5"/>
<path d="M854.11 887.607C844.356 904.521 850.145 926.152 867.04 935.913C883.941 945.674 905.547 939.885 915.308 922.971C925.068 906.057 919.273 884.438 902.378 874.671C885.477 864.91 863.871 870.699 854.11 887.607Z" fill="#D1D3D4"/>
<path d="M897.559 900.377C895.531 903.889 896.736 908.384 900.249 910.412C903.762 912.445 908.25 911.24 910.29 907.727C912.311 904.208 911.113 899.72 907.594 897.686C904.081 895.659 899.593 896.864 897.559 900.377Z" fill="white"/>
<path d="M655.396 586.663C643.2 607.81 616.175 615.053 595.034 602.844C573.906 590.635 566.663 563.591 578.859 542.443C591.062 521.296 618.087 514.047 639.228 526.256C660.356 538.471 667.598 565.509 655.396 586.663Z" fill="#D1D3D4"/>
<path d="M603.169 532.3C600.995 536.068 602.283 540.888 606.051 543.068C609.825 545.242 614.638 543.948 616.812 540.174C618.986 536.406 617.698 531.586 613.931 529.412C610.163 527.232 605.349 528.519 603.169 532.3Z" fill="white"/>
<path d="M112.8 336.557C103.267 336.557 95.236 339.952 88.7068 346.742C82.1776 353.533 78.9129 361.759 78.9129 371.423C78.9129 381.086 82.1776 389.313 88.7068 396.103C95.236 402.763 103.267 406.093 112.8 406.093C122.332 406.093 130.363 402.763 136.892 396.103C143.422 389.313 146.686 381.086 146.686 371.423C146.686 361.759 143.422 353.533 136.892 346.742C130.363 339.952 122.332 336.557 112.8 336.557ZM112.8 420.979C98.4353 420.979 86.4215 416.278 76.7583 406.876C67.0951 397.344 62.2635 385.526 62.2635 371.423C62.2635 357.32 67.0951 345.567 76.7583 336.165C86.4215 326.632 98.4353 321.866 112.8 321.866C127.164 321.866 139.178 326.632 148.841 336.165C158.504 345.567 163.336 357.32 163.336 371.423C163.336 385.526 158.439 397.278 148.645 406.68C138.851 416.213 126.903 420.979 112.8 420.979ZM216.663 324.216C231.028 324.216 241.54 327.024 248.199 332.639C254.99 338.124 258.385 346.677 258.385 358.299C258.385 369.79 254.99 378.278 248.199 383.763C241.409 389.117 230.962 391.794 216.859 391.794H200.014V420H183.756V324.216H216.663ZM218.622 377.299C227.241 377.299 233.248 375.667 236.643 372.402C240.168 369.137 241.931 363.979 241.931 356.928C241.931 350.399 239.907 345.763 235.859 343.021C231.811 340.278 225.282 338.907 216.272 338.907H200.014V377.299H218.622ZM290.571 348.309C290.571 352.357 292.072 355.296 295.076 357.124C298.079 359.344 304.478 361.629 314.272 363.979C324.588 366.46 332.096 369.856 336.797 374.165C341.629 378.474 344.045 384.677 344.045 392.773C344.045 401.261 340.846 408.117 334.447 413.34C328.179 418.564 319.952 421.175 309.767 421.175C295.011 421.175 281.691 415.952 269.808 405.505L279.993 393.361C289.918 401.849 299.973 406.093 310.158 406.093C315.251 406.093 319.364 404.983 322.499 402.763C325.633 400.412 327.2 397.409 327.2 393.753C327.2 390.096 325.763 387.223 322.89 385.134C320.148 383.045 315.186 381.151 308.004 379.454C295.598 376.581 286.98 373.186 282.148 369.268C276.533 364.959 273.725 358.364 273.725 349.485C273.725 340.866 276.859 334.141 283.127 329.309C289.395 324.347 297.426 321.866 307.22 321.866C320.409 321.866 331.705 325.718 341.107 333.423L332.488 345.567C329.615 342.955 325.763 340.866 320.931 339.299C316.1 337.601 311.334 336.753 306.633 336.753C301.801 336.753 297.883 337.797 294.88 339.887C292.007 341.845 290.571 344.653 290.571 348.309Z" fill="white"/>
<path d="M65.499 489.324C65.499 490.943 66.0997 492.118 67.301 492.849C68.5024 493.737 71.0619 494.652 74.9794 495.592C79.1058 496.584 82.1093 497.942 83.9897 499.666C85.9223 501.39 86.8887 503.871 86.8887 507.109C86.8887 510.504 85.6089 513.247 83.0495 515.336C80.5423 517.425 77.2515 518.47 73.1773 518.47C67.2749 518.47 61.9471 516.381 57.1938 512.202L61.268 507.344C65.2378 510.74 69.2598 512.437 73.334 512.437C75.3711 512.437 77.0165 511.993 78.2701 511.105C79.5237 510.165 80.1505 508.964 80.1505 507.501C80.1505 506.038 79.5759 504.889 78.4268 504.054C77.3299 503.218 75.345 502.46 72.4722 501.781C67.51 500.632 64.0625 499.274 62.1299 497.707C59.8838 495.984 58.7608 493.346 58.7608 489.794C58.7608 486.346 60.0144 483.656 62.5216 481.724C65.0289 479.739 68.2412 478.746 72.1588 478.746C77.4344 478.746 81.9526 480.287 85.7134 483.369L82.266 488.227C81.1168 487.182 79.5759 486.346 77.6433 485.72C75.7107 485.041 73.8041 484.701 71.9237 484.701C69.9911 484.701 68.4241 485.119 67.2227 485.955C66.0735 486.738 65.499 487.861 65.499 489.324ZM107.45 512.986C110.114 512.986 112.308 512.098 114.031 510.322C115.807 508.546 116.695 506.247 116.695 503.427C116.695 500.606 115.807 498.308 114.031 496.532C112.308 494.756 110.114 493.868 107.45 493.868C104.786 493.868 102.592 494.756 100.868 496.532C99.1447 498.308 98.2828 500.606 98.2828 503.427C98.2828 506.247 99.1447 508.52 100.868 510.243C102.592 512.071 104.786 512.986 107.45 512.986ZM107.45 518.47C103.062 518.47 99.4059 517.034 96.4808 514.161C93.5557 511.236 92.0932 507.658 92.0932 503.427C92.0932 499.196 93.5557 495.644 96.4808 492.771C99.4059 489.846 103.062 488.384 107.45 488.384C111.837 488.384 115.494 489.846 118.419 492.771C121.344 495.644 122.807 499.196 122.807 503.427C122.807 507.501 121.344 511.053 118.419 514.082C115.494 517.008 111.837 518.47 107.45 518.47ZM135.862 518H129.751V488.854H135.862V494.103C136.75 492.327 138.082 490.943 139.858 489.951C141.634 488.906 143.541 488.384 145.578 488.384C150.227 488.384 153.361 490.29 154.98 494.103C157.853 490.29 161.457 488.384 165.792 488.384C169.135 488.384 171.799 489.402 173.784 491.439C175.769 493.476 176.761 496.375 176.761 500.136V518H170.65V502.016C170.65 496.636 168.404 493.946 163.912 493.946C161.718 493.946 159.864 494.652 158.349 496.062C156.887 497.42 156.129 499.326 156.077 501.781V518H149.887V502.016C149.887 499.248 149.391 497.211 148.399 495.905C147.406 494.599 145.865 493.946 143.776 493.946C141.53 493.946 139.649 494.678 138.135 496.14C136.62 497.551 135.862 499.562 135.862 502.173V518ZM212.524 506.091H189.646C189.803 508.18 190.769 509.878 192.545 511.184C194.321 512.489 196.384 513.142 198.735 513.142C202.443 513.142 205.212 511.993 207.04 509.695L210.566 513.534C207.432 516.825 203.331 518.47 198.265 518.47C194.086 518.47 190.586 517.086 187.766 514.318C184.945 511.549 183.535 507.893 183.535 503.348C183.535 498.909 184.971 495.304 187.844 492.536C190.717 489.768 194.19 488.384 198.265 488.384C202.339 488.384 205.734 489.611 208.45 492.066C211.166 494.521 212.524 497.786 212.524 501.86V506.091ZM206.413 501.233C206.413 498.882 205.656 497.028 204.141 495.67C202.678 494.312 200.772 493.633 198.421 493.633C196.071 493.633 194.008 494.338 192.232 495.748C190.508 497.159 189.646 498.987 189.646 501.233H206.413ZM226.855 493.79V508.598C226.855 510.008 227.22 511.131 227.952 511.967C228.735 512.751 229.78 513.142 231.086 513.142C232.287 513.142 233.541 512.489 234.847 511.184L237.354 515.571C235.16 517.504 232.783 518.47 230.224 518.47C227.56 518.47 225.314 517.556 223.486 515.728C221.658 513.847 220.743 511.419 220.743 508.441V493.79H217.061V488.854H220.743V479.687H226.855V488.854H234.533V493.79H226.855ZM248.378 518H242.267V477.336H248.378V494.103C249.266 492.327 250.598 490.943 252.374 489.951C254.15 488.906 256.056 488.384 258.094 488.384C261.489 488.384 264.179 489.402 266.164 491.439C268.149 493.476 269.141 496.375 269.141 500.136V518H262.951V502.016C262.951 496.636 260.731 493.946 256.292 493.946C254.045 493.946 252.165 494.678 250.65 496.14C249.135 497.551 248.378 499.562 248.378 502.173V518ZM283.78 518H277.669V488.854H283.78V518ZM276.886 480.235C276.886 479.19 277.251 478.302 277.983 477.571C278.766 476.788 279.706 476.396 280.803 476.396C281.848 476.396 282.736 476.788 283.467 477.571C284.251 478.302 284.642 479.19 284.642 480.235C284.642 481.332 284.251 482.272 283.467 483.056C282.736 483.787 281.848 484.153 280.803 484.153C279.706 484.153 278.792 483.761 278.061 482.977C277.277 482.246 276.886 481.332 276.886 480.235ZM298.847 518H292.736V488.854H298.847V494.103C299.839 492.327 301.197 490.943 302.921 489.951C304.697 488.906 306.577 488.384 308.562 488.384C311.958 488.384 314.648 489.402 316.632 491.439C318.617 493.476 319.61 496.375 319.61 500.136V518H313.42V502.016C313.42 496.636 311.2 493.946 306.76 493.946C304.514 493.946 302.634 494.678 301.119 496.14C299.604 497.551 298.847 499.562 298.847 502.173V518ZM355.09 488.854V514.239C355.09 519.254 353.732 523.093 351.016 525.757C348.3 528.421 344.67 529.753 340.125 529.753C335.842 529.753 331.873 528.368 328.216 525.6L331.115 520.977C334.04 523.119 336.939 524.19 339.812 524.19C346.08 524.19 349.214 521.056 349.214 514.788V511.027C348.326 512.751 347.02 514.135 345.297 515.179C343.573 516.172 341.666 516.668 339.577 516.668C335.712 516.668 332.525 515.336 330.018 512.672C327.563 509.956 326.336 506.587 326.336 502.565C326.336 498.491 327.563 495.122 330.018 492.458C332.525 489.742 335.712 488.384 339.577 488.384C343.442 488.384 346.576 489.977 348.979 493.163V488.854H355.09ZM340.596 511.105C343.051 511.105 345.062 510.269 346.629 508.598C348.196 506.874 348.979 504.759 348.979 502.252C348.979 499.692 348.169 497.577 346.55 495.905C344.983 494.181 342.972 493.32 340.517 493.32C338.062 493.32 336.077 494.208 334.563 495.984C333.1 497.707 332.369 499.797 332.369 502.252C332.369 504.759 333.126 506.874 334.641 508.598C336.156 510.269 338.141 511.105 340.596 511.105ZM73.099 587H66.0474L56.0186 557.854H62.3649L69.5732 579.87L76.8598 557.854H83.2062L90.4144 579.87L97.701 557.854H104.047L93.9402 587H86.8887L79.9938 567.021L73.099 587ZM136.599 575.091H113.72C113.877 577.18 114.843 578.878 116.619 580.184C118.395 581.489 120.458 582.142 122.809 582.142C126.518 582.142 129.286 580.993 131.114 578.695L134.64 582.534C131.506 585.825 127.406 587.47 122.339 587.47C118.16 587.47 114.661 586.086 111.84 583.318C109.019 580.549 107.609 576.893 107.609 572.348C107.609 567.909 109.045 564.304 111.918 561.536C114.791 558.768 118.265 557.384 122.339 557.384C126.413 557.384 129.808 558.611 132.524 561.066C135.241 563.521 136.599 566.786 136.599 570.86V575.091ZM130.487 570.233C130.487 567.882 129.73 566.028 128.215 564.67C126.753 563.312 124.846 562.633 122.496 562.633C120.145 562.633 118.082 563.338 116.306 564.748C114.582 566.159 113.72 567.987 113.72 570.233H130.487ZM149.519 587H143.407V557.854H149.519V563.103C150.511 561.327 151.869 559.943 153.593 558.951C155.369 557.906 157.249 557.384 159.234 557.384C162.629 557.384 165.319 558.402 167.304 560.439C169.289 562.476 170.282 565.375 170.282 569.136V587H164.092V571.016C164.092 565.636 161.872 562.946 157.432 562.946C155.186 562.946 153.306 563.678 151.791 565.14C150.276 566.551 149.519 568.562 149.519 571.173V587ZM186.331 562.79V577.598C186.331 579.008 186.697 580.131 187.428 580.967C188.212 581.751 189.256 582.142 190.562 582.142C191.764 582.142 193.017 581.489 194.323 580.184L196.83 584.571C194.637 586.504 192.26 587.47 189.7 587.47C187.037 587.47 184.79 586.556 182.962 584.728C181.134 582.847 180.22 580.419 180.22 577.441V562.79H176.538V557.854H180.22V548.687H186.331V557.854H194.01V562.79H186.331ZM230.443 587H223.391L213.362 557.854H219.709L226.917 579.87L234.204 557.854H240.55L247.758 579.87L255.045 557.854H261.391L251.284 587H244.232L237.338 567.021L230.443 587ZM272.945 574.464V587H266.833V557.854H272.945V563.652C273.937 561.823 275.269 560.335 276.94 559.186C278.664 558.036 280.466 557.436 282.347 557.384L282.425 563.573H282.112C279.134 563.573 276.862 564.54 275.295 566.472C273.728 568.405 272.945 571.069 272.945 574.464ZM301.977 581.986C304.641 581.986 306.835 581.098 308.559 579.322C310.335 577.546 311.223 575.247 311.223 572.427C311.223 569.606 310.335 567.308 308.559 565.532C306.835 563.756 304.641 562.868 301.977 562.868C299.313 562.868 297.119 563.756 295.396 565.532C293.672 567.308 292.81 569.606 292.81 572.427C292.81 575.247 293.672 577.52 295.396 579.243C297.119 581.071 299.313 581.986 301.977 581.986ZM301.977 587.47C297.59 587.47 293.933 586.034 291.008 583.161C288.083 580.236 286.62 576.658 286.62 572.427C286.62 568.196 288.083 564.644 291.008 561.771C293.933 558.846 297.59 557.384 301.977 557.384C306.365 557.384 310.021 558.846 312.946 561.771C315.871 564.644 317.334 568.196 317.334 572.427C317.334 576.501 315.871 580.053 312.946 583.082C310.021 586.008 306.365 587.47 301.977 587.47ZM330.39 587H324.278V557.854H330.39V563.103C331.382 561.327 332.74 559.943 334.464 558.951C336.24 557.906 338.12 557.384 340.105 557.384C343.5 557.384 346.191 558.402 348.175 560.439C350.16 562.476 351.153 565.375 351.153 569.136V587H344.963V571.016C344.963 565.636 342.743 562.946 338.303 562.946C336.057 562.946 334.177 563.678 332.662 565.14C331.147 566.551 330.39 568.562 330.39 571.173V587ZM386.633 557.854V583.239C386.633 588.254 385.275 592.093 382.559 594.757C379.843 597.421 376.213 598.753 371.668 598.753C367.385 598.753 363.416 597.368 359.759 594.6L362.658 589.977C365.583 592.119 368.482 593.19 371.355 593.19C377.623 593.19 380.757 590.056 380.757 583.788V580.027C379.869 581.751 378.563 583.135 376.84 584.179C375.116 585.172 373.209 585.668 371.12 585.668C367.255 585.668 364.068 584.336 361.561 581.672C359.106 578.956 357.879 575.587 357.879 571.565C357.879 567.491 359.106 564.122 361.561 561.458C364.068 558.742 367.255 557.384 371.12 557.384C374.985 557.384 378.119 558.977 380.522 562.163V557.854H386.633ZM372.139 580.105C374.594 580.105 376.605 579.269 378.172 577.598C379.739 575.874 380.522 573.759 380.522 571.252C380.522 568.692 379.712 566.577 378.093 564.905C376.526 563.181 374.515 562.32 372.06 562.32C369.605 562.32 367.62 563.208 366.106 564.984C364.643 566.707 363.912 568.797 363.912 571.252C363.912 573.759 364.669 575.874 366.184 577.598C367.699 579.269 369.684 580.105 372.139 580.105ZM395.372 547.746H403.05V554.798L401.405 574.621H397.017L395.372 554.798V547.746ZM395.137 583.318C395.137 582.221 395.528 581.28 396.312 580.497C397.148 579.661 398.114 579.243 399.211 579.243C400.308 579.243 401.248 579.661 402.032 580.497C402.867 581.28 403.285 582.221 403.285 583.318C403.285 584.467 402.867 585.459 402.032 586.295C401.248 587.078 400.308 587.47 399.211 587.47C398.114 587.47 397.148 587.078 396.312 586.295C395.528 585.459 395.137 584.467 395.137 583.318Z" fill="white"/>
</svg>
