<svg xmlns="http://www.w3.org/2000/svg" xmlns:xlink="http://www.w3.org/1999/xlink" width="1080" zoomAndPan="magnify" viewBox="0 0 810 809.999993" height="1080" preserveAspectRatio="xMidYMid meet" version="1.0"><path fill="#d8b4fe" d="M 771.253906 310.984375 C 737.144531 137.746094 564.929688 33.046875 420.398438 19.691406 C 300.65625 8.625 155.511719 38.804688 88.4375 149.84375 C 47.339844 217.882812 98.039062 247.839844 69.605469 398.421875 C 44.996094 528.753906 0.140625 575.710938 27.445312 642.136719 C 49.765625 696.445312 100.554688 720.246094 133.898438 736.664062 C 265.320312 801.375 507.382812 796.238281 651.117188 678.191406 C 684.753906 650.566406 809.832031 506.945312 771.253906 310.984375 " fill-opacity="1" fill-rule="nonzero"/><path fill="#ffffff" d="M 317.679688 184.285156 C 337.292969 150.402344 380.660156 138.832031 414.542969 158.445312 C 448.429688 178.054688 460.003906 221.425781 440.386719 255.304688 C 420.777344 289.1875 377.40625 300.757812 343.523438 281.148438 C 309.640625 261.539062 298.066406 218.171875 317.679688 184.285156 Z M 270.921875 180.78125 C 268.714844 186.867188 267.03125 193.058594 265.90625 199.296875 L 236.59375 205.875 L 236.566406 233.414062 L 265.902344 240.066406 C 267.035156 246.359375 268.6875 252.554688 270.84375 258.578125 L 248.714844 278.957031 L 262.457031 302.820312 L 291.152344 293.925781 C 295.238281 298.769531 299.777344 303.300781 304.726562 307.480469 L 295.757812 336.191406 L 319.589844 349.984375 L 340.015625 327.902344 C 346.109375 330.109375 352.296875 331.792969 358.53125 332.925781 L 365.113281 362.234375 L 392.652344 362.257812 L 399.304688 332.925781 C 405.597656 331.792969 411.792969 330.140625 417.816406 327.980469 L 438.195312 350.113281 L 462.066406 336.367188 L 453.164062 307.675781 C 458.011719 303.59375 462.539062 299.046875 466.726562 294.101562 L 495.433594 303.074219 L 509.226562 279.238281 L 487.152344 258.816406 C 489.351562 252.722656 491.035156 246.535156 492.167969 240.296875 L 521.476562 233.714844 L 521.507812 206.179688 L 492.167969 199.53125 C 491.035156 193.234375 489.382812 187.042969 487.226562 181.019531 L 509.355469 160.632812 L 495.609375 136.773438 L 466.914062 145.667969 C 462.835938 140.824219 458.289062 136.292969 453.339844 132.113281 L 462.3125 103.40625 L 438.476562 89.609375 L 418.054688 111.6875 C 411.960938 109.480469 405.773438 107.800781 399.535156 106.675781 L 392.957031 77.363281 L 365.417969 77.332031 L 358.765625 106.675781 C 352.46875 107.800781 346.28125 109.453125 340.253906 111.613281 L 319.871094 89.488281 L 296.007812 103.226562 L 304.902344 131.917969 C 300.058594 136.003906 295.527344 140.542969 291.34375 145.492188 L 262.636719 136.527344 L 248.84375 160.355469 L 270.921875 180.78125 " fill-opacity="1" fill-rule="nonzero"/><path fill="#a855f7" d="M 519.167969 746.3125 L 365.601562 746.3125 L 286.34375 607.589844 L 286.34375 728.753906 C 286.34375 747.703125 300.164062 762.859375 316.917969 762.859375 L 519.167969 762.859375 C 522.429688 762.859375 525.355469 760.582031 525.355469 757.316406 L 525.355469 751.890625 C 525.355469 748.628906 522.429688 746.3125 519.167969 746.3125 " fill-opacity="1" fill-rule="nonzero"/><path fill="#ffffff" d="M 308.867188 651.175781 L 308.867188 719.882812 C 308.867188 733.8125 319.90625 744.9375 333.835938 744.9375 L 466.066406 744.9375 L 466.066406 651.175781 L 308.867188 651.175781 " fill-opacity="1" fill-rule="nonzero"/><path fill="#000000" d="M 310.246094 652.550781 L 310.246094 719.882812 C 310.246094 733.160156 320.605469 743.554688 333.835938 743.554688 L 464.683594 743.554688 L 464.683594 652.550781 Z M 467.441406 746.3125 L 333.835938 746.3125 C 319.0625 746.3125 307.488281 734.707031 307.488281 719.882812 L 307.488281 649.796875 L 467.441406 649.796875 L 467.441406 746.3125 " fill-opacity="1" fill-rule="nonzero"/><path fill="#a855f7" d="M 724.941406 657.511719 L 80.21875 658.921875 C 74.582031 658.921875 69.824219 654.722656 69.105469 649.121094 L 17.75 247.789062 C 16.5 238.023438 23.617188 228.800781 33.445312 228.800781 L 669.828125 229.382812 L 724.941406 657.511719 " fill-opacity="1" fill-rule="nonzero"/><path fill="#ffffff" d="M 738.15625 657 L 106.308594 657 C 100.675781 657 95.921875 652.796875 95.199219 647.175781 L 44.167969 249.449219 C 42.75 238.402344 51.304688 228.617188 62.382812 228.617188 L 686.082031 228.617188 C 691.714844 228.617188 696.46875 232.824219 697.191406 238.441406 L 749.265625 644.292969 C 750.132812 651.03125 744.910156 657 738.15625 657 " fill-opacity="1" fill-rule="nonzero"/><path fill="#000000" d="M 62.382812 229.992188 C 57.523438 229.992188 52.886719 232.09375 49.664062 235.753906 C 46.410156 239.449219 44.90625 244.378906 45.535156 249.273438 L 96.566406 647.003906 C 97.199219 651.917969 101.386719 655.621094 106.308594 655.621094 L 738.160156 655.621094 C 740.96875 655.621094 743.648438 654.40625 745.511719 652.292969 C 747.394531 650.152344 748.265625 647.300781 747.902344 644.472656 L 695.824219 238.617188 C 695.191406 233.699219 691 229.992188 686.085938 229.992188 Z M 738.160156 658.378906 L 106.308594 658.378906 C 100.003906 658.378906 94.636719 653.636719 93.832031 647.351562 L 42.800781 249.625 C 42.070312 243.945312 43.816406 238.226562 47.59375 233.933594 C 51.339844 229.675781 56.730469 227.238281 62.382812 227.238281 L 686.085938 227.238281 C 692.386719 227.238281 697.753906 231.976562 698.554688 238.261719 L 750.636719 644.117188 C 751.101562 647.738281 749.988281 651.378906 747.578125 654.113281 C 745.195312 656.824219 741.757812 658.378906 738.160156 658.378906 " fill-opacity="1" fill-rule="nonzero"/><path fill="#d8b4fe" d="M 93.847656 190.5625 L 647.222656 190.5625 C 659.433594 190.5625 670.546875 200.5 672.042969 212.753906 L 718.722656 595.5 C 720.234375 607.886719 711.5 617.929688 699.21875 617.929688 L 142.730469 617.929688 C 130.449219 617.929688 119.347656 607.886719 117.933594 595.5 L 74.261719 212.753906 C 72.863281 200.5 81.632812 190.5625 93.847656 190.5625 " fill-opacity="1" fill-rule="nonzero"/><path fill="#a855f7" d="M 673.796875 226.304688 L 672.75 212.550781 C 671.273438 200.40625 659.773438 190.734375 647.550781 190.734375 L 94.175781 190.734375 C 81.960938 190.734375 73.066406 200.40625 74.453125 212.550781 L 75.75 229.484375 L 673.796875 226.304688 " fill-opacity="1" fill-rule="nonzero"/><path fill="#d8b4fe" d="M 109.285156 213.125 C 109.738281 217.078125 106.90625 220.277344 102.957031 220.277344 C 99.011719 220.277344 95.445312 217.078125 94.996094 213.125 C 94.542969 209.183594 97.378906 205.984375 101.324219 205.984375 C 105.269531 205.984375 108.832031 209.183594 109.285156 213.125 " fill-opacity="1" fill-rule="nonzero"/><path fill="#d8b4fe" d="M 132.097656 212.644531 C 132.550781 216.59375 129.71875 219.796875 125.773438 219.796875 C 121.828125 219.796875 118.261719 216.59375 117.808594 212.644531 C 117.355469 208.699219 120.1875 205.5 124.132812 205.5 C 128.078125 205.5 131.644531 208.699219 132.097656 212.644531 " fill-opacity="1" fill-rule="nonzero"/><path fill="#d8b4fe" d="M 156.980469 213.601562 C 157.433594 217.546875 154.601562 220.75 150.65625 220.75 C 146.707031 220.75 143.140625 217.546875 142.6875 213.601562 C 142.234375 209.652344 145.0625 206.457031 149.011719 206.457031 C 152.957031 206.457031 156.523438 209.652344 156.980469 213.601562 " fill-opacity="1" fill-rule="nonzero"/><path fill="#ffffff" d="M 200.667969 440.691406 L 253.5 440.691406 L 243.691406 356.203125 L 241.714844 360.644531 Z M 287.195312 440.691406 L 312.296875 440.691406 L 315.46875 467.832031 L 290.359375 467.832031 L 295.621094 512.964844 L 261.890625 512.964844 L 256.652344 467.832031 L 169.398438 467.832031 L 166.058594 447.234375 L 237.285156 310.558594 L 272.03125 310.558594 L 287.195312 440.691406 " fill-opacity="1" fill-rule="nonzero"/><path fill="#ffffff" d="M 426.496094 389.808594 C 424.25 370.828125 420.011719 356.921875 413.796875 348.082031 C 407.582031 339.25 398.839844 334.832031 387.578125 334.832031 C 376.59375 334.832031 369.007812 339.015625 364.824219 347.386719 C 360.636719 355.761719 359.453125 368.832031 361.269531 386.617188 L 366.660156 432.484375 C 368.882812 451.402344 373.179688 465.511719 379.542969 474.789062 C 385.910156 484.078125 394.734375 488.71875 406.023438 488.71875 C 416.84375 488.71875 424.335938 484.425781 428.5 475.835938 C 432.664062 467.253906 433.800781 453.816406 431.914062 435.546875 Z M 464.664062 427.613281 C 468.132812 456.746094 465.304688 478.710938 456.195312 493.527344 C 447.082031 508.34375 431.417969 515.753906 409.210938 515.753906 C 387.371094 515.753906 370.074219 508.527344 357.324219 494.082031 C 344.570312 479.644531 336.40625 458.273438 332.8125 429.984375 L 328.710938 394.949219 C 325.300781 365.875 328.167969 344.082031 337.316406 329.558594 C 346.457031 315.042969 362.144531 307.789062 384.386719 307.789062 C 406.441406 307.789062 423.730469 314.855469 436.253906 329.007812 C 448.78125 343.15625 456.863281 364.347656 460.5 392.585938 L 464.664062 427.613281 " fill-opacity="1" fill-rule="nonzero"/><path fill="#ffffff" d="M 523.488281 440.695312 L 576.320312 440.695312 L 566.148438 356.203125 L 564.195312 360.644531 Z M 610.019531 440.695312 L 635.117188 440.695312 L 638.402344 467.832031 L 613.296875 467.832031 L 618.75 512.964844 L 585.019531 512.964844 L 579.585938 467.832031 L 492.335938 467.832031 L 488.90625 447.234375 L 559.554688 310.5625 L 594.304688 310.5625 L 610.019531 440.695312 " fill-opacity="1" fill-rule="nonzero"/><path fill="#8c00ff" d="M 209.390625 431.785156 L 258.417969 431.785156 L 249.367188 353.820312 Z M 259.96875 434.546875 L 207.136719 434.546875 C 206.65625 434.546875 206.207031 434.296875 205.957031 433.886719 C 205.707031 433.476562 205.6875 432.964844 205.90625 432.539062 L 246.953125 352.492188 L 248.898438 348.117188 C 249.152344 347.546875 249.75 347.21875 250.367188 347.3125 C 250.980469 347.40625 251.457031 347.898438 251.527344 348.519531 L 261.339844 433.007812 C 261.382812 433.398438 261.261719 433.789062 261 434.085938 C 260.738281 434.378906 260.363281 434.546875 259.96875 434.546875 Z M 269.585938 504.058594 L 300.539062 504.058594 L 295.457031 460.464844 C 295.410156 460.078125 295.535156 459.683594 295.796875 459.390625 C 296.058594 459.097656 296.433594 458.925781 296.828125 458.925781 L 320.386719 458.925781 L 317.535156 434.546875 L 293.664062 434.546875 C 292.964844 434.546875 292.378906 434.023438 292.296875 433.328125 L 277.269531 304.414062 L 244.589844 304.414062 L 173.960938 439.941406 L 177.039062 458.925781 L 263.117188 458.925781 C 263.820312 458.925781 264.410156 459.453125 264.488281 460.148438 Z M 302.089844 506.820312 L 268.359375 506.820312 C 267.660156 506.820312 267.070312 506.296875 266.992188 505.597656 L 261.890625 461.683594 L 175.863281 461.683594 C 175.191406 461.683594 174.613281 461.195312 174.503906 460.523438 L 171.164062 439.925781 C 171.117188 439.632812 171.164062 439.332031 171.304688 439.066406 L 242.53125 302.398438 C 242.765625 301.941406 243.238281 301.65625 243.753906 301.65625 L 278.496094 301.65625 C 279.199219 301.65625 279.785156 302.179688 279.867188 302.875 L 294.890625 431.785156 L 318.765625 431.785156 C 319.464844 431.785156 320.050781 432.3125 320.132812 433.007812 L 323.308594 460.148438 C 323.351562 460.539062 323.226562 460.929688 322.964844 461.222656 C 322.703125 461.519531 322.328125 461.683594 321.9375 461.683594 L 298.378906 461.683594 L 303.460938 505.277344 C 303.503906 505.671875 303.382812 506.0625 303.117188 506.355469 C 302.859375 506.648438 302.484375 506.820312 302.089844 506.820312 " fill-opacity="1" fill-rule="nonzero"/><path fill="#8c00ff" d="M 394.046875 328.6875 C 383.53125 328.6875 376.492188 332.542969 372.527344 340.476562 C 368.476562 348.578125 367.328125 361.519531 369.105469 378.949219 L 374.5 424.796875 C 376.6875 443.414062 380.945312 457.4375 387.148438 466.488281 C 393.296875 475.453125 401.589844 479.8125 412.488281 479.8125 C 422.832031 479.8125 429.777344 475.855469 433.726562 467.710938 C 437.757812 459.398438 438.863281 446.09375 437.011719 428.164062 L 431.59375 382.445312 C 429.382812 363.785156 425.191406 349.957031 419.136719 341.351562 C 413.136719 332.828125 404.929688 328.6875 394.046875 328.6875 Z M 412.488281 482.574219 C 400.773438 482.574219 391.480469 477.6875 384.875 468.046875 C 378.414062 458.625 374 444.183594 371.761719 425.121094 L 366.367188 379.246094 C 364.53125 361.269531 365.773438 347.820312 370.054688 339.246094 C 374.476562 330.40625 382.546875 325.925781 394.046875 325.925781 C 405.730469 325.925781 414.929688 330.582031 421.394531 339.765625 C 427.714844 348.746094 432.070312 363 434.332031 382.121094 L 439.75 427.859375 C 441.660156 446.328125 440.46875 460.136719 436.207031 468.914062 C 431.816406 477.976562 423.832031 482.574219 412.488281 482.574219 Z M 390.855469 301.640625 C 369.226562 301.640625 353.777344 308.75 344.953125 322.769531 C 336.019531 336.949219 333.191406 358.648438 336.546875 387.261719 L 340.652344 422.296875 C 344.1875 450.171875 352.324219 471.492188 364.824219 485.644531 C 377.242188 499.714844 394.351562 506.847656 415.679688 506.847656 C 437.273438 506.847656 452.683594 499.589844 461.492188 485.277344 C 470.390625 470.808594 473.175781 448.933594 469.765625 420.253906 L 465.597656 385.226562 C 462.019531 357.414062 453.976562 336.269531 441.6875 322.394531 C 429.5 308.625 412.398438 301.640625 390.855469 301.640625 Z M 415.679688 509.609375 C 393.527344 509.609375 375.71875 502.15625 362.753906 487.46875 C 349.886719 472.890625 341.523438 451.078125 337.914062 422.632812 L 333.804688 387.585938 C 330.378906 358.328125 333.34375 336.027344 342.617188 321.296875 C 351.984375 306.425781 368.214844 298.882812 390.855469 298.882812 C 413.21875 298.882812 431.015625 306.175781 443.753906 320.566406 C 456.410156 334.863281 464.683594 356.503906 468.332031 384.886719 L 472.503906 419.925781 C 475.988281 449.238281 473.070312 471.710938 463.835938 486.722656 C 454.5 501.90625 438.296875 509.609375 415.679688 509.609375 " fill-opacity="1" fill-rule="nonzero"/><path fill="#8c00ff" d="M 582.792969 434.546875 L 529.960938 434.546875 C 529.476562 434.546875 529.035156 434.296875 528.78125 433.890625 C 528.535156 433.476562 528.511719 432.972656 528.726562 432.546875 L 569.4375 352.496094 L 571.359375 348.121094 C 571.609375 347.550781 572.210938 347.214844 572.828125 347.3125 C 573.441406 347.40625 573.917969 347.894531 573.992188 348.511719 L 580.3125 400.996094 C 580.398438 401.753906 579.863281 402.441406 579.105469 402.527344 C 578.339844 402.628906 577.660156 402.085938 577.574219 401.332031 L 571.855469 353.820312 L 532.207031 431.789062 L 581.238281 431.789062 L 580.113281 422.496094 C 580.027344 421.742188 580.566406 421.050781 581.320312 420.964844 C 582.089844 420.863281 582.761719 421.410156 582.855469 422.164062 L 584.160156 433.003906 C 584.207031 433.394531 584.082031 433.785156 583.820312 434.082031 C 583.558594 434.378906 583.1875 434.546875 582.792969 434.546875 Z M 625.214844 506.820312 L 591.488281 506.820312 C 590.792969 506.820312 590.207031 506.296875 590.121094 505.605469 L 584.828125 461.683594 L 498.804688 461.683594 C 498.128906 461.683594 497.554688 461.199219 497.441406 460.535156 L 494.019531 439.929688 C 493.96875 439.640625 494.015625 439.339844 494.152344 439.078125 L 564.800781 302.402344 C 565.035156 301.945312 565.511719 301.65625 566.023438 301.65625 L 600.769531 301.65625 C 601.464844 301.65625 602.054688 302.171875 602.140625 302.871094 L 606.40625 338.160156 C 606.492188 338.914062 605.957031 339.605469 605.199219 339.695312 C 604.4375 339.78125 603.753906 339.25 603.660156 338.492188 L 599.546875 304.417969 L 566.863281 304.417969 L 496.808594 439.929688 L 499.972656 458.925781 L 586.058594 458.925781 C 586.753906 458.925781 587.34375 459.449219 587.425781 460.140625 L 592.710938 504.0625 L 623.660156 504.0625 L 619.308594 467.996094 C 619.214844 467.242188 619.757812 466.550781 620.507812 466.460938 C 621.261719 466.371094 621.953125 466.910156 622.046875 467.664062 L 626.585938 505.277344 C 626.632812 505.664062 626.511719 506.058594 626.25 506.355469 C 625.988281 506.648438 625.609375 506.820312 625.214844 506.820312 " fill-opacity="1" fill-rule="nonzero"/><path fill="#8c00ff" d="M 602.140625 619.308594 L 142.9375 619.308594 C 129.992188 619.308594 118.253906 608.695312 116.765625 595.65625 L 73.097656 212.910156 C 72.367188 206.546875 74.179688 200.5625 78.191406 196.066406 C 82.152344 191.625 87.785156 189.179688 94.050781 189.179688 L 647.429688 189.179688 C 660.292969 189.179688 672.042969 199.683594 673.613281 212.585938 L 688.796875 337.050781 C 688.886719 337.808594 688.347656 338.492188 687.59375 338.585938 C 686.839844 338.671875 686.152344 338.140625 686.054688 337.378906 L 670.875 212.921875 C 669.46875 201.355469 658.945312 191.945312 647.429688 191.945312 L 94.050781 191.945312 C 88.582031 191.945312 83.679688 194.0625 80.25 197.902344 C 76.769531 201.804688 75.199219 207.023438 75.835938 212.597656 L 119.507812 595.339844 C 120.839844 607.035156 131.351562 616.546875 142.9375 616.546875 L 602.140625 616.546875 C 602.902344 616.546875 603.523438 617.167969 603.523438 617.929688 C 603.523438 618.6875 602.902344 619.308594 602.140625 619.308594 " fill-opacity="1" fill-rule="nonzero"/><path fill="#000000" d="M 518.207031 763.78125 L 324.035156 763.78125 C 323.273438 763.78125 322.65625 763.164062 322.65625 762.398438 C 322.65625 761.640625 323.273438 761.019531 324.035156 761.019531 L 518.207031 761.019531 C 520.671875 761.019531 522.601562 759.007812 522.601562 756.4375 L 522.601562 751.011719 C 522.601562 748.421875 520.632812 746.3125 518.207031 746.3125 L 461.925781 746.3125 C 461.164062 746.3125 460.546875 745.695312 460.546875 744.9375 C 460.546875 744.175781 461.164062 743.554688 461.925781 743.554688 L 518.207031 743.554688 C 522.152344 743.554688 525.355469 746.898438 525.355469 751.011719 L 525.355469 756.4375 C 525.355469 760.484375 522.152344 763.78125 518.207031 763.78125 " fill-opacity="1" fill-rule="nonzero"/><path fill="#a855f7" d="M 261.058594 749.074219 L 93.726562 749.074219 L 109.5625 717.90625 L 123.363281 690.761719 L 138.785156 660.433594 L 152.578125 633.304688 L 170.523438 598.035156 C 171.835938 595.453125 174.488281 593.832031 177.390625 593.832031 C 180.292969 593.832031 182.945312 595.449219 184.261719 598.035156 L 202.203125 633.300781 L 216 660.425781 L 231.421875 690.746094 L 245.222656 717.90625 L 261.058594 749.074219 " fill-opacity="1" fill-rule="nonzero"/><path fill="#8c00ff" d="M 216 660.824219 L 138.785156 660.824219 L 152.578125 633.25 L 202.203125 633.25 L 216 660.824219 " fill-opacity="1" fill-rule="nonzero"/><path fill="#8c00ff" d="M 245.222656 717.816406 L 109.5625 717.816406 L 123.363281 691.164062 L 231.421875 691.164062 L 245.222656 717.816406 " fill-opacity="1" fill-rule="nonzero"/><path fill="#000000" d="M 95.136719 748.152344 L 257.992188 748.152344 L 229.363281 691.371094 L 182.203125 598.664062 C 181.121094 596.535156 178.960938 595.214844 176.566406 595.214844 C 174.171875 595.214844 172.011719 596.542969 170.925781 598.675781 L 139.1875 661.113281 L 123.765625 691.5 L 109.964844 718.757812 Z M 260.230469 750.910156 L 92.898438 750.910156 C 92.421875 750.910156 91.976562 750.660156 91.722656 750.253906 C 91.472656 749.847656 91.453125 749.339844 91.667969 748.910156 L 107.503906 717.515625 L 121.304688 690.253906 L 150.523438 632.707031 L 168.46875 597.425781 C 170.023438 594.363281 173.128906 592.457031 176.566406 592.457031 C 180.007812 592.457031 183.109375 594.359375 184.660156 597.414062 L 231.824219 690.125 L 261.464844 748.910156 C 261.679688 749.339844 261.65625 749.847656 261.40625 750.253906 C 261.15625 750.660156 260.710938 750.910156 260.230469 750.910156 " fill-opacity="1" fill-rule="nonzero"/><path fill="#8c00ff" d="M 276.570312 749.652344 C 276.570312 746.554688 274.0625 744.046875 270.96875 744.046875 L 82.988281 744.046875 C 79.894531 744.046875 77.382812 746.554688 77.382812 749.652344 L 77.382812 767.371094 C 77.382812 770.460938 79.894531 772.972656 82.988281 772.972656 L 270.96875 772.972656 C 274.0625 772.972656 276.570312 770.460938 276.570312 767.371094 L 276.570312 749.652344 " fill-opacity="1" fill-rule="nonzero"/><path fill="#000000" d="M 82.988281 745.425781 C 80.660156 745.425781 78.765625 747.320312 78.765625 749.652344 L 78.765625 767.363281 C 78.765625 769.699219 80.660156 771.59375 82.988281 771.59375 L 270.96875 771.59375 C 273.296875 771.59375 275.191406 769.699219 275.191406 767.363281 L 275.191406 749.652344 C 275.191406 747.320312 273.296875 745.425781 270.96875 745.425781 Z M 270.96875 774.351562 L 82.988281 774.351562 C 79.140625 774.351562 76.007812 771.21875 76.007812 767.363281 L 76.007812 749.652344 C 76.007812 745.800781 79.140625 742.667969 82.988281 742.667969 L 270.96875 742.667969 C 274.816406 742.667969 277.949219 745.800781 277.949219 749.652344 L 277.949219 767.363281 C 277.949219 771.21875 274.816406 774.351562 270.96875 774.351562 " fill-opacity="1" fill-rule="nonzero"/><path fill="#8c00ff" d="M 727.046875 411.628906 C 748.804688 417.746094 776.804688 441.292969 776.804688 484.019531 C 776.804688 514.796875 731.464844 540.867188 731.464844 540.867188 L 723.992188 522.511719 C 723.992188 522.511719 748.980469 504.007812 747.78125 482.40625 C 746.820312 465.082031 718.890625 459.703125 718.890625 459.703125 L 727.046875 411.628906 " fill-opacity="1" fill-rule="nonzero"/><path fill="#8c00ff" d="M 717.871094 762.734375 L 702.238281 762.734375 L 702.238281 744.378906 L 717.871094 744.378906 L 717.871094 762.734375 " fill-opacity="1" fill-rule="nonzero"/><path fill="#8c00ff" d="M 676.261719 759.332031 L 661.050781 762.921875 L 656.828125 745.0625 L 672.050781 741.46875 L 676.261719 759.332031 " fill-opacity="1" fill-rule="nonzero"/><path fill="#000000" d="M 730.789062 516.652344 C 730.789062 516.652344 735.453125 553.566406 731.871094 567.898438 C 728.292969 582.230469 719.90625 714.667969 719.90625 750.5 L 698.835938 750.5 L 689.316406 581.230469 L 659.910156 642.648438 C 657.777344 647.628906 657.230469 653.152344 658.359375 658.453125 L 675.722656 750.5 L 656.003906 751.855469 L 623.046875 650.792969 C 621.574219 645.78125 621.464844 640.464844 622.730469 635.402344 L 649.457031 528.488281 L 730.789062 516.652344 " fill-opacity="1" fill-rule="nonzero"/><path fill="#ffffff" d="M 690.339844 578.875 C 690.035156 578.875 689.734375 578.777344 689.472656 578.574219 C 688.878906 578.09375 688.78125 577.226562 689.261719 576.632812 L 700.132812 563.039062 C 700.613281 562.445312 701.476562 562.347656 702.074219 562.824219 C 702.667969 563.296875 702.765625 564.167969 702.285156 564.761719 L 691.414062 578.355469 C 691.136719 578.699219 690.738281 578.875 690.339844 578.875 " fill-opacity="1" fill-rule="nonzero"/><path fill="#ffffff" d="M 718.894531 758.65625 L 700.535156 758.65625 L 697.816406 772.507812 C 697.292969 775.179688 699.21875 777.691406 701.804688 777.691406 L 717.625 777.691406 C 720.203125 777.691406 722.136719 775.179688 721.613281 772.507812 L 718.894531 758.65625 " fill-opacity="1" fill-rule="nonzero"/><path fill="#000000" d="M 701.667969 760.035156 L 699.164062 772.773438 C 698.984375 773.699219 699.210938 774.628906 699.792969 775.335938 C 700.308594 775.964844 701.023438 776.3125 701.800781 776.3125 L 717.621094 776.3125 C 718.398438 776.3125 719.113281 775.964844 719.628906 775.335938 C 720.210938 774.628906 720.4375 773.699219 720.257812 772.773438 L 717.753906 760.035156 Z M 717.621094 779.066406 L 701.800781 779.066406 C 700.207031 779.066406 698.699219 778.347656 697.664062 777.085938 C 696.558594 775.742188 696.121094 773.976562 696.457031 772.246094 L 699.179688 758.390625 C 699.308594 757.746094 699.875 757.277344 700.53125 757.277344 L 718.890625 757.277344 C 719.546875 757.277344 720.117188 757.746094 720.242188 758.390625 L 722.960938 772.246094 C 723.304688 773.976562 722.867188 775.742188 721.757812 777.085938 C 720.722656 778.347656 719.214844 779.066406 717.621094 779.066406 " fill-opacity="1" fill-rule="nonzero"/><path fill="#000000" d="M 718.890625 774.648438 L 699.851562 774.648438 C 699.09375 774.648438 698.472656 774.035156 698.472656 773.269531 C 698.472656 772.511719 699.09375 771.890625 699.851562 771.890625 L 718.890625 771.890625 C 719.648438 771.890625 720.265625 772.511719 720.265625 773.269531 C 720.265625 774.035156 719.648438 774.648438 718.890625 774.648438 " fill-opacity="1" fill-rule="nonzero"/><path fill="#ffffff" d="M 676.738281 754.574219 L 681.769531 771.257812 C 682.640625 774.160156 680.871094 777.230469 678.273438 777.316406 L 643.742188 778.484375 C 641.605469 778.558594 640.753906 775.25 642.558594 773.894531 C 648.175781 769.671875 655.652344 763.804688 657.703125 761.023438 C 662.46875 754.574219 667.226562 760.21875 667.226562 760.21875 C 667.226562 760.21875 670.621094 754.574219 676.738281 754.574219 " fill-opacity="1" fill-rule="nonzero"/><path fill="#000000" d="M 662.667969 759.3125 C 662.628906 759.3125 662.59375 759.3125 662.554688 759.3125 C 661.277344 759.363281 660.023438 760.214844 658.816406 761.84375 C 657.105469 764.164062 651.910156 768.585938 643.390625 774.992188 C 642.910156 775.351562 642.878906 776.03125 643.050781 776.511719 C 643.113281 776.695312 643.300781 777.109375 643.679688 777.109375 C 643.6875 777.109375 643.691406 777.109375 643.695312 777.109375 L 678.226562 775.9375 C 679.121094 775.910156 679.695312 775.289062 679.960938 774.925781 C 680.597656 774.03125 680.785156 772.773438 680.449219 771.660156 L 675.734375 756.015625 C 671.109375 756.582031 668.433594 760.886719 668.40625 760.933594 C 668.171875 761.3125 667.777344 761.554688 667.328125 761.589844 C 666.886719 761.621094 666.457031 761.445312 666.171875 761.109375 C 666.15625 761.09375 664.601562 759.3125 662.667969 759.3125 Z M 643.675781 779.863281 C 642.234375 779.863281 640.976562 778.921875 640.449219 777.429688 C 639.835938 775.691406 640.355469 773.828125 641.730469 772.792969 C 649.808594 766.71875 655.089844 762.25 656.59375 760.207031 C 658.335938 757.851562 660.3125 756.628906 662.480469 756.558594 C 664.40625 756.464844 665.988281 757.382812 667.023438 758.164062 C 668.550781 756.3125 671.847656 753.195312 676.742188 753.195312 C 677.347656 753.195312 677.886719 753.59375 678.066406 754.179688 L 683.085938 770.859375 C 683.679688 772.8125 683.347656 774.933594 682.199219 776.53125 C 681.25 777.855469 679.832031 778.644531 678.320312 778.695312 L 643.792969 779.863281 C 643.75 779.863281 643.71875 779.863281 643.675781 779.863281 " fill-opacity="1" fill-rule="nonzero"/><path fill="#ffffff" d="M 647.511719 773.269531 L 678.78125 771.910156 L 647.511719 773.269531 " fill-opacity="1" fill-rule="nonzero"/><path fill="#000000" d="M 647.507812 774.648438 C 646.777344 774.648438 646.160156 774.070312 646.132812 773.332031 C 646.097656 772.570312 646.6875 771.929688 647.449219 771.894531 L 678.71875 770.53125 C 679.5 770.488281 680.125 771.089844 680.15625 771.851562 C 680.191406 772.613281 679.601562 773.257812 678.835938 773.292969 L 647.566406 774.648438 C 647.546875 774.648438 647.527344 774.648438 647.507812 774.648438 " fill-opacity="1" fill-rule="nonzero"/><path fill="#ffffff" d="M 695.097656 402.113281 L 712.09375 413.667969 L 665.292969 411.429688 L 678.777344 402.792969 L 680.597656 394.429688 C 678.203125 394.070312 674.910156 393.835938 673.863281 392.527344 C 672.011719 390.222656 672.847656 382.246094 672.847656 382.246094 L 670.820312 380.65625 C 670.601562 380.542969 670.445312 380.351562 670.378906 380.121094 C 670.316406 379.886719 670.359375 379.632812 670.480469 379.429688 C 672.203125 376.6875 673.828125 375.800781 674.589844 373.007812 C 675.339844 370.246094 675.007812 370.667969 677.976562 364.722656 L 695.777344 364.695312 L 695.875 378.035156 C 695.875 378.035156 698.609375 376.277344 700.335938 378.660156 C 701.59375 380.390625 698.808594 386.1875 696.550781 386.1875 L 695.097656 402.113281 " fill-opacity="1" fill-rule="nonzero"/><path fill="#000000" d="M 669.675781 410.257812 L 707.273438 412.058594 L 694.316406 403.25 C 693.910156 402.96875 693.679688 402.488281 693.726562 401.984375 L 695.179688 386.0625 C 695.246094 385.351562 695.839844 384.8125 696.550781 384.8125 C 696.738281 384.796875 697.519531 384.304688 698.332031 382.832031 C 699.234375 381.203125 699.382812 379.769531 699.214844 379.457031 C 698.28125 378.179688 696.792969 379.089844 696.625 379.195312 C 696.203125 379.472656 695.664062 379.492188 695.21875 379.253906 C 694.773438 379.011719 694.503906 378.550781 694.5 378.050781 L 694.40625 366.082031 L 678.832031 366.105469 C 676.699219 370.386719 676.597656 370.785156 676.179688 372.382812 C 676.105469 372.664062 676.019531 372.984375 675.917969 373.367188 C 675.359375 375.414062 674.394531 376.585938 673.378906 377.835938 C 672.902344 378.414062 672.410156 379.011719 671.914062 379.757812 L 673.699219 381.164062 C 674.074219 381.460938 674.269531 381.921875 674.21875 382.390625 C 673.898438 385.472656 673.90625 390.382812 674.941406 391.667969 C 675.488281 392.351562 678.109375 392.703125 679.675781 392.910156 C 680.058594 392.964844 680.4375 393.015625 680.800781 393.066406 C 681.175781 393.121094 681.515625 393.332031 681.734375 393.644531 C 681.949219 393.960938 682.019531 394.347656 681.945312 394.71875 L 680.125 403.085938 C 680.050781 403.445312 679.835938 403.757812 679.527344 403.957031 Z M 712.089844 415.046875 C 712.070312 415.046875 712.042969 415.046875 712.023438 415.046875 L 665.226562 412.804688 C 664.628906 412.777344 664.117188 412.367188 663.957031 411.78125 C 663.804688 411.203125 664.042969 410.589844 664.550781 410.265625 L 677.554688 401.941406 L 678.933594 395.597656 C 676.453125 395.257812 673.964844 394.863281 672.785156 393.394531 C 670.945312 391.09375 671.210938 385.226562 671.40625 382.871094 L 670.050781 381.800781 C 669.5625 381.503906 669.203125 381.039062 669.050781 380.484375 C 668.882812 379.886719 668.980469 379.234375 669.316406 378.699219 C 670 377.609375 670.664062 376.800781 671.246094 376.085938 C 672.183594 374.945312 672.855469 374.117188 673.261719 372.636719 C 673.355469 372.273438 673.4375 371.964844 673.511719 371.683594 C 674.019531 369.742188 674.191406 369.214844 676.742188 364.109375 C 676.976562 363.644531 677.453125 363.351562 677.976562 363.34375 L 695.773438 363.324219 C 695.773438 363.324219 695.773438 363.324219 695.777344 363.324219 C 696.535156 363.324219 697.152344 363.933594 697.152344 364.691406 L 697.242188 376.097656 C 698.664062 375.882812 700.285156 376.242188 701.457031 377.851562 C 702.824219 379.746094 701.398438 382.898438 700.929688 383.820312 C 700.472656 384.722656 699.382812 386.554688 697.835938 387.269531 L 696.539062 401.425781 L 712.867188 412.527344 C 713.375 412.875 713.597656 413.519531 713.402344 414.105469 C 713.210938 414.671875 712.679688 415.046875 712.089844 415.046875 " fill-opacity="1" fill-rule="nonzero"/><path fill="#000000" d="M 697.421875 392.152344 C 693.832031 393.347656 690.292969 390.542969 689.664062 390.039062 C 687.167969 388.0625 685.132812 384.539062 686.132812 382.984375 C 686.683594 382.132812 687.664062 382.601562 688.953125 381.578125 C 690.851562 380.066406 691.390625 376.808594 690.363281 375.933594 C 689.523438 375.210938 688.214844 376.589844 686.839844 375.933594 C 685.160156 375.125 686.023438 372.550781 684.71875 370.289062 C 682.601562 366.582031 677.660156 368.820312 673.863281 364.878906 C 671.382812 362.300781 670.304688 358.015625 671.722656 355.589844 C 672.140625 354.890625 672.769531 354.257812 673.671875 353.761719 C 679.644531 350.46875 680.539062 354.976562 686.363281 355.027344 C 698.332031 355.128906 704.207031 357.523438 706.375 362.484375 C 707.84375 365.851562 706.046875 371.214844 705.175781 373.8125 C 704.886719 374.683594 704.28125 376.320312 703.761719 378.757812 C 703.207031 381.421875 703.375 382.101562 703.0625 383.695312 C 702.835938 384.808594 701.648438 390.746094 697.421875 392.152344 " fill-opacity="1" fill-rule="nonzero"/><path fill="#ffffff" d="M 670.601562 371.265625 C 670.601562 371.265625 675.882812 373.21875 677.039062 370.574219 C 678.191406 367.9375 676.347656 365.75 679.21875 363.683594 C 682.09375 361.617188 688.988281 359.429688 686.464844 356.328125 C 683.929688 353.222656 676.230469 351.960938 674.050781 355.636719 C 671.867188 359.316406 670.253906 365.636719 668.761719 365.75 C 667.269531 365.863281 667.824219 370.617188 670.601562 371.265625 " fill-opacity="1" fill-rule="nonzero"/><path fill="#000000" d="M 671.078125 369.972656 C 672.738281 370.582031 675.371094 370.953125 675.773438 370.023438 C 676.097656 369.265625 676.097656 368.539062 676.097656 367.695312 C 676.089844 366.152344 676.078125 364.242188 678.414062 362.5625 C 679.21875 361.984375 680.242188 361.433594 681.324219 360.851562 C 682.863281 360.019531 685.441406 358.636719 685.621094 357.726562 C 685.644531 357.597656 685.570312 357.417969 685.390625 357.195312 C 684.148438 355.679688 681.054688 354.601562 678.464844 354.792969 C 677.566406 354.855469 675.945312 355.148438 675.230469 356.339844 C 674.402344 357.746094 673.613281 359.660156 672.921875 361.347656 C 671.617188 364.53125 670.777344 366.570312 669.347656 367.035156 C 669.300781 367.378906 669.351562 368.066406 669.699219 368.777344 C 669.871094 369.140625 670.265625 369.769531 670.910156 369.921875 C 670.96875 369.933594 671.023438 369.953125 671.078125 369.972656 Z M 674.238281 373.339844 C 672.453125 373.339844 670.695312 372.761719 670.199219 372.589844 C 667.492188 371.898438 666.445312 368.800781 666.589844 366.894531 C 666.707031 365.304688 667.570312 364.582031 668.40625 364.410156 C 668.898438 363.878906 669.78125 361.742188 670.367188 360.300781 C 671.097656 358.527344 671.925781 356.511719 672.863281 354.929688 C 673.859375 353.246094 675.78125 352.226562 678.257812 352.042969 C 681.789062 351.773438 685.699219 353.21875 687.53125 355.457031 C 688.429688 356.5625 688.460938 357.59375 688.324219 358.261719 C 687.886719 360.449219 685.210938 361.886719 682.628906 363.277344 C 681.625 363.816406 680.683594 364.324219 680.023438 364.804688 C 678.84375 365.652344 678.84375 366.332031 678.851562 367.683594 C 678.855469 368.640625 678.859375 369.832031 678.300781 371.125 C 677.550781 372.851562 675.882812 373.339844 674.238281 373.339844 " fill-opacity="1" fill-rule="nonzero"/><path fill="#8c00ff" d="M 647.511719 408.914062 C 647.511719 408.914062 688.292969 397.359375 727.046875 411.632812 C 730.027344 428.808594 732.070312 443.644531 733.5 455.390625 C 736.015625 476.078125 734.449219 469.46875 737.585938 499.660156 C 739.527344 518.425781 740.046875 520.148438 738.261719 523.453125 C 729.269531 540.125 693.039062 539.21875 679.121094 535.691406 C 678.132812 535.4375 674.042969 534.363281 667.351562 532.675781 C 659.695312 530.742188 653.40625 529.21875 649.207031 528.210938 C 646.933594 527.183594 643.871094 525.363281 641.726562 522.09375 C 636.933594 514.777344 640.140625 505.308594 641.726562 498.984375 C 645.808594 482.734375 640.449219 482.386719 641.726562 452.757812 C 642.175781 442.398438 643.480469 427.347656 647.511719 408.914062 " fill-opacity="1" fill-rule="nonzero"/><path fill="#ffffff" d="M 722.121094 536.164062 C 721.449219 536.164062 720.859375 535.675781 720.757812 534.988281 C 720.648438 534.234375 721.167969 533.535156 721.925781 533.421875 C 722.660156 533.3125 739.996094 530.558594 737.699219 514.128906 C 737.601562 513.371094 738.121094 512.679688 738.878906 512.570312 C 739.621094 512.464844 740.332031 512.992188 740.429688 513.746094 C 743.109375 532.90625 722.527344 536.121094 722.316406 536.152344 C 722.253906 536.160156 722.183594 536.164062 722.121094 536.164062 " fill-opacity="1" fill-rule="nonzero"/><path fill="#ffffff" d="M 674.878906 520.300781 C 674.53125 520.300781 674.179688 520.175781 673.910156 519.910156 C 657.65625 503.882812 654.296875 479.632812 654.164062 478.605469 C 654.070312 477.851562 654.597656 477.160156 655.351562 477.058594 C 656.109375 476.960938 656.796875 477.488281 656.898438 478.246094 C 656.933594 478.488281 660.277344 502.597656 675.847656 517.941406 C 676.390625 518.476562 676.394531 519.351562 675.863281 519.890625 C 675.59375 520.167969 675.238281 520.300781 674.878906 520.300781 " fill-opacity="1" fill-rule="nonzero"/><path fill="#8c00ff" d="M 633.03125 387.03125 C 633.058594 386.304688 633.578125 385.695312 634.292969 385.558594 L 674.585938 373.003906 L 671.09375 364.699219 C 671.09375 364.699219 616.53125 347.375 590.9375 369.476562 C 565.332031 391.570312 616.792969 446.167969 645.84375 458.8125 L 672.445312 405.417969 L 634.183594 388.59375 C 633.480469 388.402344 633.007812 387.757812 633.03125 387.03125 " fill-opacity="1" fill-rule="nonzero"/><path fill="#ffffff" d="M 757.71875 251.28125 C 757.71875 281.921875 732.878906 306.761719 702.238281 306.761719 C 671.589844 306.761719 646.75 281.921875 646.75 251.28125 C 646.75 220.640625 671.589844 195.800781 702.238281 195.800781 C 732.878906 195.800781 757.71875 220.640625 757.71875 251.28125 " fill-opacity="1" fill-rule="nonzero"/><path fill="#000000" d="M 702.234375 197.175781 C 672.398438 197.175781 648.128906 221.453125 648.128906 251.28125 C 648.128906 281.117188 672.398438 305.382812 702.234375 305.382812 C 732.066406 305.382812 756.339844 281.117188 756.339844 251.28125 C 756.339844 221.453125 732.066406 197.175781 702.234375 197.175781 Z M 702.234375 308.144531 C 670.878906 308.144531 645.371094 282.632812 645.371094 251.28125 C 645.371094 219.929688 670.878906 194.425781 702.234375 194.425781 C 733.585938 194.425781 759.09375 219.929688 759.09375 251.28125 C 759.09375 282.632812 733.585938 308.144531 702.234375 308.144531 " fill-opacity="1" fill-rule="nonzero"/><path fill="#a855f7" d="M 737.1875 251.28125 C 737.1875 270.589844 721.542969 286.234375 702.234375 286.234375 C 682.921875 286.234375 667.277344 270.589844 667.277344 251.28125 C 667.277344 231.976562 682.921875 216.332031 702.234375 216.332031 C 721.542969 216.332031 737.1875 231.976562 737.1875 251.28125 " fill-opacity="1" fill-rule="nonzero"/><path fill="#ffffff" d="M 687.203125 267.101562 C 687.082031 267.101562 686.957031 267.089844 686.835938 267.058594 C 686.101562 266.855469 685.667969 266.097656 685.867188 265.363281 C 687.914062 257.882812 694.769531 252.664062 702.523438 252.664062 C 709.90625 252.664062 716.476562 257.347656 718.871094 264.324219 C 719.117188 265.046875 718.734375 265.832031 718.015625 266.078125 C 717.285156 266.320312 716.507812 265.9375 716.261719 265.222656 C 714.25 259.359375 708.730469 255.417969 702.523438 255.417969 C 696.007812 255.417969 690.25 259.804688 688.527344 266.09375 C 688.363281 266.703125 687.804688 267.101562 687.203125 267.101562 " fill-opacity="1" fill-rule="nonzero"/><path fill="#ffffff" d="M 690.789062 245.363281 C 690.433594 245.363281 690.078125 245.230469 689.808594 244.960938 L 681.957031 237.105469 C 681.421875 236.566406 681.421875 235.695312 681.957031 235.160156 C 682.496094 234.621094 683.371094 234.621094 683.910156 235.160156 L 691.765625 243.007812 C 692.300781 243.546875 692.300781 244.421875 691.765625 244.960938 C 691.492188 245.230469 691.144531 245.363281 690.789062 245.363281 " fill-opacity="1" fill-rule="nonzero"/><path fill="#ffffff" d="M 690.789062 245.363281 C 690.433594 245.363281 690.078125 245.230469 689.808594 244.960938 L 681.957031 237.105469 C 681.421875 236.566406 681.421875 235.695312 681.957031 235.160156 C 682.496094 234.621094 683.371094 234.621094 683.910156 235.160156 L 691.765625 243.007812 C 692.300781 243.546875 692.300781 244.421875 691.765625 244.960938 C 691.492188 245.230469 691.144531 245.363281 690.789062 245.363281 " fill-opacity="1" fill-rule="nonzero"/><path fill="#ffffff" d="M 682.933594 245.363281 C 682.582031 245.363281 682.226562 245.230469 681.957031 244.960938 C 681.421875 244.421875 681.421875 243.546875 681.957031 243.007812 L 689.808594 235.160156 C 690.347656 234.621094 691.222656 234.621094 691.765625 235.160156 C 692.300781 235.695312 692.300781 236.566406 691.765625 237.105469 L 683.910156 244.960938 C 683.640625 245.230469 683.289062 245.363281 682.933594 245.363281 " fill-opacity="1" fill-rule="nonzero"/><path fill="#ffffff" d="M 722.035156 245.371094 C 721.6875 245.371094 721.335938 245.234375 721.066406 244.964844 L 713.210938 237.113281 C 712.667969 236.574219 712.667969 235.703125 713.210938 235.164062 C 713.75 234.625 714.621094 234.625 715.160156 235.164062 L 723.015625 243.015625 C 723.550781 243.550781 723.550781 244.425781 723.015625 244.964844 C 722.746094 245.234375 722.386719 245.371094 722.035156 245.371094 " fill-opacity="1" fill-rule="nonzero"/><path fill="#ffffff" d="M 714.183594 245.371094 C 713.832031 245.371094 713.480469 245.234375 713.210938 244.964844 C 712.667969 244.425781 712.667969 243.550781 713.210938 243.015625 L 721.066406 235.164062 C 721.601562 234.625 722.46875 234.625 723.015625 235.164062 C 723.550781 235.703125 723.550781 236.574219 723.015625 237.113281 L 715.160156 244.964844 C 714.890625 245.234375 714.539062 245.371094 714.183594 245.371094 " fill-opacity="1" fill-rule="nonzero"/><path fill="#000000" d="M 514.863281 77.984375 C 514.628906 77.984375 514.386719 77.9375 514.15625 77.839844 C 459.636719 55.117188 396.730469 48.175781 332.257812 57.777344 C 331.257812 57.921875 330.320312 57.238281 330.171875 56.230469 C 330.023438 55.230469 330.710938 54.292969 331.71875 54.140625 C 396.851562 44.441406 460.425781 51.464844 515.570312 74.445312 C 516.507812 74.835938 516.953125 75.910156 516.5625 76.851562 C 516.269531 77.554688 515.582031 77.980469 514.863281 77.984375 " fill-opacity="1" fill-rule="nonzero"/><path fill="#000000" d="M 541.117188 70.144531 C 540.839844 70.144531 540.546875 70.070312 540.277344 69.933594 C 535.59375 67.496094 530.738281 65.136719 525.835938 62.921875 C 457.242188 31.933594 374.246094 26.074219 292.125 46.421875 C 291.132812 46.664062 290.140625 46.0625 289.898438 45.082031 C 289.652344 44.09375 290.253906 43.09375 291.238281 42.851562 C 374.160156 22.308594 458.011719 28.246094 527.351562 59.574219 C 532.3125 61.8125 537.230469 64.203125 541.976562 66.671875 C 542.875 67.140625 543.222656 68.25 542.753906 69.148438 C 542.425781 69.78125 541.789062 70.144531 541.117188 70.144531 " fill-opacity="1" fill-rule="nonzero"/><path fill="#000000" d="M 599.042969 135.140625 C 598.308594 135.140625 597.703125 134.566406 597.667969 133.828125 C 597.628906 133.070312 598.21875 132.421875 598.976562 132.386719 L 605.601562 132.066406 C 606.359375 132.03125 607.007812 132.617188 607.042969 133.375 C 607.082031 134.136719 606.492188 134.785156 605.734375 134.824219 L 599.109375 135.140625 C 599.089844 135.140625 599.0625 135.140625 599.042969 135.140625 " fill-opacity="1" fill-rule="nonzero"/><path fill="#000000" d="M 622.222656 134.03125 C 621.484375 134.03125 620.882812 133.453125 620.84375 132.714844 C 620.804688 131.953125 621.394531 131.308594 622.15625 131.273438 L 628.777344 130.957031 C 629.523438 130.921875 630.1875 131.503906 630.222656 132.261719 C 630.257812 133.027344 629.667969 133.671875 628.90625 133.707031 L 622.292969 134.03125 C 622.261719 134.03125 622.242188 134.03125 622.222656 134.03125 " fill-opacity="1" fill-rule="nonzero"/><path fill="#000000" d="M 614.75 149.324219 C 614.015625 149.324219 613.410156 148.757812 613.367188 148.019531 L 613.015625 141.398438 C 612.976562 140.640625 613.558594 139.988281 614.316406 139.949219 C 615.089844 139.929688 615.730469 140.492188 615.765625 141.25 L 616.125 147.871094 C 616.167969 148.632812 615.585938 149.285156 614.820312 149.324219 C 614.800781 149.324219 614.769531 149.324219 614.75 149.324219 " fill-opacity="1" fill-rule="nonzero"/><path fill="#000000" d="M 613.5 126.144531 C 612.769531 126.144531 612.164062 125.574219 612.121094 124.839844 L 611.761719 118.21875 C 611.722656 117.457031 612.308594 116.808594 613.070312 116.765625 C 613.820312 116.738281 614.476562 117.308594 614.519531 118.066406 L 614.875 124.691406 C 614.914062 125.453125 614.335938 126.101562 613.574219 126.140625 C 613.550781 126.144531 613.523438 126.144531 613.5 126.144531 " fill-opacity="1" fill-rule="nonzero"/><path fill="#000000" d="M 553.527344 692.707031 C 553.277344 692.707031 553.027344 692.640625 552.800781 692.5 L 548.085938 689.582031 C 547.4375 689.183594 547.238281 688.332031 547.636719 687.6875 C 548.039062 687.039062 548.890625 686.835938 549.535156 687.238281 L 554.253906 690.15625 C 554.902344 690.554688 555.101562 691.40625 554.695312 692.054688 C 554.441406 692.476562 553.988281 692.707031 553.527344 692.707031 " fill-opacity="1" fill-rule="nonzero"/><path fill="#000000" d="M 570.027344 702.914062 C 569.78125 702.914062 569.53125 702.847656 569.304688 702.710938 L 564.589844 699.789062 C 563.941406 699.394531 563.742188 698.542969 564.140625 697.890625 C 564.542969 697.246094 565.390625 697.042969 566.039062 697.445312 L 570.753906 700.359375 C 571.40625 700.761719 571.605469 701.609375 571.199219 702.261719 C 570.941406 702.683594 570.492188 702.914062 570.027344 702.914062 " fill-opacity="1" fill-rule="nonzero"/><path fill="#000000" d="M 552.914062 707.003906 C 552.667969 707.003906 552.417969 706.9375 552.195312 706.796875 C 551.542969 706.402344 551.339844 705.550781 551.734375 704.902344 L 554.628906 700.171875 C 555.023438 699.519531 555.875 699.316406 556.523438 699.714844 C 557.171875 700.109375 557.378906 700.960938 556.980469 701.609375 L 554.089844 706.34375 C 553.828125 706.765625 553.378906 707.003906 552.914062 707.003906 " fill-opacity="1" fill-rule="nonzero"/><path fill="#000000" d="M 563.03125 690.4375 C 562.785156 690.4375 562.539062 690.371094 562.316406 690.234375 C 561.667969 689.835938 561.460938 688.988281 561.855469 688.339844 L 564.75 683.605469 C 565.148438 682.953125 565.996094 682.75 566.640625 683.148438 C 567.296875 683.542969 567.5 684.390625 567.101562 685.042969 L 564.214844 689.777344 C 563.949219 690.203125 563.5 690.4375 563.03125 690.4375 " fill-opacity="1" fill-rule="nonzero"/><path fill="#000000" d="M 196.667969 113.289062 C 196.53125 113.289062 196.394531 113.265625 196.253906 113.222656 L 191.113281 111.617188 C 190.386719 111.386719 189.980469 110.613281 190.207031 109.890625 C 190.4375 109.160156 191.207031 108.753906 191.9375 108.980469 L 197.078125 110.59375 C 197.804688 110.824219 198.210938 111.59375 197.984375 112.320312 C 197.796875 112.910156 197.253906 113.289062 196.667969 113.289062 " fill-opacity="1" fill-rule="nonzero"/><path fill="#000000" d="M 178.664062 107.65625 C 178.527344 107.65625 178.390625 107.640625 178.253906 107.597656 L 173.113281 105.988281 C 172.386719 105.757812 171.980469 104.984375 172.207031 104.257812 C 172.433594 103.53125 173.207031 103.125 173.933594 103.355469 L 179.078125 104.964844 C 179.804688 105.195312 180.207031 105.964844 179.980469 106.691406 C 179.796875 107.28125 179.253906 107.65625 178.664062 107.65625 " fill-opacity="1" fill-rule="nonzero"/><path fill="#000000" d="M 187.070312 103.226562 C 186.9375 103.226562 186.800781 103.207031 186.664062 103.164062 C 185.9375 102.941406 185.527344 102.167969 185.75 101.445312 L 187.328125 96.292969 C 187.550781 95.5625 188.324219 95.152344 189.050781 95.375 C 189.78125 95.601562 190.1875 96.375 189.964844 97.101562 L 188.386719 102.25 C 188.203125 102.847656 187.660156 103.226562 187.070312 103.226562 " fill-opacity="1" fill-rule="nonzero"/><path fill="#000000" d="M 181.542969 121.261719 C 181.410156 121.261719 181.273438 121.242188 181.140625 121.203125 C 180.410156 120.980469 180.003906 120.207031 180.222656 119.480469 L 181.804688 114.328125 C 182.023438 113.601562 182.796875 113.191406 183.523438 113.410156 C 184.253906 113.632812 184.664062 114.410156 184.4375 115.132812 L 182.859375 120.289062 C 182.679688 120.882812 182.132812 121.261719 181.542969 121.261719 " fill-opacity="1" fill-rule="nonzero"/><path fill="#000000" d="M 272.148438 46.078125 C 271.917969 46.078125 271.6875 46.09375 271.453125 46.132812 C 269.042969 46.511719 267.386719 48.78125 267.769531 51.195312 C 267.953125 52.367188 268.582031 53.390625 269.539062 54.089844 C 270.496094 54.785156 271.664062 55.066406 272.835938 54.882812 C 275.246094 54.503906 276.902344 52.226562 276.523438 49.816406 C 276.179688 47.632812 274.289062 46.078125 272.148438 46.078125 Z M 272.128906 57.695312 C 270.621094 57.695312 269.160156 57.222656 267.914062 56.320312 C 266.363281 55.1875 265.34375 53.523438 265.042969 51.625 C 264.425781 47.710938 267.109375 44.023438 271.027344 43.40625 C 274.9375 42.78125 278.628906 45.472656 279.246094 49.386719 C 279.863281 53.300781 277.179688 56.992188 273.265625 57.609375 C 272.886719 57.667969 272.507812 57.695312 272.128906 57.695312 " fill-opacity="1" fill-rule="nonzero"/></svg>