<svg width="1169" height="781" viewBox="0 0 1169 781" fill="none" xmlns="http://www.w3.org/2000/svg">
<path d="M1127.19 90.85C1127.19 106.852 1114.22 119.82 1098.23 119.82C1082.24 119.82 1069.28 106.852 1069.28 90.85C1069.28 74.8478 1082.24 61.8802 1098.23 61.8802C1114.22 61.8802 1127.19 74.8478 1127.19 90.85Z" fill="white"/>
<path d="M1118.69 78.8897C1118.69 83.0848 1115.29 86.4828 1111.11 86.4828C1106.92 86.4828 1103.52 83.0848 1103.52 78.8897C1103.52 74.7011 1106.92 71.303 1111.11 71.303C1115.29 71.303 1118.69 74.7011 1118.69 78.8897Z" fill="#CCCCCC"/>
<path d="M1098.23 101.631C1098.23 106.584 1094.22 110.601 1089.26 110.601C1084.31 110.601 1080.3 106.584 1080.3 101.631C1080.3 96.6771 1084.31 92.6606 1089.26 92.6606C1094.22 92.6606 1098.23 96.6771 1098.23 101.631Z" fill="#CCCCCC"/>
<path d="M1116.85 102.702C1116.85 106.055 1114.14 108.765 1110.8 108.765C1107.46 108.765 1104.74 106.055 1104.74 102.702C1104.74 99.3611 1107.46 96.6452 1110.8 96.6452C1114.14 96.6452 1116.85 99.3611 1116.85 102.702Z" fill="#CCCCCC"/>
<path d="M1105.34 90.9583C1105.34 92.5012 1104.09 93.7508 1102.54 93.7508C1101 93.7508 1099.75 92.5012 1099.75 90.9583C1099.75 89.4091 1101 88.1595 1102.54 88.1595C1104.09 88.1595 1105.34 89.4091 1105.34 90.9583Z" fill="#CCCCCC"/>
<path d="M1093.92 78.8897C1093.92 82.2368 1091.22 84.9527 1087.87 84.9527C1084.53 84.9527 1081.82 82.2368 1081.82 78.8897C1081.82 75.549 1084.53 72.8331 1087.87 72.8331C1091.22 72.8331 1093.92 75.549 1093.92 78.8897Z" fill="#CCCCCC"/>
<path d="M910.02 768.815C885.603 768.815 865.807 749.007 865.807 724.576C865.807 700.133 885.603 680.331 910.02 680.331C934.445 680.331 954.234 700.133 954.234 724.576C954.234 749.007 934.445 768.815 910.02 768.815ZM910.02 690.825C891.392 690.825 876.288 705.928 876.288 724.576C876.288 743.211 891.392 758.321 910.02 758.321C928.656 758.321 943.746 743.211 943.746 724.576C943.746 705.928 928.656 690.825 910.02 690.825Z" fill="white"/>
<path d="M910.02 758.321C891.391 758.321 876.288 743.211 876.288 724.576C876.288 705.928 891.391 690.825 910.02 690.825C928.656 690.825 943.746 705.928 943.746 724.576C943.746 743.211 928.656 758.321 910.02 758.321Z" fill="white"/>
<path d="M932.914 724.576C932.914 737.231 922.669 747.483 910.02 747.483C897.371 747.483 887.12 737.231 887.12 724.576C887.12 711.915 897.371 701.663 910.02 701.663C922.669 701.663 932.914 711.915 932.914 724.576Z" fill="#ED995A"/>
<path d="M926.201 715.109C926.201 718.424 923.517 721.114 920.202 721.114C916.887 721.114 914.203 718.424 914.203 715.109C914.203 711.8 916.887 709.109 920.202 709.109C923.517 709.109 926.201 711.8 926.201 715.109Z" fill="#CD854E"/>
<path d="M910.02 733.1C910.02 737.014 906.852 740.196 902.931 740.196C899.01 740.196 895.842 737.014 895.842 733.1C895.842 729.173 899.01 725.998 902.931 725.998C906.852 725.998 910.02 729.173 910.02 733.1Z" fill="#CD854E"/>
<path d="M924.747 733.942C924.747 736.587 922.605 738.736 919.96 738.736C917.32 738.736 915.172 736.587 915.172 733.942C915.172 731.296 917.32 729.16 919.96 729.16C922.605 729.16 924.747 731.296 924.747 733.942Z" fill="#CD854E"/>
<path d="M915.643 724.653C915.643 725.87 914.649 726.865 913.431 726.865C912.213 726.865 911.219 725.87 911.219 724.653C911.219 723.429 912.213 722.447 913.431 722.447C914.649 722.447 915.643 723.429 915.643 724.653Z" fill="#CD854E"/>
<path d="M906.616 715.109C906.616 717.761 904.474 719.903 901.828 719.903C899.182 719.903 897.04 717.761 897.04 715.109C897.04 712.469 899.182 710.321 901.828 710.321C904.474 710.321 906.616 712.469 906.616 715.109Z" fill="#CD854E"/>
<path d="M558.488 25.1644C558.488 38.8332 547.42 49.9137 533.758 49.9137C520.095 49.9137 509.021 38.8332 509.021 25.1644C509.021 11.4956 520.095 0.415161 533.758 0.415161C547.42 0.415161 558.488 11.4956 558.488 25.1644Z" fill="#D6414C"/>
<path d="M551.233 14.9446C551.233 18.5276 548.332 21.4348 544.749 21.4348C541.179 21.4348 538.265 18.5276 538.265 14.9446C538.265 11.3616 541.179 8.45447 544.749 8.45447C548.332 8.45447 551.233 11.3616 551.233 14.9446Z" fill="#B93842"/>
<path d="M533.758 34.3705C533.758 38.6101 530.321 42.0401 526.095 42.0401C521.861 42.0401 518.431 38.6101 518.431 34.3705C518.431 30.1436 521.861 26.7073 526.095 26.7073C530.321 26.7073 533.758 30.1436 533.758 34.3705Z" fill="#B93842"/>
<path d="M549.664 35.2885C549.664 38.1447 547.35 40.4717 544.488 40.4717C541.638 40.4717 539.317 38.1447 539.317 35.2885C539.317 32.4323 541.638 30.1117 544.488 30.1117C547.35 30.1117 549.664 32.4323 549.664 35.2885Z" fill="#B93842"/>
<path d="M539.827 25.2537C539.827 26.5734 538.756 27.6445 537.436 27.6445C536.123 27.6445 535.052 26.5734 535.052 25.2537C535.052 23.9276 536.123 22.8629 537.436 22.8629C538.756 22.8629 539.827 23.9276 539.827 25.2537Z" fill="#B93842"/>
<path d="M530.073 14.9446C530.073 17.8072 527.752 20.1214 524.902 20.1214C522.046 20.1214 519.732 17.8072 519.732 14.9446C519.732 12.0885 522.046 9.76782 524.902 9.76782C527.752 9.76782 530.073 12.0885 530.073 14.9446Z" fill="#B93842"/>
<mask id="mask0_203_3" style="mask-type:luminance" maskUnits="userSpaceOnUse" x="0" y="514" width="70" height="73">
<path d="M0.0296021 514.361H69.9995V586.173H0.0296021V514.361Z" fill="white"/>
</mask>
<g mask="url(#mask0_203_3)">
<mask id="mask1_203_3" style="mask-type:luminance" maskUnits="userSpaceOnUse" x="0" y="515" width="70" height="71">
<path d="M69.7955 550.362C69.7955 569.642 54.1758 585.261 34.9157 585.261C15.6493 585.261 0.0360107 569.642 0.0360107 550.362C0.0360107 531.083 15.6493 515.464 34.9157 515.464C54.1758 515.464 69.7955 531.083 69.7955 550.362Z" fill="white"/>
</mask>
<g mask="url(#mask1_203_3)">
<path d="M69.7955 550.362C69.7955 569.642 54.1758 585.261 34.9157 585.261C15.6493 585.261 0.0360107 569.642 0.0360107 550.362C0.0360107 531.083 15.6493 515.464 34.9157 515.464C54.1758 515.464 69.7955 531.083 69.7955 550.362Z" fill="#159EBD"/>
</g>
</g>
<mask id="mask2_203_3" style="mask-type:luminance" maskUnits="userSpaceOnUse" x="37" y="529" width="33" height="18">
<path d="M37.3129 529.049H69.9995V546.792H37.3129V529.049Z" fill="white"/>
</mask>
<g mask="url(#mask2_203_3)">
<mask id="mask3_203_3" style="mask-type:luminance" maskUnits="userSpaceOnUse" x="0" y="515" width="70" height="71">
<path d="M69.7955 550.362C69.7955 569.641 54.1758 585.261 34.9157 585.261C15.6493 585.261 0.0360107 569.641 0.0360107 550.362C0.0360107 531.083 15.6493 515.463 34.9157 515.463C54.1758 515.463 69.7955 531.083 69.7955 550.362Z" fill="white"/>
</mask>
<g mask="url(#mask3_203_3)">
<path d="M70.5988 529.948H49.509C47.641 529.948 46.13 531.459 46.13 533.334C46.13 535.202 47.641 536.719 49.509 536.719H53.2641C53.8379 536.719 54.2969 537.184 54.2969 537.752C54.2969 538.326 53.8379 538.785 53.2641 538.785H41.068C39.1044 538.785 37.5042 540.385 37.5042 542.348C37.5042 544.318 39.1044 545.912 41.068 545.912H63.2288C65.1925 545.912 66.7863 544.318 66.7863 542.348C66.7863 540.385 65.1925 538.785 63.2288 538.785H59.1996C58.6322 538.785 58.1604 538.326 58.1604 537.752C58.1604 537.184 58.6322 536.719 59.1996 536.719H70.5988C72.4604 536.719 73.9841 535.202 73.9841 533.334C73.9841 531.459 72.4604 529.948 70.5988 529.948Z" fill="white"/>
</g>
</g>
<mask id="mask4_203_3" style="mask-type:luminance" maskUnits="userSpaceOnUse" x="0" y="537" width="27" height="12">
<path d="M0.0296021 537.707H26.4173V548.609H0.0296021V537.707Z" fill="white"/>
</mask>
<g mask="url(#mask4_203_3)">
<mask id="mask5_203_3" style="mask-type:luminance" maskUnits="userSpaceOnUse" x="0" y="515" width="70" height="71">
<path d="M69.7955 550.362C69.7955 569.641 54.1758 585.261 34.9157 585.261C15.6493 585.261 0.0360107 569.641 0.0360107 550.362C0.0360107 531.083 15.6493 515.463 34.9157 515.463C54.1758 515.463 69.7955 531.083 69.7955 550.362Z" fill="white"/>
</mask>
<g mask="url(#mask5_203_3)">
<path d="M24.3963 543.266H12.7358C12.4106 543.266 12.1429 543.005 12.1429 542.674C12.1429 542.348 12.4106 542.081 12.7358 542.081H20.2396C21.3425 542.081 22.3052 541.252 22.3753 540.143C22.4519 538.938 21.5019 537.93 20.3097 537.93H-8.26476C-9.37407 537.93 -10.3368 538.765 -10.4069 539.868C-10.4898 541.08 -9.52708 542.081 -8.34126 542.081H9.79671C10.1282 542.081 10.396 542.348 10.396 542.674C10.396 543.005 10.1282 543.266 9.79671 543.266H8.21562C7.18918 543.266 6.29025 544.063 6.25837 545.09C6.23287 546.155 7.0808 547.028 8.13911 547.028H24.4729C25.5312 547.028 26.3855 546.155 26.3536 545.09C26.3217 544.063 25.4292 543.266 24.3963 543.266Z" fill="white"/>
</g>
</g>
<mask id="mask6_203_3" style="mask-type:luminance" maskUnits="userSpaceOnUse" x="0" y="552" width="41" height="17">
<path d="M0.0296021 552.243H40.8321V568.22H0.0296021V552.243Z" fill="white"/>
</mask>
<g mask="url(#mask6_203_3)">
<mask id="mask7_203_3" style="mask-type:luminance" maskUnits="userSpaceOnUse" x="0" y="515" width="70" height="71">
<path d="M69.7955 550.362C69.7955 569.641 54.1758 585.261 34.9157 585.261C15.6493 585.261 0.0360107 569.641 0.0360107 550.362C0.0360107 531.083 15.6493 515.463 34.9157 515.463C54.1758 515.463 69.7955 531.083 69.7955 550.362Z" fill="white"/>
</mask>
<g mask="url(#mask7_203_3)">
<path d="M37.0132 552.868H-6.53066C-8.048 552.868 -9.35496 554.06 -9.38046 555.577C-9.41234 557.127 -8.16276 558.389 -6.61992 558.389H9.87958C10.5044 558.389 11.008 558.893 11.008 559.511C11.008 560.136 10.5044 560.633 9.87958 560.633H-9.2147C-11.0508 560.633 -12.6255 562.048 -12.7148 563.878C-12.804 565.829 -11.2484 567.442 -9.31671 567.442H20.6157C22.4455 567.442 24.0202 566.033 24.1094 564.203C24.1987 562.252 22.6431 560.633 20.7114 560.633H17.1348C16.51 560.633 16.0063 560.136 16.0063 559.511C16.0063 558.893 16.51 558.389 17.1348 558.389H36.9176C38.4349 558.389 39.7419 557.203 39.7674 555.679C39.7993 554.13 38.5497 552.868 37.0132 552.868Z" fill="white"/>
</g>
</g>
<mask id="mask8_203_3" style="mask-type:luminance" maskUnits="userSpaceOnUse" x="31" y="566" width="39" height="14">
<path d="M31.0395 566.588H69.9995V579.498H31.0395V566.588Z" fill="white"/>
</mask>
<g mask="url(#mask8_203_3)">
<mask id="mask9_203_3" style="mask-type:luminance" maskUnits="userSpaceOnUse" x="0" y="515" width="70" height="71">
<path d="M69.7955 550.362C69.7955 569.641 54.1758 585.261 34.9157 585.261C15.6493 585.261 0.0360107 569.641 0.0360107 550.362C0.0360107 531.083 15.6493 515.463 34.9157 515.463C54.1758 515.463 69.7955 531.083 69.7955 550.362Z" fill="white"/>
</mask>
<g mask="url(#mask9_203_3)">
<path d="M71.2491 566.76H40.3348C38.8302 566.76 37.5424 567.939 37.5169 569.444C37.485 570.974 38.7219 572.223 40.2456 572.223H43.0635C43.5353 572.223 43.9178 572.606 43.9178 573.084C43.9178 573.562 43.5353 573.945 43.0635 573.945H33.5578C32.1743 573.945 31.0459 575.067 31.0459 576.457C31.0459 577.84 32.1743 578.962 33.5578 578.962H48.6292C50.019 578.962 51.1411 577.84 51.1411 576.457C51.1411 575.067 50.019 573.945 48.6292 573.945H46.6273C46.1556 573.945 45.773 573.562 45.773 573.084C45.773 572.606 46.1556 572.223 46.6273 572.223H71.1598C72.6644 572.223 73.9522 571.057 73.9841 569.546C74.0096 568.016 72.7728 566.76 71.2491 566.76Z" fill="white"/>
</g>
</g>
<mask id="mask10_203_3" style="mask-type:luminance" maskUnits="userSpaceOnUse" x="0" y="519" width="32" height="14">
<path d="M0.0296021 519.537H31.8683V532.256H0.0296021V519.537Z" fill="white"/>
</mask>
<g mask="url(#mask10_203_3)">
<mask id="mask11_203_3" style="mask-type:luminance" maskUnits="userSpaceOnUse" x="0" y="515" width="70" height="71">
<path d="M69.7955 550.362C69.7955 569.642 54.1758 585.261 34.9157 585.261C15.6493 585.261 0.0360107 569.642 0.0360107 550.362C0.0360107 531.083 15.6493 515.464 34.9157 515.464C54.1758 515.464 69.7955 531.083 69.7955 550.362Z" fill="white"/>
</mask>
<g mask="url(#mask11_203_3)">
<path d="M-8.34761 532.084H22.5666C24.0712 532.084 25.3654 530.911 25.3909 529.407C25.4164 527.87 24.186 526.62 22.6623 526.62H19.838C19.3662 526.62 18.9837 526.238 18.9837 525.773C18.9837 525.294 19.3662 524.912 19.838 524.912H29.3437C30.7335 524.912 31.8556 523.79 31.8556 522.4C31.8556 521.017 30.7335 519.888 29.3437 519.888H14.2659C12.8824 519.888 11.7604 521.017 11.7604 522.4C11.7604 523.79 12.8824 524.912 14.2659 524.912H16.2741C16.7459 524.912 17.1284 525.294 17.1284 525.773C17.1284 526.238 16.7459 526.62 16.2741 526.62H-8.25198C-9.75657 526.62 -11.0508 527.8 -11.0763 529.305C-11.1018 530.835 -9.87132 532.084 -8.34761 532.084Z" fill="white"/>
</g>
</g>
<mask id="mask12_203_3" style="mask-type:luminance" maskUnits="userSpaceOnUse" x="44" y="556" width="15" height="6">
<path d="M44.0963 556.795H58.7852V561.691H44.0963V556.795Z" fill="white"/>
</mask>
<g mask="url(#mask12_203_3)">
<mask id="mask13_203_3" style="mask-type:luminance" maskUnits="userSpaceOnUse" x="0" y="515" width="70" height="71">
<path d="M69.7955 550.362C69.7955 569.641 54.1758 585.261 34.9157 585.261C15.6493 585.261 0.0360107 569.641 0.0360107 550.362C0.0360107 531.083 15.6493 515.463 34.9157 515.463C54.1758 515.463 69.7955 531.083 69.7955 550.362Z" fill="white"/>
</mask>
<g mask="url(#mask13_203_3)">
<path d="M55.4508 561.506H46.5572C45.2821 561.506 44.2429 560.474 44.2429 559.192C44.2429 557.923 45.2821 556.884 46.5572 556.884H55.4508C56.7196 556.884 57.7587 557.923 57.7587 559.192C57.7587 560.474 56.7196 561.506 55.4508 561.506Z" fill="white"/>
</g>
</g>
<mask id="mask14_203_3" style="mask-type:luminance" maskUnits="userSpaceOnUse" x="31" y="529" width="12" height="5">
<path d="M31.8683 529.049H42.4642V533.946H31.8683V529.049Z" fill="white"/>
</mask>
<g mask="url(#mask14_203_3)">
<mask id="mask15_203_3" style="mask-type:luminance" maskUnits="userSpaceOnUse" x="0" y="515" width="70" height="71">
<path d="M69.7955 550.362C69.7955 569.641 54.1758 585.261 34.9157 585.261C15.6493 585.261 0.0360107 569.641 0.0360107 550.362C0.0360107 531.083 15.6493 515.463 34.9157 515.463C54.1758 515.463 69.7955 531.083 69.7955 550.362Z" fill="white"/>
</mask>
<g mask="url(#mask15_203_3)">
<path d="M40.0607 532.875H33.8829C32.9967 532.875 32.2763 532.161 32.2763 531.262C32.2763 530.382 32.9967 529.668 33.8829 529.668H40.0607C40.9468 529.668 41.6609 530.382 41.6609 531.262C41.6609 532.161 40.9468 532.875 40.0607 532.875Z" fill="white"/>
</g>
</g>
<mask id="mask16_203_3" style="mask-type:luminance" maskUnits="userSpaceOnUse" x="52" y="548" width="11" height="6">
<path d="M52.2568 548.635H62.0494V553.531H52.2568V548.635Z" fill="white"/>
</mask>
<g mask="url(#mask16_203_3)">
<mask id="mask17_203_3" style="mask-type:luminance" maskUnits="userSpaceOnUse" x="0" y="515" width="70" height="71">
<path d="M69.7955 550.362C69.7955 569.641 54.1758 585.261 34.9157 585.261C15.6493 585.261 0.0360107 569.641 0.0360107 550.362C0.0360107 531.083 15.6493 515.463 34.9157 515.463C54.1758 515.463 69.7955 531.083 69.7955 550.362Z" fill="white"/>
</mask>
<g mask="url(#mask17_203_3)">
<path d="M60.3472 552.868H53.9846C53.1685 552.868 52.5118 552.217 52.5118 551.401C52.5118 550.592 53.1685 549.929 53.9846 549.929H60.3472C61.1569 549.929 61.8135 550.592 61.8135 551.401C61.8135 552.217 61.1569 552.868 60.3472 552.868Z" fill="white"/>
</g>
</g>
<mask id="mask18_203_3" style="mask-type:luminance" maskUnits="userSpaceOnUse" x="4" y="561" width="13" height="6">
<path d="M4.9259 561.691H16.3506V566.588H4.9259V561.691Z" fill="white"/>
</mask>
<g mask="url(#mask18_203_3)">
<mask id="mask19_203_3" style="mask-type:luminance" maskUnits="userSpaceOnUse" x="0" y="515" width="70" height="71">
<path d="M69.7955 550.362C69.7955 569.642 54.1758 585.261 34.9157 585.261C15.6493 585.261 0.0360107 569.642 0.0360107 550.362C0.0360107 531.083 15.6493 515.464 34.9157 515.464C54.1758 515.464 69.7955 531.083 69.7955 550.362Z" fill="white"/>
</mask>
<g mask="url(#mask19_203_3)">
<path d="M14.3806 565.702H7.89687C7.06807 565.702 6.40503 565.026 6.40503 564.197C6.40503 563.374 7.06807 562.705 7.89687 562.705H14.3806C15.2031 562.705 15.8789 563.374 15.8789 564.197C15.8789 565.026 15.2031 565.702 14.3806 565.702Z" fill="#E5E5E5"/>
</g>
</g>
<mask id="mask20_203_3" style="mask-type:luminance" maskUnits="userSpaceOnUse" x="40" y="541" width="12" height="4">
<path d="M40.9468 541.341H51.8424V544.975H40.9468V541.341Z" fill="white"/>
</mask>
<g mask="url(#mask20_203_3)">
<mask id="mask21_203_3" style="mask-type:luminance" maskUnits="userSpaceOnUse" x="0" y="515" width="70" height="71">
<path d="M69.7955 550.362C69.7955 569.641 54.1758 585.261 34.9157 585.261C15.6493 585.261 0.0360107 569.641 0.0360107 550.362C0.0360107 531.083 15.6493 515.463 34.9157 515.463C54.1758 515.463 69.7955 531.083 69.7955 550.362Z" fill="white"/>
</mask>
<g mask="url(#mask21_203_3)">
<path d="M50.0828 544.593H43.1336C42.2475 544.593 41.527 543.879 41.527 542.986C41.527 542.1 42.2475 541.386 43.1336 541.386H50.0828C50.969 541.386 51.6894 542.1 51.6894 542.986C51.6894 543.879 50.969 544.593 50.0828 544.593Z" fill="#E5E5E5"/>
</g>
</g>
<mask id="mask22_203_3" style="mask-type:luminance" maskUnits="userSpaceOnUse" x="13" y="544" width="7" height="3">
<path d="M13.7112 544.975H19.1558V546.792H13.7112V544.975Z" fill="white"/>
</mask>
<g mask="url(#mask22_203_3)">
<mask id="mask23_203_3" style="mask-type:luminance" maskUnits="userSpaceOnUse" x="0" y="515" width="70" height="71">
<path d="M69.7955 550.362C69.7955 569.641 54.1758 585.261 34.9157 585.261C15.6493 585.261 0.0360107 569.641 0.0360107 550.362C0.0360107 531.083 15.6493 515.463 34.9157 515.463C54.1758 515.463 69.7955 531.083 69.7955 550.362Z" fill="white"/>
</mask>
<g mask="url(#mask23_203_3)">
<path d="M18.0146 546.378H15.2668C14.9162 546.378 14.6293 546.091 14.6293 545.74C14.6293 545.389 14.9162 545.103 15.2668 545.103H18.0146C18.3589 545.103 18.6458 545.389 18.6458 545.74C18.6458 546.091 18.3589 546.378 18.0146 546.378Z" fill="#E5E5E5"/>
</g>
</g>
<mask id="mask24_203_3" style="mask-type:luminance" maskUnits="userSpaceOnUse" x="22" y="521" width="8" height="4">
<path d="M22.879 521.354H29.4074V524.153H22.879V521.354Z" fill="white"/>
</mask>
<g mask="url(#mask24_203_3)">
<mask id="mask25_203_3" style="mask-type:luminance" maskUnits="userSpaceOnUse" x="0" y="515" width="70" height="71">
<path d="M69.7955 550.362C69.7955 569.641 54.1758 585.261 34.9157 585.261C15.6493 585.261 0.0360107 569.641 0.0360107 550.362C0.0360107 531.083 15.6493 515.463 34.9157 515.463C54.1758 515.463 69.7955 531.083 69.7955 550.362Z" fill="white"/>
</mask>
<g mask="url(#mask25_203_3)">
<path d="M28.3109 523.394H24.9128C24.4729 523.394 24.1286 523.044 24.1286 522.61C24.1286 522.17 24.4729 521.826 24.9128 521.826H28.3109C28.7444 521.826 29.1014 522.17 29.1014 522.61C29.1014 523.044 28.7444 523.394 28.3109 523.394Z" fill="#E5E5E5"/>
</g>
</g>
<mask id="mask26_203_3" style="mask-type:luminance" maskUnits="userSpaceOnUse" x="21" y="576" width="8" height="4">
<path d="M21.2469 576.38H28.2343V579.498H21.2469V576.38Z" fill="white"/>
</mask>
<g mask="url(#mask26_203_3)">
<mask id="mask27_203_3" style="mask-type:luminance" maskUnits="userSpaceOnUse" x="0" y="515" width="70" height="71">
<path d="M69.7955 550.362C69.7955 569.641 54.1758 585.261 34.9157 585.261C15.6493 585.261 0.0360107 569.641 0.0360107 550.362C0.0360107 531.083 15.6493 515.463 34.9157 515.463C54.1758 515.463 69.7955 531.083 69.7955 550.362Z" fill="white"/>
</mask>
<g mask="url(#mask27_203_3)">
<path d="M26.972 578.548H22.9938C22.4837 578.548 22.0693 578.14 22.0693 577.623C22.0693 577.12 22.4837 576.712 22.9938 576.712H26.972C27.482 576.712 27.8964 577.12 27.8964 577.623C27.8964 578.14 27.482 578.548 26.972 578.548Z" fill="white"/>
</g>
</g>
<mask id="mask28_203_3" style="mask-type:luminance" maskUnits="userSpaceOnUse" x="40" y="521" width="8" height="4">
<path d="M40.9468 521.354H47.3605V524.988H40.9468V521.354Z" fill="white"/>
</mask>
<g mask="url(#mask28_203_3)">
<mask id="mask29_203_3" style="mask-type:luminance" maskUnits="userSpaceOnUse" x="0" y="515" width="70" height="71">
<path d="M69.7955 550.362C69.7955 569.641 54.1758 585.261 34.9157 585.261C15.6493 585.261 0.0360107 569.641 0.0360107 550.362C0.0360107 531.083 15.6493 515.463 34.9157 515.463C54.1758 515.463 69.7955 531.083 69.7955 550.362Z" fill="white"/>
</mask>
<g mask="url(#mask29_203_3)">
<path d="M46.2384 524.312H42.2602C41.7502 524.312 41.3358 523.904 41.3358 523.394C41.3358 522.891 41.7502 522.476 42.2602 522.476H46.2384C46.7421 522.476 47.1565 522.891 47.1565 523.394C47.1565 523.904 46.7421 524.312 46.2384 524.312Z" fill="white"/>
</g>
</g>
<mask id="mask30_203_3" style="mask-type:luminance" maskUnits="userSpaceOnUse" x="13" y="569" width="14" height="6">
<path d="M13.0864 569.852H26.1432V574.047H13.0864V569.852Z" fill="white"/>
</mask>
<g mask="url(#mask30_203_3)">
<mask id="mask31_203_3" style="mask-type:luminance" maskUnits="userSpaceOnUse" x="0" y="515" width="70" height="71">
<path d="M69.7955 550.362C69.7955 569.641 54.1758 585.261 34.9157 585.261C15.6493 585.261 0.0360107 569.641 0.0360107 550.362C0.0360107 531.083 15.6493 515.463 34.9157 515.463C54.1758 515.463 69.7955 531.083 69.7955 550.362Z" fill="white"/>
</mask>
<g mask="url(#mask31_203_3)">
<path d="M23.1786 573.887H15.3305C14.3424 573.887 13.5263 573.078 13.5263 572.077C13.5263 571.076 14.3424 570.266 15.3305 570.266H23.1786C24.1732 570.266 24.9893 571.076 24.9893 572.077C24.9893 573.078 24.1732 573.887 23.1786 573.887Z" fill="white"/>
</g>
</g>
<mask id="mask32_203_3" style="mask-type:luminance" maskUnits="userSpaceOnUse" x="39" y="568" width="7" height="3">
<path d="M39.2 568.22H45.7283V570.413H39.2V568.22Z" fill="white"/>
</mask>
<g mask="url(#mask32_203_3)">
<mask id="mask33_203_3" style="mask-type:luminance" maskUnits="userSpaceOnUse" x="0" y="515" width="70" height="71">
<path d="M69.7954 550.362C69.7954 569.641 54.1757 585.261 34.9157 585.261C15.6493 585.261 0.0359497 569.641 0.0359497 550.362C0.0359497 531.083 15.6493 515.463 34.9157 515.463C54.1757 515.463 69.7954 531.083 69.7954 550.362Z" fill="white"/>
</mask>
<g mask="url(#mask33_203_3)">
<path d="M44.6381 569.903H41.0105C40.5515 569.903 40.1754 569.527 40.1754 569.068C40.1754 568.602 40.5515 568.226 41.0105 568.226H44.6381C45.0972 568.226 45.4733 568.602 45.4733 569.068C45.4733 569.527 45.0972 569.903 44.6381 569.903Z" fill="#E5E5E5"/>
</g>
</g>
<mask id="mask34_203_3" style="mask-type:luminance" maskUnits="userSpaceOnUse" x="45" y="568" width="6" height="3">
<path d="M45.7284 568.22H50.0254V570.413H45.7284V568.22Z" fill="white"/>
</mask>
<g mask="url(#mask34_203_3)">
<mask id="mask35_203_3" style="mask-type:luminance" maskUnits="userSpaceOnUse" x="0" y="515" width="70" height="71">
<path d="M69.7955 550.362C69.7955 569.641 54.1758 585.261 34.9157 585.261C15.6493 585.261 0.0360107 569.641 0.0360107 550.362C0.0360107 531.083 15.6493 515.463 34.9157 515.463C54.1758 515.463 69.7955 531.083 69.7955 550.362Z" fill="white"/>
</mask>
<g mask="url(#mask35_203_3)">
<path d="M48.2467 569.903H47.08C46.621 569.903 46.2448 569.527 46.2448 569.068C46.2448 568.602 46.621 568.226 47.08 568.226H48.2467C48.7057 568.226 49.0819 568.602 49.0819 569.068C49.0819 569.527 48.7057 569.903 48.2467 569.903Z" fill="#E5E5E5"/>
</g>
</g>
<mask id="mask36_203_3" style="mask-type:luminance" maskUnits="userSpaceOnUse" x="11" y="538" width="6" height="3">
<path d="M11.8942 538.842H16.3506V540.474H11.8942V538.842Z" fill="white"/>
</mask>
<g mask="url(#mask36_203_3)">
<mask id="mask37_203_3" style="mask-type:luminance" maskUnits="userSpaceOnUse" x="0" y="515" width="70" height="71">
<path d="M69.7955 550.362C69.7955 569.642 54.1758 585.261 34.9157 585.261C15.6493 585.261 0.0360107 569.642 0.0360107 550.362C0.0360107 531.083 15.6493 515.464 34.9157 515.464C54.1758 515.464 69.7955 531.083 69.7955 550.362Z" fill="white"/>
</mask>
<g mask="url(#mask37_203_3)">
<path d="M12.4871 539.199H15.0118C15.3305 539.199 15.5919 539.46 15.5919 539.779C15.5919 540.098 15.3305 540.366 15.0118 540.366H12.4871C12.1683 540.366 11.9133 540.098 11.9133 539.779C11.9133 539.46 12.1683 539.199 12.4871 539.199Z" fill="#E5E5E5"/>
</g>
</g>
<mask id="mask38_203_3" style="mask-type:luminance" maskUnits="userSpaceOnUse" x="8" y="538" width="4" height="3">
<path d="M8.26025 538.842H11.4543V540.474H8.26025V538.842Z" fill="white"/>
</mask>
<g mask="url(#mask38_203_3)">
<mask id="mask39_203_3" style="mask-type:luminance" maskUnits="userSpaceOnUse" x="0" y="515" width="70" height="71">
<path d="M69.7955 550.362C69.7955 569.642 54.1758 585.261 34.9157 585.261C15.6493 585.261 0.0360107 569.642 0.0360107 550.362C0.0360107 531.083 15.6493 515.464 34.9157 515.464C54.1758 515.464 69.7955 531.083 69.7955 550.362Z" fill="white"/>
</mask>
<g mask="url(#mask39_203_3)">
<path d="M9.98159 539.199H10.7913C11.11 539.199 11.3714 539.46 11.3714 539.779C11.3714 540.098 11.11 540.366 10.7913 540.366H9.98159C9.66282 540.366 9.40143 540.098 9.40143 539.779C9.40143 539.46 9.66282 539.199 9.98159 539.199Z" fill="#E5E5E5"/>
</g>
</g>
<mask id="mask40_203_3" style="mask-type:luminance" maskUnits="userSpaceOnUse" x="11" y="529" width="7" height="4">
<path d="M11.8942 529.049H17.9827V532.256H11.8942V529.049Z" fill="white"/>
</mask>
<g mask="url(#mask40_203_3)">
<mask id="mask41_203_3" style="mask-type:luminance" maskUnits="userSpaceOnUse" x="0" y="515" width="70" height="71">
<path d="M69.7955 550.362C69.7955 569.641 54.1758 585.261 34.9157 585.261C15.6493 585.261 0.0360107 569.641 0.0360107 550.362C0.0360107 531.083 15.6493 515.463 34.9157 515.463C54.1758 515.463 69.7955 531.083 69.7955 550.362Z" fill="white"/>
</mask>
<g mask="url(#mask41_203_3)">
<path d="M16.7013 531.262H13.0673C12.6083 531.262 12.2321 530.892 12.2321 530.433C12.2321 529.967 12.6083 529.598 13.0673 529.598H16.7013C17.1603 529.598 17.5364 529.967 17.5364 530.433C17.5364 530.892 17.1603 531.262 16.7013 531.262Z" fill="#E5E5E5"/>
</g>
</g>
<mask id="mask42_203_3" style="mask-type:luminance" maskUnits="userSpaceOnUse" x="17" y="529" width="5" height="4">
<path d="M17.9827 529.049H21.2469V532.256H17.9827V529.049Z" fill="white"/>
</mask>
<g mask="url(#mask42_203_3)">
<mask id="mask43_203_3" style="mask-type:luminance" maskUnits="userSpaceOnUse" x="0" y="515" width="70" height="71">
<path d="M69.7955 550.362C69.7955 569.641 54.1758 585.261 34.9157 585.261C15.6493 585.261 0.0360107 569.641 0.0360107 550.362C0.0360107 531.083 15.6493 515.463 34.9157 515.463C54.1758 515.463 69.7955 531.083 69.7955 550.362Z" fill="white"/>
</mask>
<g mask="url(#mask43_203_3)">
<path d="M20.3033 531.262H19.1494C18.6776 531.262 18.3142 530.892 18.3142 530.433C18.3142 529.967 18.6776 529.598 19.1494 529.598H20.3033C20.7687 529.598 21.1449 529.967 21.1449 530.433C21.1449 530.892 20.7687 531.262 20.3033 531.262Z" fill="#E5E5E5"/>
</g>
</g>
<mask id="mask44_203_3" style="mask-type:luminance" maskUnits="userSpaceOnUse" x="27" y="554" width="7" height="3">
<path d="M27.7753 554.06H33.6853V556.795H27.7753V554.06Z" fill="white"/>
</mask>
<g mask="url(#mask44_203_3)">
<mask id="mask45_203_3" style="mask-type:luminance" maskUnits="userSpaceOnUse" x="0" y="515" width="70" height="71">
<path d="M69.7954 550.362C69.7954 569.642 54.1757 585.261 34.9157 585.261C15.6493 585.261 0.0359497 569.642 0.0359497 550.362C0.0359497 531.083 15.6493 515.464 34.9157 515.464C54.1757 515.464 69.7954 531.083 69.7954 550.362Z" fill="white"/>
</mask>
<g mask="url(#mask45_203_3)">
<path d="M32.5249 556.119H28.9037C28.4383 556.119 28.0621 555.743 28.0621 555.284C28.0621 554.819 28.4383 554.443 28.9037 554.443H32.5249C32.9903 554.443 33.3665 554.819 33.3665 555.284C33.3665 555.743 32.9903 556.119 32.5249 556.119Z" fill="#E5E5E5"/>
</g>
</g>
<mask id="mask46_203_3" style="mask-type:luminance" maskUnits="userSpaceOnUse" x="33" y="554" width="5" height="3">
<path d="M33.6853 554.06H37.3129V556.795H33.6853V554.06Z" fill="white"/>
</mask>
<g mask="url(#mask46_203_3)">
<mask id="mask47_203_3" style="mask-type:luminance" maskUnits="userSpaceOnUse" x="0" y="515" width="70" height="71">
<path d="M69.7955 550.362C69.7955 569.642 54.1758 585.261 34.9157 585.261C15.6493 585.261 0.0360107 569.642 0.0360107 550.362C0.0360107 531.083 15.6493 515.464 34.9157 515.464C54.1758 515.464 69.7955 531.083 69.7955 550.362Z" fill="white"/>
</mask>
<g mask="url(#mask47_203_3)">
<path d="M36.1398 556.119H34.9731C34.5141 556.119 34.1379 555.743 34.1379 555.284C34.1379 554.819 34.5141 554.443 34.9731 554.443H36.1398C36.5988 554.443 36.975 554.819 36.975 555.284C36.975 555.743 36.5988 556.119 36.1398 556.119Z" fill="#E5E5E5"/>
</g>
</g>
<path d="M223.423 592.873L232.553 577.043L235.861 596.801C236.104 598.229 234.561 599.306 233.299 598.573L223.423 592.873Z" fill="white"/>
<path d="M226.349 593.237C225.527 592.752 225.24 591.7 225.718 590.871L232.808 578.58L232.553 577.043L223.423 592.873L233.299 598.573C233.987 598.968 234.759 598.834 235.281 598.388L226.349 593.237Z" fill="#D4D4D4"/>
<path d="M208.212 584.088L217.347 568.258L198.597 575.271C197.239 575.781 197.08 577.655 198.342 578.376L208.212 584.088Z" fill="white"/>
<path d="M206.439 581.729C207.268 582.207 208.326 581.921 208.798 581.098L215.894 568.806L217.347 568.258L208.211 584.088L198.342 578.376C197.654 577.981 197.386 577.241 197.514 576.572L206.439 581.729Z" fill="#D4D4D4"/>
<path d="M223.423 592.873L208.211 584.088L224.322 556.17L239.527 564.956L223.423 592.873Z" fill="#D6414C"/>
<path d="M223.423 592.873L208.211 584.088L206.082 587.779L221.3 596.565L223.423 592.873Z" fill="#414042"/>
<path d="M221.3 596.565L206.082 587.779L205.075 589.52C203.934 591.503 204.616 594.027 206.592 595.175L214.638 599.823C216.614 600.964 219.145 600.288 220.293 598.312L221.3 596.565Z" fill="white"/>
<path d="M218.909 590.259L212.738 586.696L228.836 558.784L235.007 562.354L218.909 590.259Z" fill="#B93842"/>
<path d="M236.709 549.298L224.322 556.17L239.527 564.956L239.279 550.783C239.26 549.476 237.851 548.666 236.709 549.298Z" fill="#E5D3B3"/>
<path d="M230.646 552.657L239.4 557.719L239.279 550.783C239.26 549.476 237.851 548.66 236.709 549.298L230.646 552.657Z" fill="#414042"/>
<path d="M231.45 574.538C229.633 577.681 225.616 578.765 222.473 576.948C219.324 575.131 218.253 571.108 220.07 567.965C221.88 564.815 225.903 563.738 229.046 565.555C232.183 567.372 233.267 571.395 231.45 574.538Z" fill="#AB343D"/>
<path d="M232.208 573.594C230.34 576.833 226.209 577.936 222.977 576.074C219.745 574.206 218.635 570.069 220.503 566.836C222.371 563.604 226.503 562.495 229.741 564.363C232.967 566.224 234.07 570.368 232.208 573.594Z" fill="white"/>
<path d="M231.067 572.938C229.563 575.539 226.235 576.431 223.64 574.927C221.032 573.422 220.14 570.094 221.644 567.499C223.149 564.892 226.477 563.999 229.078 565.504C231.673 567.002 232.572 570.33 231.067 572.938Z" fill="#414042"/>
<path d="M221.969 568.813C223.391 566.365 226.534 565.517 228.989 566.938C230.073 567.563 230.844 568.526 231.239 569.629C231.099 568.099 230.251 566.658 228.823 565.835C226.49 564.49 223.512 565.293 222.167 567.621C221.759 568.328 221.549 569.093 221.517 569.858C221.632 569.501 221.778 569.151 221.969 568.813Z" fill="#6D6C6E"/>
<path d="M226.93 569.635C226.528 570.33 225.635 570.572 224.941 570.164C224.239 569.769 224.01 568.876 224.405 568.181C224.807 567.474 225.706 567.244 226.4 567.639C227.095 568.041 227.331 568.94 226.93 569.635Z" fill="#6D6C6E"/>
<path d="M1143.81 579.338L1140.29 577.305L1136.49 582.564C1136.31 582.813 1136.38 583.164 1136.65 583.31L1140.3 585.427L1143.95 587.537C1144.21 587.684 1144.56 587.575 1144.69 587.295L1147.34 581.372L1143.81 579.338Z" fill="#AAAAAA"/>
<path d="M1147.34 581.372L1146.78 581.053L1144.39 586.402C1144.26 586.677 1143.93 586.791 1143.66 586.632L1140.01 584.528L1136.53 582.52L1136.49 582.564C1136.31 582.813 1136.38 583.164 1136.65 583.31L1140.3 585.427L1143.95 587.537C1144.21 587.684 1144.56 587.575 1144.69 587.295L1147.34 581.372Z" fill="#7D7D7D"/>
<path d="M1159.11 565.925C1159.96 563.26 1165.3 552.83 1164.38 552.288L1164.33 552.269L1164.35 552.224C1168.17 545.613 1169.61 539.314 1167.58 538.141C1165.55 536.968 1160.82 541.373 1157.02 547.978L1156.98 548.023L1156.94 547.991C1156.01 547.462 1149.66 557.305 1147.78 559.377C1146.08 561.271 1133.6 564.146 1131.41 564.643C1131.2 564.694 1131.02 564.822 1130.91 565.013L1128.15 569.788C1127.94 570.164 1128.06 570.636 1128.43 570.847L1139.08 576.999L1138.02 578.848L1138.13 579.268L1146.71 584.228L1147.14 584.114L1148.2 582.271L1158.85 588.423C1159.22 588.634 1159.69 588.506 1159.91 588.137L1162.66 583.355C1162.77 583.17 1162.8 582.947 1162.74 582.737C1162.07 580.594 1158.32 568.341 1159.11 565.925Z" fill="white"/>
<path d="M1150.05 582.144C1149.55 581.857 1149.37 581.219 1149.66 580.722L1161.78 559.728C1163.35 556.221 1164.91 552.6 1164.38 552.288L1164.33 552.268L1164.35 552.224C1164.58 551.835 1164.8 551.44 1165.01 551.051L1147.3 581.748L1148.2 582.271L1158.85 588.423C1159.22 588.634 1159.69 588.506 1159.91 588.136L1160.04 587.92L1150.05 582.144Z" fill="#CCCCCC"/>
<path d="M1138.27 575.341H1138.27C1138.77 575.628 1139.41 575.456 1139.69 574.959L1151.81 553.971C1154.06 550.847 1156.41 547.678 1156.94 547.991L1156.98 548.023L1157.02 547.978C1157.24 547.589 1157.47 547.206 1157.69 546.83L1139.99 577.521L1139.08 576.999L1128.43 570.846C1128.06 570.636 1127.94 570.164 1128.15 569.788L1128.28 569.571L1138.27 575.341Z" fill="#CCCCCC"/>
<path d="M1145.43 580.206L1142.26 578.369L1156.4 553.875C1156.9 553.002 1158.01 552.708 1158.89 553.212C1159.76 553.716 1160.06 554.838 1159.56 555.711L1145.43 580.206Z" fill="#17A9CB"/>
<path d="M1145.03 579.976L1142.66 578.599L1156.7 554.277C1157.07 553.62 1157.91 553.397 1158.56 553.78C1159.22 554.156 1159.44 554.991 1159.06 555.648L1145.03 579.976Z" fill="#60C4DB"/>
<path d="M1144.55 579.689L1143.14 578.873L1157.17 554.564C1157.4 554.175 1157.9 554.041 1158.28 554.27C1158.67 554.493 1158.8 554.991 1158.58 555.38L1144.55 579.689Z" fill="#B7E4EF"/>
<path d="M1140.45 577.33L1142.12 574.442L1148.91 578.35L1147.24 581.245L1140.45 577.33ZM1152.51 556.425L1154.12 553.646L1160.9 557.56L1159.29 560.346L1152.51 556.425ZM1150.51 559.887L1152.12 557.114L1158.9 561.022L1157.3 563.808L1150.51 559.887ZM1148.52 563.355L1150.12 560.576L1156.9 564.49L1155.29 567.27L1148.52 563.355ZM1146.52 566.824L1148.12 564.044L1154.9 567.958L1153.3 570.744L1146.52 566.824ZM1150.9 574.888L1149.29 577.668L1142.51 573.754L1144.12 570.974L1150.9 574.888ZM1144.51 570.285L1146.13 567.506L1152.9 571.42L1151.3 574.206L1144.51 570.285ZM1162.96 553.984L1161.3 556.878L1154.52 552.963L1156.18 550.075L1162.96 553.984ZM1155.89 548.992L1139.38 577.617L1147.52 582.322L1164.04 553.697L1155.89 548.992Z" fill="#414042"/>
<path d="M1131 572.332L1130.25 571.898L1133.03 567.085L1148.05 562.711L1148.27 563.559L1133.59 567.824L1131 572.332Z" fill="#414042"/>
<path d="M1156.29 586.944L1157.03 587.371L1159.81 582.558L1156.08 567.365L1155.25 567.582L1158.88 582.437L1156.29 586.944Z" fill="#414042"/>
<path d="M1141.03 575.462L1131.4 569.903L1131.91 569.017L1141.53 574.576L1141.03 575.462Z" fill="#414042"/>
<path d="M1158.18 585.376L1148.56 579.817L1149.08 578.93L1158.69 584.49L1158.18 585.376Z" fill="#414042"/>
<path d="M1164.7 548.858C1163.91 550.228 1162.16 550.7 1160.8 549.91C1159.43 549.119 1158.95 547.366 1159.74 546.002C1160.54 544.637 1162.29 544.165 1163.65 544.956C1165.02 545.74 1165.49 547.493 1164.7 548.858Z" fill="#DDDDDD"/>
<path d="M1165.03 548.45C1164.22 549.859 1162.42 550.343 1161.01 549.527C1159.61 548.717 1159.13 546.913 1159.94 545.511C1160.75 544.102 1162.54 543.624 1163.96 544.427C1165.36 545.243 1165.85 547.041 1165.03 548.45Z" fill="#949495"/>
<path d="M1164.53 548.163C1163.88 549.298 1162.43 549.686 1161.31 549.03C1160.17 548.373 1159.78 546.926 1160.43 545.791C1161.09 544.663 1162.54 544.274 1163.67 544.937C1164.8 545.587 1165.18 547.034 1164.53 548.163Z" fill="#414042"/>
<path d="M1160.57 546.378C1161.19 545.3 1162.56 544.937 1163.63 545.549C1164.1 545.829 1164.43 546.244 1164.61 546.722C1164.55 546.065 1164.17 545.441 1163.55 545.077C1162.54 544.484 1161.25 544.835 1160.66 545.849C1160.48 546.161 1160.39 546.492 1160.38 546.83L1160.57 546.378Z" fill="#6D6C6E"/>
<path d="M1162.74 546.728C1162.56 547.034 1162.17 547.136 1161.87 546.964C1161.57 546.786 1161.46 546.397 1161.64 546.091C1161.81 545.791 1162.2 545.689 1162.5 545.861C1162.8 546.033 1162.91 546.422 1162.74 546.728Z" fill="#6D6C6E"/>
<path d="M1139.33 581.098L1138.88 581.225L1138.76 580.766L1139.21 580.639L1139.33 581.098Z" fill="#CFCFCF"/>
<path d="M746.39 607.747L653.322 762.159C642.815 779.557 620.335 785.353 602.739 775.19C584.907 764.881 578.793 742.057 589.09 724.213L635.381 643.979C640.82 634.568 638.461 622.245 629.427 616.207C619.519 609.609 606.271 612.816 600.412 622.965L553.776 703.805C543.474 721.656 520.663 727.77 502.831 717.461H502.824C485.228 707.305 479 684.915 488.811 667.121L575.912 509.267L746.39 607.747Z" fill="white"/>
<path d="M524.628 396.346C505.094 430.212 516.685 473.501 550.519 493.048L773.122 621.646C806.962 641.192 850.232 629.596 869.766 595.742L990.274 386.872C1009.81 353.012 998.217 309.717 964.383 290.17L741.78 161.572C707.94 142.025 664.676 153.628 645.142 187.488L524.628 396.346Z" fill="#505050"/>
<path d="M605.768 255.717L950.906 455.101L966.876 427.426L621.745 228.042L605.768 255.717Z" fill="#444444"/>
<path d="M611.27 246.186L956.414 445.57L961.374 436.963L616.236 237.573L611.27 246.186Z" fill="#505050"/>
<path d="M945.78 386.738C943.217 391.175 944.734 396.849 949.172 399.412C953.609 401.975 959.277 400.458 961.839 396.014C964.396 391.577 962.879 385.896 958.448 383.34C954.004 380.777 948.336 382.301 945.78 386.738Z" fill="#717171"/>
<path d="M651.441 216.7C648.885 221.137 650.408 226.818 654.839 229.381C659.283 231.937 664.95 230.42 667.507 225.976C670.07 221.539 668.553 215.865 664.122 213.302C659.678 210.739 654.01 212.256 651.441 216.7Z" fill="#717171"/>
<path d="M907.343 453.342C904.786 457.779 906.304 463.459 910.734 466.022C915.178 468.585 920.846 467.055 923.402 462.618C925.965 458.187 924.448 452.513 920.017 449.944C915.573 447.381 909.906 448.904 907.343 453.342Z" fill="#717171"/>
<path d="M613.017 283.31C610.46 287.741 611.977 293.421 616.408 295.984C620.852 298.547 626.52 297.017 629.076 292.586C631.639 288.149 630.122 282.469 625.685 279.906C621.247 277.349 615.58 278.873 613.017 283.31Z" fill="#717171"/>
<path d="M562.192 391.392C569.415 395.568 578.067 397.06 586.552 395.249L647.68 382.224C666.245 378.265 678.103 359.993 674.144 341.403C670.191 322.818 651.926 310.96 633.348 314.919L594.273 323.246L562.345 278.535C551.303 263.081 529.824 259.498 514.377 270.547C498.929 281.589 495.352 303.08 506.388 318.54L551.411 381.599C554.325 385.673 558.022 388.982 562.192 391.392Z" fill="white"/>
<path d="M507.345 309.666L552.374 372.725C555.287 376.799 558.979 380.108 563.148 382.524C570.378 386.693 579.023 388.185 590.199 385.648L651.314 372.629C658.69 371.208 666.742 364.845 671.415 356.531C668.655 369.359 658.652 380.031 644.989 382.938L583.868 395.963C575.383 397.774 566.731 396.282 559.508 392.112C555.332 389.703 551.641 386.394 548.727 382.313L503.704 319.267C495.684 308.027 495.41 293.645 501.766 282.354C499.777 291.522 501.473 301.442 507.345 309.666Z" fill="#E5E5E5"/>
<path d="M567.139 488.017C567.93 485.046 569.084 482.127 570.69 479.341L663.841 317.89C673.698 300.817 695.514 294.964 712.575 304.827L855.001 387.108C872.068 396.958 877.908 418.8 868.064 435.867L774.907 597.317C773.3 600.103 771.343 602.564 769.175 604.732L567.139 488.017Z" fill="#E5E5E5"/>
<path d="M662.107 451.161C653.558 465.984 658.626 484.938 673.442 493.494L711.274 515.355C726.097 523.911 745.032 518.836 753.581 504.007L762.156 489.152C770.705 474.329 765.631 455.382 750.821 446.82L712.983 424.958C698.173 416.409 679.225 421.484 670.676 436.307L662.107 451.161Z" fill="#6D28D9"/>
<path d="M695.004 420.91C688.393 423.32 682.559 427.968 678.766 434.541L670.197 449.395C661.642 464.218 666.723 483.166 681.533 491.728L719.371 513.589C725.032 516.853 731.293 518.135 737.349 517.638C729.055 520.653 719.524 520.118 711.274 515.355L673.442 493.494C658.626 484.938 653.558 465.984 662.107 451.161L670.676 436.307C675.961 427.152 685.205 421.713 695.004 420.91Z" fill="#4C1D95"/>
<path d="M688.954 456.765C681.565 469.573 685.945 485.958 698.746 493.354C711.548 500.749 727.92 496.356 735.309 483.555C742.698 470.74 738.318 454.355 725.51 446.96C712.715 439.565 696.343 443.957 688.954 456.765Z" fill="#DFDFDF"/>
<path d="M694.615 460.036C689.03 469.72 692.345 482.095 702.017 487.679C711.688 493.277 724.057 489.962 729.648 480.278C735.233 470.6 731.918 458.219 722.24 452.634C712.568 447.049 700.194 450.364 694.615 460.036Z" fill="#373737"/>
<path d="M715.456 467.087C713.709 470.103 714.742 473.947 717.758 475.694C720.767 477.434 724.618 476.401 726.358 473.386C728.092 470.37 727.066 466.52 724.05 464.779C721.041 463.039 717.19 464.078 715.456 467.087Z" fill="#636363"/>
<path d="M757.655 469.631C756.386 471.824 753.581 472.576 751.388 471.314C749.195 470.052 748.443 467.24 749.718 465.047C750.98 462.854 753.779 462.102 755.972 463.364C758.171 464.639 758.924 467.438 757.655 469.631Z" fill="#4C1D95"/>
<path d="M729.163 481.068C729.163 481.068 729.17 481.062 729.17 481.055C729.17 481.062 729.163 481.062 729.163 481.068ZM729.208 481.011C729.208 481.004 729.208 480.998 729.214 480.992C729.214 480.998 729.208 481.004 729.208 481.011Z" fill="#DFDFDF"/>
<path d="M716.081 489.994L705.638 451.002C707.729 450.288 709.935 449.925 712.16 449.925C715.271 449.925 718.414 450.639 721.341 452.137C721.647 452.29 721.946 452.462 722.24 452.634C722.278 452.653 722.323 452.679 722.354 452.698C722.38 452.711 722.393 452.717 722.405 452.723C722.412 452.73 722.412 452.73 722.412 452.73C722.425 452.742 722.444 452.749 722.456 452.755C723.355 453.291 724.203 453.89 724.987 454.54L731.076 477.249C730.681 478.276 730.215 479.296 729.648 480.278C729.635 480.303 729.622 480.322 729.603 480.348C729.597 480.361 729.597 480.367 729.591 480.373C729.584 480.386 729.578 480.399 729.565 480.424C729.565 480.431 729.559 480.437 729.546 480.444C729.54 480.456 729.533 480.475 729.52 480.495C729.52 480.501 729.514 480.507 729.508 480.514C729.501 480.526 729.482 480.552 729.476 480.571C729.469 480.571 729.469 480.577 729.463 480.584C729.457 480.603 729.444 480.628 729.431 480.648C729.418 480.654 729.412 480.66 729.412 480.679C729.399 480.692 729.393 480.705 729.386 480.718C729.38 480.724 729.374 480.737 729.367 480.75C729.355 480.762 729.348 480.769 729.342 480.781C729.335 480.801 729.329 480.807 729.323 480.82C729.316 480.826 729.316 480.832 729.31 480.845C729.278 480.896 729.246 480.947 729.214 480.992C729.208 480.998 729.208 481.005 729.208 481.011C729.195 481.024 729.189 481.036 729.17 481.056C729.17 481.062 729.163 481.068 729.163 481.068C726.103 485.863 721.309 488.961 716.081 489.994ZM717.477 475.522C716.814 477.128 717.433 479.009 718.975 479.902C719.524 480.22 720.136 480.38 720.729 480.38C721.946 480.38 723.132 479.749 723.783 478.62C724.312 477.689 724.382 476.625 724.057 475.694C724.981 475.152 725.784 474.381 726.358 473.386C728.092 470.37 727.066 466.52 724.05 464.779C723.426 464.416 722.769 464.174 722.093 464.046C722.004 463.122 721.481 462.261 720.62 461.764C720.149 461.49 719.639 461.362 719.135 461.362C718.115 461.362 717.114 461.898 716.566 462.847C716.036 463.766 716.049 464.849 716.508 465.723C716.107 466.118 715.75 466.571 715.456 467.087C713.767 470.001 714.678 473.705 717.477 475.522Z" fill="#595959"/>
<path d="M724.057 475.694C723.789 474.922 723.26 474.247 722.488 473.807C721.94 473.488 721.334 473.328 720.741 473.328C719.517 473.328 718.331 473.96 717.688 475.088C717.605 475.235 717.535 475.375 717.477 475.522C714.678 473.705 713.767 470.001 715.456 467.087C715.749 466.571 716.106 466.118 716.508 465.723C716.757 466.194 717.152 466.615 717.656 466.908C718.121 467.176 718.631 467.304 719.135 467.304C720.155 467.304 721.156 466.775 721.71 465.818C722.029 465.257 722.15 464.645 722.093 464.046C722.769 464.173 723.425 464.416 724.05 464.779C727.066 466.52 728.092 470.37 726.358 473.386C725.784 474.38 724.981 475.152 724.057 475.694Z" fill="#7C7C7C"/>
<path d="M716.508 465.723C716.049 464.849 716.036 463.765 716.566 462.847C717.114 461.897 718.115 461.362 719.135 461.362C719.639 461.362 720.149 461.489 720.62 461.764C721.481 462.261 722.004 463.122 722.093 464.046C721.704 463.976 721.309 463.931 720.907 463.931C719.281 463.931 717.694 464.562 716.508 465.723Z" fill="#A9A9A9"/>
<path d="M719.135 467.304C718.631 467.304 718.121 467.176 717.656 466.908C717.152 466.615 716.757 466.194 716.508 465.723C717.694 464.562 719.282 463.931 720.907 463.931C721.309 463.931 721.704 463.976 722.093 464.046C722.151 464.645 722.029 465.257 721.711 465.818C721.156 466.775 720.155 467.304 719.135 467.304Z" fill="#B7B7B7"/>
<path d="M720.729 480.38C720.136 480.38 719.524 480.22 718.975 479.902C717.433 479.009 716.814 477.128 717.477 475.522C717.566 475.579 717.662 475.636 717.758 475.694C718.746 476.261 719.83 476.542 720.901 476.542C722.01 476.542 723.1 476.249 724.057 475.694C724.382 476.625 724.312 477.689 723.782 478.62C723.132 479.749 721.946 480.38 720.729 480.38Z" fill="#A9A9A9"/>
<path d="M720.901 476.542C719.83 476.542 718.746 476.261 717.758 475.694C717.662 475.636 717.567 475.579 717.477 475.522C717.535 475.375 717.605 475.235 717.688 475.088C718.332 473.96 719.517 473.328 720.741 473.328C721.334 473.328 721.94 473.488 722.488 473.807C723.26 474.247 723.789 474.922 724.057 475.694C723.1 476.248 722.01 476.542 720.901 476.542Z" fill="#B7B7B7"/>
<path d="M711.944 490.395C709.546 490.37 707.124 489.93 704.809 489.025L696.356 457.486C697.918 455.535 699.792 453.947 701.858 452.723L711.944 490.395Z" fill="#595959"/>
<path d="M555.192 520.8C553.923 522.993 554.803 525.862 557.136 527.22L740.244 632.994C742.584 634.352 745.503 633.67 746.772 631.476L761.659 605.675C762.921 603.482 762.054 600.613 759.708 599.268L576.6 493.481C574.267 492.123 571.347 492.805 570.078 494.998L555.192 520.8Z" fill="#E5E5E5"/>
<path d="M769.175 604.732L567.139 488.017C567.904 485.148 569.001 482.337 570.518 479.634L774.735 597.617C773.16 600.275 771.266 602.64 769.175 604.732Z" fill="#C8C8C8"/>
<path d="M724.312 578.809L743.081 589.66L846.585 410.276L827.816 399.438L724.312 578.809Z" fill="#373737"/>
<path d="M728.315 580.607L733.352 583.508L836.85 404.136L831.813 401.223L728.315 580.607Z" fill="#505050"/>
<path d="M593.227 503.082L612.003 513.933L715.501 334.549L696.732 323.711L593.227 503.082Z" fill="#373737"/>
<path d="M597.238 504.88L602.261 507.781L705.766 328.41L700.736 325.496L597.238 504.88Z" fill="#505050"/>
<path d="M791.049 333.376L895.529 393.738C864.787 447.024 823.334 440.763 802.066 438.914C780.798 437.065 745.586 418.628 745.586 418.628L742.794 417.008L740.002 415.395C740.002 415.395 706.441 394.114 694.201 376.608C681.973 359.101 655.827 326.306 686.576 273.014L791.049 333.376Z" fill="#DDDDDD"/>
<path d="M687.239 273.403C670.829 312.917 694.755 340.134 706.588 355.142C719.486 371.501 753.173 392.578 753.173 392.578L755.965 394.197L758.752 395.81C758.752 395.81 793.835 414.452 814.441 417.455C833.356 420.202 868.874 427.33 894.86 393.349L895.529 393.738C864.787 447.024 823.334 440.763 802.066 438.914C780.798 437.065 745.586 418.628 745.586 418.628L742.794 417.008L740.002 415.395C740.002 415.395 706.441 394.114 694.201 376.608C681.973 359.101 655.827 326.306 686.576 273.014L687.239 273.403Z" fill="white"/>
<path d="M723.84 162.579L731.509 161.942C731.509 161.942 738.389 156.057 743.986 157.76C743.986 157.76 767.237 134.898 786.198 127.515C805.164 120.132 833.541 115.899 856.99 122.185C880.445 128.484 899.182 138.264 899.182 138.264L902.516 140.195L905.857 142.114C905.857 142.114 923.689 153.456 940.864 170.644C958.033 187.82 968.553 214.526 971.645 234.653C974.743 254.774 966.583 286.351 966.583 286.351C970.854 290.349 969.203 299.255 969.203 299.255L972.486 306.223C974.023 309.481 973.87 313.294 972.066 316.418L954.846 346.267C953.226 349.066 950.459 351.01 947.284 351.591L940.201 352.866C919.704 388.389 903.103 396.378 883.307 402.517C863.518 408.65 829.831 405.998 811.183 402.103C792.541 398.207 764.846 384.5 764.846 384.5L759.912 381.65C759.912 381.65 734.2 364.507 721.506 350.296C708.807 336.086 689.674 308.219 685.09 287.996C680.506 267.78 679.117 249.399 699.613 213.876L697.184 207.105C696.081 204.058 696.387 200.685 697.994 197.886L715.227 168.037C717.031 164.913 720.244 162.873 723.84 162.579Z" fill="white"/>
<path d="M724.407 184.67C737.152 164.773 733.607 164.231 755.857 168.509C778.12 172.786 810.883 184.645 832.974 194.884C855.065 205.122 860.822 208.699 860.822 208.699L862.454 209.636L864.067 210.573C864.067 210.573 870.047 213.774 889.951 227.8C909.861 241.826 936.516 264.292 951.339 281.442C966.162 298.592 963.931 295.78 953.08 316.775C942.222 337.769 920.604 365.202 908.522 378.374C896.728 391.252 869.454 394.025 835.212 393.069C801.696 392.138 771.254 375.932 771.254 375.932L767.683 373.872L764.12 371.82C764.12 371.82 734.876 353.535 717.305 324.954C699.358 295.761 688.131 270.738 693.372 254.079C698.734 237.025 711.669 204.568 724.407 184.67Z" fill="#373737"/>
<path d="M724.407 184.67C736.769 165.372 733.805 164.282 753.932 168.139C740.416 191.128 727.308 224.319 721.621 242.425C715.597 261.576 728.507 290.336 749.131 323.889C769.322 356.742 802.939 377.755 802.939 377.755L811.138 382.486C811.138 382.486 821.383 387.937 836.882 393.113C836.327 393.094 835.773 393.082 835.212 393.069C801.696 392.138 771.254 375.932 771.254 375.932L767.683 373.872L764.12 371.82C764.12 371.82 734.876 353.535 717.305 324.954C699.358 295.761 688.131 270.738 693.372 254.079C698.734 237.025 711.669 204.568 724.407 184.67Z" fill="#2C2C2C"/>
<path d="M941.247 237.879C938.601 242.463 940.176 248.322 944.747 250.968C949.331 253.62 955.184 252.039 957.829 247.461C960.469 242.877 958.9 237.025 954.323 234.373C949.745 231.733 943.893 233.302 941.247 237.879Z" fill="#DDDDDD"/>
<path d="M923.013 202.183C919.647 208.03 921.636 215.501 927.476 218.874C933.316 222.247 940.781 220.245 944.154 214.399C947.52 208.559 945.525 201.087 939.685 197.714C933.845 194.342 926.386 196.343 923.013 202.183Z" fill="#DDDDDD"/>
<path d="M707.927 375.562C706.441 378.15 707.328 381.466 709.916 382.951C712.498 384.449 715.807 383.563 717.299 380.975C718.797 378.38 717.911 375.078 715.322 373.579C712.728 372.087 709.425 372.974 707.927 375.562Z" fill="#DDDDDD"/>
<path d="M698.957 365.068C697.988 366.745 698.555 368.881 700.232 369.843C701.896 370.812 704.032 370.232 705.001 368.568C705.963 366.892 705.39 364.756 703.719 363.787C702.055 362.824 699.919 363.398 698.957 365.068Z" fill="#DDDDDD"/>
<path d="M875.07 391.692L820.95 189.598C825.1 191.339 829.072 193.079 832.731 194.769C832.763 194.788 832.802 194.807 832.846 194.82C832.846 194.826 832.853 194.826 832.853 194.826C832.891 194.845 832.935 194.858 832.974 194.884C855.064 205.122 860.821 208.699 860.821 208.699L862.453 209.636L864.066 210.573C864.066 210.573 870.047 213.774 889.951 227.8C891.206 228.692 892.501 229.604 893.795 230.554L899.673 252.472C897.544 251.561 895.306 251.121 893.094 251.121C887.292 251.121 881.663 254.136 878.551 259.517C874.554 266.441 876.052 275.029 881.682 280.244C878.59 282.755 875.899 285.86 873.789 289.52C866.177 302.71 868.523 318.929 878.513 329.436C876.913 330.475 875.529 331.891 874.516 333.65C871.086 339.611 873.119 347.223 879.074 350.666C881.031 351.795 883.173 352.336 885.284 352.336C889.581 352.336 893.763 350.105 896.065 346.108C897.276 344.023 897.805 341.734 897.735 339.496C899.424 339.758 901.12 339.885 902.81 339.885C909.459 339.885 916.007 337.903 921.553 334.186L927.317 355.722C920.367 364.762 913.603 372.833 908.522 378.374C908.509 378.399 908.49 378.418 908.471 378.431C908.465 378.437 908.458 378.444 908.458 378.444C908.439 378.469 908.426 378.488 908.401 378.501C908.401 378.507 908.395 378.52 908.395 378.52C908.382 378.533 908.369 378.546 908.35 378.558C908.344 378.565 908.337 378.578 908.331 378.584C908.318 378.603 908.305 378.616 908.286 378.629C908.273 378.648 908.267 378.654 908.261 378.66C908.254 378.667 908.241 378.68 908.235 378.686C908.222 378.692 908.216 378.711 908.203 378.718C908.19 378.731 908.184 378.743 908.171 378.756C908.152 378.775 908.146 378.782 908.133 378.794C908.127 378.801 908.12 378.801 908.12 378.807C901.369 385.833 889.861 389.76 875.07 391.692Z" fill="#5D5D5D"/>
<path d="M836.703 393.113C836.295 393.094 835.9 393.088 835.498 393.075C835.505 393.075 835.511 393.075 835.518 393.075C835.913 393.088 836.302 393.094 836.703 393.113ZM835.001 393.062C834.912 393.062 834.823 393.062 834.74 393.056C834.829 393.062 834.912 393.062 835.001 393.062Z" fill="#C0C0C0"/>
<path d="M846.783 393.241C843.506 393.241 840.14 393.196 836.703 393.113C836.302 393.094 835.913 393.088 835.518 393.075C835.97 393.088 836.423 393.101 836.882 393.113C832.598 391.685 828.715 390.232 825.336 388.88L767.008 171.052C776.38 173.456 786.727 176.714 797.01 180.36L853.987 393.158C851.635 393.215 849.231 393.241 846.783 393.241Z" fill="#5D5D5D"/>
<path d="M836.882 393.113C836.423 393.101 835.97 393.088 835.518 393.075C835.511 393.075 835.505 393.075 835.499 393.075C835.397 393.075 835.307 393.075 835.212 393.069C835.18 393.069 835.142 393.069 835.097 393.069C835.078 393.069 835.052 393.069 835.027 393.069C835.02 393.069 835.008 393.062 835.001 393.062C834.912 393.062 834.829 393.062 834.74 393.056C834.721 393.056 834.714 393.056 834.702 393.056C834.682 393.056 834.651 393.056 834.631 393.056C831.82 392.96 829.04 392.756 826.305 392.469L825.336 388.88C828.715 390.232 832.598 391.685 836.882 393.113Z" fill="#575757"/>
<path d="M921.553 334.186L906.501 277.987C906.896 277.451 907.266 276.89 907.61 276.304C908.171 275.328 908.624 274.321 908.975 273.294C912.621 273.964 916.224 275.264 919.615 277.234C935.668 286.504 941.164 307.033 931.901 323.093C929.248 327.689 925.672 331.419 921.553 334.186Z" fill="#5F5F5F"/>
<path d="M902.81 339.885C901.12 339.885 899.424 339.758 897.735 339.496C897.601 335.333 895.376 331.336 891.512 329.105C889.555 327.97 887.413 327.428 885.309 327.428C882.899 327.428 880.534 328.123 878.513 329.436C868.523 318.929 866.177 302.71 873.789 289.52C875.899 285.86 878.59 282.755 881.682 280.244C882.581 281.072 883.588 281.812 884.691 282.449C887.337 283.973 890.212 284.7 893.062 284.7C898.232 284.7 903.269 282.316 906.501 277.987L921.553 334.186C916.007 337.903 909.459 339.885 902.81 339.885Z" fill="#7D7D7D"/>
<path d="M908.975 273.294C907.693 273.052 906.399 272.886 905.111 272.804L899.673 252.472C900.279 252.734 900.878 253.033 901.465 253.378C908.516 257.452 911.493 265.861 908.975 273.294Z" fill="#5F5F5F"/>
<path d="M881.682 280.244C876.052 275.029 874.554 266.441 878.552 259.517C881.663 254.136 887.292 251.121 893.094 251.121C895.306 251.121 897.544 251.561 899.673 252.472L905.111 272.804C904.365 272.753 903.62 272.733 902.88 272.733C895.217 272.733 887.694 275.347 881.682 280.244Z" fill="#7D7D7D"/>
<path d="M906.501 277.987L905.111 272.803C906.399 272.886 907.693 273.052 908.975 273.294C908.624 274.321 908.172 275.328 907.61 276.304C907.266 276.89 906.896 277.451 906.501 277.987Z" fill="#7F7F7F"/>
<path d="M893.062 284.7C890.212 284.7 887.337 283.973 884.691 282.449C883.588 281.812 882.581 281.072 881.682 280.244C887.694 275.347 895.217 272.733 902.88 272.733C903.619 272.733 904.365 272.753 905.111 272.804L906.501 277.987C903.269 282.316 898.232 284.7 893.062 284.7Z" fill="#979797"/>
<path d="M885.284 352.336C883.174 352.336 881.031 351.795 879.074 350.666C873.12 347.223 871.086 339.611 874.516 333.65C875.529 331.891 876.913 330.475 878.513 329.436C880.681 331.712 883.205 333.733 886.068 335.384C889.785 337.526 893.731 338.884 897.735 339.496C897.805 341.734 897.276 344.023 896.065 346.108C893.763 350.105 889.581 352.336 885.284 352.336Z" fill="#7D7D7D"/>
<path d="M897.735 339.496C893.731 338.884 889.785 337.526 886.068 335.384C883.205 333.733 880.681 331.712 878.513 329.436C880.534 328.123 882.899 327.428 885.309 327.428C887.413 327.428 889.555 327.97 891.513 329.104C895.376 331.336 897.601 335.333 897.735 339.496Z" fill="#979797"/>
<path d="M865.699 440.164C866.547 440.591 867.395 440.98 868.223 441.464C890.716 454.457 898.424 483.23 885.443 505.741L816.882 624.559L773.696 599.606L865.699 440.164Z" fill="white"/>
<path d="M868.223 441.464C867.394 440.98 866.547 440.591 865.699 440.164L865.469 440.572C883.027 454.904 888.127 480.259 876.435 500.532L807.874 619.357L816.882 624.559L885.443 505.741C898.424 483.23 890.716 454.457 868.223 441.464Z" fill="#E5E5E5"/>
<path d="M761.11 600.607C751.356 617.521 757.145 639.152 774.04 648.913C790.941 658.674 812.547 652.885 822.308 635.971C832.068 619.057 826.273 597.438 809.378 587.671C792.477 577.91 770.871 583.699 761.11 600.607Z" fill="#D1D3D4"/>
<path d="M804.559 613.377C802.531 616.889 803.736 621.384 807.249 623.412C810.762 625.445 815.25 624.24 817.29 620.727C819.311 617.208 818.113 612.72 814.594 610.686C811.081 608.659 806.593 609.864 804.559 613.377Z" fill="white"/>
<path d="M562.396 299.663C550.2 320.81 523.175 328.053 502.034 315.844C480.906 303.635 473.663 276.591 485.859 255.443C498.062 234.296 525.087 227.047 546.228 239.256C567.356 251.471 574.598 278.509 562.396 299.663Z" fill="#D1D3D4"/>
<path d="M510.169 245.3C507.995 249.068 509.283 253.888 513.051 256.068C516.825 258.242 521.638 256.948 523.812 253.174C525.986 249.406 524.698 244.586 520.931 242.412C517.163 240.232 512.349 241.519 510.169 245.3Z" fill="white"/>
</svg>
